<?xml version="1.0" encoding="utf-8"?>
<!-- Generator: Adobe Illustrator 25.0.1, SVG Export Plug-In . SVG Version: 6.00 Build 0)  -->
<svg version="1.1" id="presidentcartsvg" xmlns="http://www.w3.org/2000/svg" xmlns:xlink="http://www.w3.org/1999/xlink" x="0px"
	 y="0px" viewBox="0 0 530.9 394.2" style="enable-background:new 0 0 530.9 394.2;" xml:space="preserve">
<style type="text/css">
	.cart_outline{fill:none;stroke:#000000;stroke-width:2;stroke-linejoin:round;}
	.st2{opacity:0.8;fill:#FFFFFF;}
</style>
<g id="RI" class="RI outer">
	<g id="RI_shape" class="RI shape">
		<path id="hex-001" d="M484,66.6l7.4,4.4v8.5l-7.4,4.4l-7.4-4.4V71L484,66.6z"/>
		<path id="hex-002" d="M498.8,66.6l7.4,4.4v8.5l-7.4,4.4l-7.4-4.4V71L498.8,66.6z"/>
		<path id="hex-003" d="M491.4,79.5l7.4,4.4v8.5l-7.4,4.4l-7.4-4.4v-8.5L491.4,79.5z"/>
		<path id="hex-004" d="M506.2,79.5l7.5,4.4v8.5l-7.4,4.4l-7.4-4.4v-8.5L506.2,79.5z"/>
	</g>
	<polygon class="cart_outline" points="506.2,79.2 506.2,71.1 498.8,66.7 491.4,71.1 484,66.7 476.6,71.1 476.6,79.6 484,84 484,92.5 
		491.4,96.9 498.8,92.5 498.9,92.5 506.3,96.9 513.7,92.5 513.7,84 506.2,79.6 	"/>
</g>
<g id="CT" class="CT outer">
	<g id="CT_shape" class="CT shape">
		<path id="hex-005" d="M454.4,66.6l7.4,4.4v8.5l-7.4,4.4l-7.4-4.4V71L454.4,66.6z"/>
		<path id="hex-006" d="M469.2,66.6l7.4,4.4v8.5l-7.4,4.4l-7.4-4.4V71L469.2,66.6z"/>
		<path id="hex-007" d="M446.9,79.5l7.4,4.4v8.5l-7.4,4.4l-7.4-4.4v-8.5L446.9,79.5z"/>
		<path id="hex-008" d="M461.8,79.5l7.4,4.4v8.5l-7.4,4.4l-7.4-4.4v-8.5L461.8,79.5z"/>
		<path id="hex-009" d="M476.6,79.5l7.4,4.4v8.5l-7.4,4.4l-7.4-4.4v-8.5L476.6,79.5z"/>
		<path id="hex-010" d="M454.4,92.3l7.4,4.4v8.5l-7.4,4.4l-7.4-4.4v-8.5L454.4,92.3z"/>
		<path id="hex-011" d="M469.2,92.3l7.4,4.4v8.5l-7.4,4.4l-7.4-4.4v-8.5L469.2,92.3z"/>
	</g>
	<path class="cart_outline" d="M446.9,79.5l-7.4,4.4v8.5l7.4,4.4l0.1-0.1v8.5l7.4,4.4l7.4-4.4l7.4,4.4l7.4-4.4v-8.4l7.4-4.4v-8.5l-7.4-4.4V71
		l-7.4-4.4l-7.4,4.4l-7.4-4.4L447,71v8.5H446.9z"/>
</g>
<g id="NH" class="NH outer">
	<g id="NH_shape" class="NH shape">
		<path id="hex-012" d="M484,15.3l7.4,4.4v8.5l-7.4,4.4l-7.4-4.4v-8.5L484,15.3z"/>
		<path id="hex-013" d="M498.8,15.3l7.4,4.4v8.5l-7.4,4.4l-7.4-4.4v-8.5L498.8,15.3z"/>
		<path id="hex-014" d="M476.6,28.2l7.4,4.4V41l-7.4,4.4l-7.4-4.4v-8.5L476.6,28.2z"/>
		<path id="hex-015" d="M491.4,28.2l7.4,4.4V41l-7.4,4.4L484,41v-8.5L491.4,28.2z"/>
	</g>
	<polygon class="cart_outline" points="498.8,15.3 491.4,19.7 484,15.3 476.6,19.7 476.6,28.2 469.2,32.5 469.2,41 476.6,45.4 484,41 
		491.4,45.4 498.8,41 498.8,32.6 506.2,28.2 506.2,19.7 	"/>
</g>
<g id="ME" class="ME outer">
	<g id="ME_shape" class="ME shape">
		<path id="hex-016" d="M491.4,2.5l7.4,4.4v8.5l-7.4,4.4l-7.4-4.4V6.9L491.4,2.5z"/>
		<path id="hex-017" d="M506.2,2.5l7.5,4.4v8.5l-7.4,4.4l-7.4-4.4V6.9L506.2,2.5z"/>
		<path class="cd" id="ME_CD2" d="M521,2.5l7.4,4.4v8.5l-7.4,4.4l-7.4-4.4V6.9L521,2.5z"/>
		<path class="cd" id="ME_CD1" d="M513.7,15.3l7.4,4.4v8.5l-7.4,4.3l-7.5-4.3v-8.5L513.7,15.3z"/>
	</g>

	<polygon class="cart_outline" points="498.8,6.9 491.4,2.5 484,6.9 484,15.4 491.4,19.8 498.8,15.4 498.9,15.4 506.2,19.7 506.2,28.2 
		513.7,32.5 521.1,28.2 521.1,19.7 528.4,15.4 528.4,6.9 521,2.5 513.6,6.9 506.2,2.5 498.9,6.9 	"/>
</g>
<g id="NJ" class="NJ outer">
	<g id="NJ_shape" class="NJ shape">
		<path id="hex-020" d="M424.7,92.3l7.4,4.4v8.5l-7.4,4.4l-7.4-4.4v-8.5L424.7,92.3z"/>
		<path id="hex-021" d="M417.3,105.1l7.4,4.4v8.5l-7.4,4.4l-7.4-4.4v-8.5L417.3,105.1z"/>
		<path id="hex-022" d="M432.1,105.1l7.4,4.4v8.5l-7.4,4.4l-7.4-4.4v-8.5L432.1,105.1z"/>
		<path id="hex-023" d="M409.9,118l7.4,4.4v8.5l-7.4,4.4l-7.4-4.4v-8.5L409.9,118z"/>
		<path id="hex-024" d="M424.7,118l7.4,4.4v8.5l-7.4,4.4l-7.4-4.4v-8.5L424.7,118z"/>
		<path id="hex-025" d="M439.5,118l7.4,4.4v8.5l-7.4,4.4l-7.4-4.4v-8.5L439.5,118z"/>
		<path id="hex-026" d="M402.5,130.8l7.4,4.4v8.5l-7.4,4.4l-7.4-4.4v-8.4L402.5,130.8z"/>
		<path id="hex-027" d="M417.3,130.8l7.4,4.4v8.5l-7.4,4.4l-7.4-4.4v-8.4L417.3,130.8z"/>
		<path id="hex-028" d="M432.1,130.8l7.4,4.4v8.5l-7.4,4.4l-7.4-4.4v-8.4L432.1,130.8z"/>
		<path id="hex-029" d="M409.9,143.6l7.4,4.4v8.5l-7.4,4.4l-7.4-4.4V148L409.9,143.6z"/>
		<path id="hex-030" d="M424.7,143.6l7.4,4.4v8.5l-7.4,4.4l-7.4-4.4V148L424.7,143.6z"/>
		<path id="hex-031" d="M439.5,143.6l7.4,4.4v8.5l-7.4,4.4l-7.4-4.4V148L439.5,143.6z"/>
		<path id="hex-032" d="M417.3,156.4l7.4,4.4v8.5l-7.4,4.4l-7.4-4.4v-8.5L417.3,156.4z"/>
		<path id="hex-033" d="M432.1,156.4l7.4,4.4v8.5l-7.4,4.4l-7.4-4.4v-8.5L432.1,156.4z"/>
	</g>
	<path class="cart_outline" d="M425.4,169.7l6.7,4l7.4-4.4v-8.4l7.4-4.4V148l-7.4-4.4v-8.3l7.4-4.4v-8.5l-7.4-4.4v-8.5l-7.4-4.4v-8.4
		l-7.4-4.4l-7.4,4.4v8.4l-7.4,4.4v8.5l-7.4,4.4v8.4l-7.4,4.5v8.4l7.4,4.4v8.4l7.4,4.4v8.4l7.4,4.4l7.4-4.4L425.4,169.7z"/>
</g>
<g id="MA" class="MA outer">
	<g id="MA_shape" class="MA shape">
		<path id="hex-034" d="M454.4,41l7.4,4.4v8.5l-7.4,4.4l-7.4-4.4v-8.5L454.4,41z"/>
		<path id="hex-035" d="M469.2,41l7.4,4.4v8.5l-7.4,4.4l-7.4-4.4v-8.5L469.2,41z"/>
		<path id="hex-036" d="M484,41l7.4,4.4v8.5l-7.4,4.4l-7.4-4.4v-8.5L484,41z"/>
		<path id="hex-037" d="M498.8,41l7.4,4.4v8.5l-7.4,4.4l-7.4-4.4v-8.5L498.8,41z"/>
		<path id="hex-038" d="M513.7,41l7.4,4.4v8.5l-7.4,4.4l-7.4-4.4v-8.5L513.7,41z"/>
		<path id="hex-039" d="M446.9,53.8l7.4,4.4v8.5l-7.4,4.4l-7.4-4.4v-8.5L446.9,53.8z"/>
		<path id="hex-040" d="M461.8,53.8l7.4,4.4v8.5l-7.4,4.4l-7.4-4.4v-8.5L461.8,53.8z"/>
		<path id="hex-041" d="M476.6,53.8l7.4,4.4v8.5l-7.4,4.4l-7.4-4.4v-8.5L476.6,53.8z"/>
		<path id="hex-042" d="M491.4,53.8l7.4,4.4v8.5l-7.4,4.4l-7.4-4.4v-8.5L491.4,53.8z"/>
		<path id="hex-043" d="M506.2,53.8l7.5,4.4v8.5l-7.4,4.4l-7.4-4.4v-8.5L506.2,53.8z"/>
		<path id="hex-044" d="M521,53.8l7.4,4.4v8.5L521,71l-7.4-4.4v-8.5L521,53.8z"/>
	</g>
	<polygon class="cart_outline" points="506.2,45.3 498.8,40.9 491.4,45.3 484,40.9 476.6,45.3 469.2,40.9 462.3,45 461.8,45.3 454.4,40.9 
		447,45.3 447,53.8 446.9,53.7 439.5,58.1 439.5,66.6 446.9,71 454.3,66.6 454.9,66.9 461.8,71 469.2,66.6 476.6,71 484,66.6 
		491.4,71 498.8,66.6 498.9,66.6 506.3,71 513.7,66.6 513.7,66.6 521,70.9 528.4,66.6 528.4,58.1 521.1,53.8 521.1,45.3 513.7,40.9 
		506.3,45.3 	"/>
</g>
<g id="DE" class="DE outer">
	<g id="DE_shape" class="DE shape">
		<path id="hex-045" d="M387.7,130.8l7.4,4.4v8.5l-7.4,4.4l-7.4-4.4v-8.4L387.7,130.8z"/>
		<path id="hex-046" d="M395.1,143.6l7.4,4.4v8.5l-7.4,4.4l-7.4-4.4V148L395.1,143.6z"/>
		<path id="hex-047" d="M402.5,156.4l7.4,4.4v8.5l-7.4,4.4l-7.4-4.4v-8.5L402.5,156.4z"/>
	</g>
	<polygon class="cart_outline" points="402.5,156.4 402.5,148 395.1,143.6 395.1,135.2 387.7,130.8 380.3,135.3 380.3,143.7 387.7,148.1 
		387.7,156.5 395.1,160.9 395.1,169.3 402.5,173.7 409.9,169.3 409.9,160.8 	"/>
</g>
<g id="SC" class="SC outer">
	<g id="SC_shape" class="SC shape">
		<path id="hex-048" d="M321,246.3l7.4,4.4v8.5l-7.4,4.4l-7.4-4.4v-8.5L321,246.3z"/>
		<path id="hex-049" d="M335.8,246.3l7.4,4.4v8.5l-7.4,4.4l-7.4-4.4v-8.5L335.8,246.3z"/>
		<path id="hex-050" d="M350.7,246.3l7.4,4.4v8.5l-7.4,4.4l-7.4-4.4v-8.5L350.7,246.3z"/>
		<path id="hex-051" d="M365.5,246.3l7.4,4.4v8.5l-7.4,4.4l-7.4-4.4v-8.5L365.5,246.3z"/>
		<path id="hex-052" d="M343.2,259.1l7.4,4.4v8.5l-7.4,4.4l-7.4-4.4v-8.5L343.2,259.1z"/>
		<path id="hex-053" d="M358.1,259.1l7.4,4.4v8.5l-7.4,4.4l-7.4-4.4v-8.5L358.1,259.1z"/>
		<path id="hex-054" d="M372.9,259.1l7.4,4.4v8.5l-7.4,4.4l-7.4-4.4v-8.5L372.9,259.1z"/>
		<path id="hex-055" d="M350.7,271.9l7.4,4.4v8.5l-7.4,4.4l-7.4-4.4v-8.5L350.7,271.9z"/>
		<path id="hex-056" d="M365.5,271.9l7.4,4.4v8.5l-7.4,4.4l-7.4-4.4v-8.5L365.5,271.9z"/>
	</g>
	<path class="cart_outline" d="M343.2,250.7l-7.4-4.4l-7.4,4.4l-7.4-4.4l-7.4,4.4v8.5l7.4,4.4l7.4-4.4l7.4,4.4v8.4l7.4,4.4l0.1-0.1v8.5
		l7.4,4.4l7.4-4.4l7.4,4.4l7.4-4.4v-8.4l7.4-4.4v-8.5l-7.4-4.4v-8.4l-7.4-4.4l-7.4,4.4l-7.4-4.4l-7.4,4.4L343.2,250.7L343.2,250.7z"
		/>
</g>
<g id="DC" class="DC outer">
	<g id="DC_shape" class="DC shape">
		<path id="hex-057" d="M358.1,156.4l7.4,4.4v8.5l-7.4,4.4l-7.4-4.4v-8.5L358.1,156.4z"/>
		<path id="hex-058" d="M350.7,169.3l7.4,4.4v8.5l-7.4,4.4l-7.4-4.4v-8.5L350.7,169.3z"/>
		<path id="hex-059" d="M365.5,169.3l7.4,4.4v8.5l-7.4,4.4l-7.4-4.4v-8.5L365.5,169.3z"/>
	</g>
	<polygon class="cart_outline" points="365.5,169.4 365.5,160.9 358.1,156.5 350.7,160.9 350.7,169.4 343.3,173.8 343.3,182.3 350.7,186.7 
		358.1,182.3 365.5,186.7 372.9,182.3 372.9,173.8 	"/>
</g>
<g id="VT" class="VT outer">
	<g id="VT_shape" class="VT shape">
		<path id="hex-060" d="M454.4,15.3l7.4,4.4v8.5l-7.4,4.4l-7.4-4.4v-8.5L454.4,15.3z"/>
		<path id="hex-061" d="M469.2,15.3l7.4,4.4v8.5l-7.4,4.4l-7.4-4.4v-8.5L469.2,15.3z"/>
		<path id="hex-062" d="M461.8,28.2l7.4,4.4V41l-7.4,4.4l-7.4-4.4v-8.5L461.8,28.2z"/>
	</g>
	<polygon class="cart_outline" points="469.2,32.6 476.6,28.2 476.6,19.7 469.2,15.3 461.8,19.7 454.4,15.3 447,19.7 447,28.2 454.4,32.6 
		454.4,41 461.8,45.4 469.2,41 469.2,33.2 	"/>
</g>
<g id="NC" class="NC outer">
	<g id="NC_shape" class="NC shape">
		<path id="hex-063" d="M313.7,207.8l7.4,4.4v8.5l-7.4,4.4l-7.4-4.4v-8.5L313.7,207.8z"/>
		<path id="hex-064" d="M328.4,207.8l7.4,4.4v8.5l-7.4,4.4l-7.4-4.4v-8.5L328.4,207.8z"/>
		<path id="hex-065" d="M343.2,207.8l7.4,4.4v8.5l-7.4,4.4l-7.4-4.4v-8.5L343.2,207.8z"/>
		<path id="hex-066" d="M358.1,207.8l7.4,4.4v8.5l-7.4,4.4l-7.4-4.4v-8.5L358.1,207.8z"/>
		<path id="hex-067" d="M372.9,207.8l7.4,4.4v8.5l-7.4,4.4l-7.4-4.4v-8.5L372.9,207.8z"/>
		<path id="hex-068" d="M306.2,220.6l7.4,4.4v8.5l-7.4,4.4l-7.4-4.4V225L306.2,220.6z"/>
		<path id="hex-069" d="M321,220.6l7.4,4.4v8.5l-7.4,4.4l-7.4-4.4V225L321,220.6z"/>
		<path id="hex-070" d="M335.8,220.6l7.4,4.4v8.5l-7.4,4.4l-7.4-4.4V225L335.8,220.6z"/>
		<path id="hex-071" d="M350.7,220.6l7.4,4.4v8.5l-7.4,4.4l-7.4-4.4V225L350.7,220.6z"/>
		<path id="hex-072" d="M365.5,220.6l7.4,4.4v8.5l-7.4,4.4l-7.4-4.4V225L365.5,220.6z"/>
		<path id="hex-073" d="M313.7,233.4l7.4,4.4v8.5l-7.4,4.4l-7.4-4.4v-8.5L313.7,233.4z"/>
		<path id="hex-074" d="M328.4,233.4l7.4,4.4v8.5l-7.4,4.4l-7.4-4.4v-8.5L328.4,233.4z"/>
		<path id="hex-075" d="M343.2,233.4l7.4,4.4v8.5l-7.4,4.4l-7.4-4.4v-8.5L343.2,233.4z"/>
		<path id="hex-076" d="M358.1,233.4l7.4,4.4v8.5l-7.4,4.4l-7.4-4.4v-8.5L358.1,233.4z"/>
		<path id="hex-077" d="M372.9,233.4l7.4,4.4v8.5l-7.4,4.4l-7.4-4.4v-8.5L372.9,233.4z"/>
	</g>
	<path class="cart_outline" d="M350.5,212.2l-7.4-4.4l-7.4,4.4l-7.4-4.4l-7.3,4.4l-7.3-4.4l-7.4,4.4v8.5l-0.1-0.1l-7.4,4.4v8.5l7.4,4.4
		l0.1-0.1v8.5l7.4,4.4l7.3-4.4l7.3,4.4l7.4-4.4l7.4,4.4l7.4-4.4h0.1l7.4,4.4l7.4-4.4l7.4,4.4l7.4-4.4v-8.5l-7.4-4.4v-8.3l7.4-4.4
		v-8.5l-7.4-4.4l-7.4,4.4l-7.4-4.4l-7.4,4.4L350.5,212.2L350.5,212.2z"/>
</g>
<g id="MD" class="MD outer">
	<g id="MD_shape" class="MD shape">
		<path id="hex-078" d="M358.1,130.8l7.4,4.4v8.5l-7.4,4.4l-7.4-4.4v-8.4L358.1,130.8z"/>
		<path id="hex-079" d="M372.9,130.8l7.4,4.4v8.5l-7.4,4.4l-7.4-4.4v-8.4L372.9,130.8z"/>
		<path id="hex-080" d="M350.7,143.6l7.4,4.4v8.5l-7.4,4.4l-7.4-4.4V148L350.7,143.6z"/>
		<path id="hex-081" d="M365.5,143.6l7.4,4.4v8.5l-7.4,4.4l-7.4-4.4V148L365.5,143.6z"/>
		<path id="hex-082" d="M380.3,143.6l7.4,4.4v8.5l-7.4,4.4l-7.4-4.4V148L380.3,143.6z"/>
		<path id="hex-083" d="M343.2,156.4l7.4,4.4v8.5l-7.4,4.4l-7.4-4.4v-8.5L343.2,156.4z"/>
		<path id="hex-084" d="M372.9,156.4l7.4,4.4v8.5l-7.4,4.4l-7.4-4.4v-8.5L372.9,156.4z"/>
		<path id="hex-085" d="M387.7,156.4l7.4,4.4v8.5l-7.4,4.4l-7.4-4.4v-8.5L387.7,156.4z"/>
		<path id="hex-086" d="M380.3,169.3l7.4,4.4v8.5l-7.4,4.4l-7.4-4.4v-8.5L380.3,169.3z"/>
		<path id="hex-087" d="M395.1,169.3l7.4,4.4v8.5l-7.4,4.4l-7.4-4.4v-8.5L395.1,169.3z"/>
	</g>
	<polygon class="cart_outline" points="387.7,182.2 395.1,186.6 402.5,182.2 402.5,173.7 395.1,169.3 395.1,160.8 387.7,156.4 387.7,156.4 
		387.7,148 380.3,143.6 380.3,135.2 372.9,130.8 365.5,135.3 365.5,135.2 358.1,130.8 350.7,135.3 350.7,143.6 343.3,148 
		343.3,156.5 343.2,156.4 335.8,160.8 335.8,169.3 343.2,173.7 350.6,169.3 350.6,160.8 350.7,160.9 358.1,156.5 365.5,160.9 
		365.5,169.3 372.9,173.7 372.9,182.2 380.3,186.6 386.8,182.7 	"/>
</g>
<g id="FL" class="FL outer">
	<g id="FL_shape" class="FL shape">
		<path id="hex-088" d="M276.6,297.6l7.4,4.4v8.5l-7.4,4.4l-7.4-4.4V302L276.6,297.6z"/>
		<path id="hex-089" d="M291.4,297.6l7.4,4.4v8.5l-7.4,4.4l-7.4-4.4V302L291.4,297.6z"/>
		<path id="hex-090" d="M306.2,297.6l7.4,4.4v8.5l-7.4,4.4l-7.4-4.4V302L306.2,297.6z"/>
		<path id="hex-091" d="M321,297.6l7.4,4.4v8.5l-7.4,4.4l-7.4-4.4V302L321,297.6z"/>
		<path id="hex-092" d="M335.8,297.6l7.4,4.4v8.5l-7.4,4.4l-7.4-4.4V302L335.8,297.6z"/>
		<path id="hex-093" d="M350.7,297.6l7.4,4.4v8.5l-7.4,4.4l-7.4-4.4V302L350.7,297.6z"/>
		<path id="hex-094" d="M298.8,310.4l7.4,4.4v8.5l-7.4,4.4l-7.4-4.4v-8.5L298.8,310.4z"/>
		<path id="hex-095" d="M313.7,310.4l7.4,4.4v8.5l-7.4,4.4l-7.4-4.4v-8.5L313.7,310.4z"/>
		<path id="hex-096" d="M328.4,310.4l7.4,4.4v8.5l-7.4,4.4l-7.4-4.4v-8.5L328.4,310.4z"/>
		<path id="hex-097" d="M343.2,310.4l7.4,4.4v8.5l-7.4,4.4l-7.4-4.4v-8.5L343.2,310.4z"/>
		<path id="hex-098" d="M306.2,323.2l7.4,4.4v8.5l-7.4,4.4l-7.4-4.4v-8.5L306.2,323.2z"/>
		<path id="hex-099" d="M321,323.2l7.4,4.4v8.5l-7.4,4.4l-7.4-4.4v-8.5L321,323.2z"/>
		<path id="hex-100" d="M335.8,323.2l7.4,4.4v8.5l-7.4,4.4l-7.4-4.4v-8.5L335.8,323.2z"/>
		<path id="hex-101" d="M350.7,323.2l7.4,4.4v8.5l-7.4,4.4l-7.4-4.4v-8.5L350.7,323.2z"/>
		<path id="hex-102" d="M313.7,336.1l7.4,4.4v8.5l-7.4,4.4l-7.4-4.4v-8.5L313.7,336.1z"/>
		<path id="hex-103" d="M328.4,336.1l7.4,4.4v8.5l-7.4,4.4L321,349v-8.5L328.4,336.1z"/>
		<path id="hex-104" d="M343.2,336.1l7.4,4.4v8.5l-7.4,4.4l-7.4-4.4v-8.5L343.2,336.1z"/>
		<path id="hex-105" d="M358.1,336.1l7.4,4.4v8.5l-7.4,4.4l-7.4-4.4v-8.5L358.1,336.1z"/>
		<path id="hex-106" d="M321,348.9l7.4,4.4v8.5l-7.4,4.4l-7.4-4.4v-8.5L321,348.9z"/>
		<path id="hex-107" d="M335.8,348.9l7.4,4.4v8.5l-7.4,4.4l-7.4-4.4v-8.5L335.8,348.9z"/>
		<path id="hex-108" d="M350.7,348.9l7.4,4.4v8.5l-7.4,4.4l-7.4-4.4v-8.5L350.7,348.9z"/>
		<path id="hex-109" d="M365.5,348.9l7.4,4.4v8.5l-7.4,4.4l-7.4-4.4v-8.5L365.5,348.9z"/>
		<path id="hex-110" d="M328.4,361.7l7.4,4.4v8.5l-7.4,4.4l-7.4-4.4v-8.5L328.4,361.7z"/>
		<path id="hex-111" d="M343.2,361.7l7.4,4.4v8.5l-7.4,4.4l-7.4-4.4v-8.5L343.2,361.7z"/>
		<path id="hex-112" d="M358.1,361.7l7.4,4.4v8.5l-7.4,4.4l-7.4-4.4v-8.5L358.1,361.7z"/>
		<path id="hex-113" d="M372.9,361.7l7.4,4.4v8.5l-7.4,4.4l-7.4-4.4v-8.5L372.9,361.7z"/>
		<path id="hex-114" d="M335.8,374.6l7.4,4.4v8.5l-7.4,4.4l-7.4-4.4V379L335.8,374.6z"/>
		<path id="hex-115" d="M350.7,374.6l7.4,4.4v8.5l-7.4,4.4l-7.4-4.4V379L350.7,374.6z"/>
		<path id="hex-116" d="M365.5,374.6l7.4,4.4v8.5l-7.4,4.4l-7.4-4.4V379L365.5,374.6z"/>
	</g>
	<path class="cart_outline" d="M343.2,302l-7.4-4.4l-7.4,4.4l-7.4-4.4l-7.4,4.4l-7.4-4.4l-7.4,4.4l-7.4-4.4L284,302l-7.4-4.4l-7.4,4.4v8.5
		l7.4,4.4l7.4-4.4l7.4,4.4v8.4l7.4,4.4v8.4l7.4,4.4h0.1v8.5l7.3,4.3v8.5l7.4,4.4v8.4l7.4,4.4v8.5l7.4,4.4l7.4-4.4h0.1l7.4,4.4
		l7.4-4.4l7.4,4.4l7.4-4.4V379l7.4-4.4v-8.5l-7.4-4.4v-8.4l-7.4-4.4v-8.4l-7.4-4.4v-8.5l-7.4-4.4l-0.1,0.1v-8.4l0.1,0.1l7.4-4.4V302
		l-7.4-4.4L343.2,302L343.2,302z"/>
</g>
<g id="GA" class="GA outer">
	<g id="GA_shape" class="GA shape">
		<path id="hex-117" d="M284,233.4l7.4,4.4v8.5l-7.4,4.4l-7.4-4.4v-8.5L284,233.4z"/>
		<path id="hex-118" d="M298.8,233.4l7.4,4.4v8.5l-7.4,4.4l-7.4-4.4v-8.5L298.8,233.4z"/>
		<path id="hex-119" d="M291.4,246.3l7.4,4.4v8.5l-7.4,4.4l-7.4-4.4v-8.5L291.4,246.3z"/>
		<path id="hex-120" d="M306.2,246.3l7.4,4.4v8.5l-7.4,4.4l-7.4-4.4v-8.5L306.2,246.3z"/>
		<path id="hex-121" d="M298.8,259.1l7.4,4.4v8.5l-7.4,4.4l-7.4-4.4v-8.5L298.8,259.1z"/>
		<path id="hex-122" d="M313.7,259.1l7.4,4.4v8.5l-7.4,4.4l-7.4-4.4v-8.5L313.7,259.1z"/>
		<path id="hex-123" d="M328.4,259.1l7.4,4.4v8.5l-7.4,4.4L321,272v-8.5L328.4,259.1z"/>
		<path id="hex-124" d="M291.4,271.9l7.4,4.4v8.5l-7.4,4.4l-7.4-4.4v-8.5L291.4,271.9z"/>
		<path id="hex-125" d="M306.2,271.9l7.4,4.4v8.5l-7.4,4.4l-7.4-4.4v-8.5L306.2,271.9z"/>
		<path id="hex-126" d="M321,271.9l7.4,4.4v8.5l-7.4,4.4l-7.4-4.4v-8.5L321,271.9z"/>
		<path id="hex-127" d="M335.8,271.9l7.4,4.4v8.5l-7.4,4.4l-7.4-4.4v-8.5L335.8,271.9z"/>
		<path id="hex-128" d="M298.8,284.8l7.4,4.4v8.5l-7.4,4.4l-7.4-4.4v-8.5L298.8,284.8z"/>
		<path id="hex-129" d="M313.7,284.8l7.4,4.4v8.5l-7.4,4.4l-7.4-4.4v-8.5L313.7,284.8z"/>
		<path id="hex-130" d="M328.4,284.8l7.4,4.4v8.5l-7.4,4.4l-7.4-4.4v-8.5L328.4,284.8z"/>
		<path id="hex-131" d="M343.2,284.8l7.4,4.4v8.5l-7.4,4.4l-7.4-4.4v-8.5L343.2,284.8z"/>
		<path id="hex-132" d="M358.1,284.8l7.4,4.4v8.5l-7.4,4.4l-7.4-4.4v-8.5L358.1,284.8z"/>
	</g>
	<polygon class="cart_outline" points="350.6,289.2 343.2,284.8 343.2,284.1 343.2,276.3 335.8,271.9 335.8,263.5 328.4,259.1 321,263.5 
		313.7,259.1 313.6,259.2 313.6,250.7 306.6,246.5 306.2,246.3 306.2,237.8 298.8,233.4 291.4,237.8 284,233.4 276.6,237.8 
		276.6,246.3 284,250.7 284,251 284,259.2 291.4,263.6 291.4,271.9 284,276.3 284,284.8 291.4,289.2 291.4,297.7 298.8,302.1 
		306.2,297.7 306.3,297.7 313.7,302.1 321,297.7 328.4,302.1 335.8,297.7 343.2,302.1 350.6,297.7 350.7,297.7 358.1,302.1 
		365.5,297.7 365.5,289.2 358.1,284.8 350.7,289.2 	"/>
</g>
<g id="AL" class="AL outer">
	<g id="AL_shape" class="AL shape">
		<path id="hex-133" d="M269.2,233.4l7.4,4.4v8.5l-7.4,4.4l-7.4-4.4v-8.5L269.2,233.4z"/>
		<path id="hex-134" d="M261.8,246.3l7.4,4.4v8.5l-7.4,4.4l-7.4-4.4v-8.5L261.8,246.3z"/>
		<path id="hex-135" d="M276.6,246.3l7.4,4.4v8.5l-7.4,4.4l-7.4-4.4v-8.5L276.6,246.3z"/>
		<path id="hex-136" d="M269.2,259.1l7.4,4.4v8.5l-7.4,4.4l-7.4-4.4v-8.5L269.2,259.1z"/>
		<path id="hex-137" d="M284,259.1l7.4,4.4v8.5l-7.4,4.4l-7.4-4.4v-8.5L284,259.1z"/>
		<path id="hex-138" d="M261.8,271.9l7.4,4.4v8.5l-7.4,4.4l-7.4-4.4v-8.5L261.8,271.9z"/>
		<path id="hex-139" d="M276.6,271.9l7.4,4.4v8.5l-7.4,4.4l-7.4-4.4v-8.5L276.6,271.9z"/>
		<path id="hex-140" d="M269.2,284.8l7.4,4.4v8.5l-7.4,4.4l-7.4-4.4v-8.5L269.2,284.8z"/>
		<path id="hex-141" d="M284,284.8l7.4,4.4v8.5l-7.4,4.4l-7.4-4.4v-8.5L284,284.8z"/>
	</g>
	<polygon class="cart_outline" points="261.8,289.5 261.8,297.6 269.2,302 276.6,297.6 284,302 291.4,297.6 291.4,289.1 284,284.7 284,276.3 
		291.4,271.9 291.4,263.4 284,259 284,250.6 276.6,246.2 276.6,245.8 276.6,237.7 269.2,233.3 261.8,237.7 261.8,246.2 261.6,246.3 
		254.4,250.6 254.4,259.1 261.8,263.5 261.8,263.5 261.8,271.8 261.8,271.8 254.4,276.2 254.4,284.7 261.8,289.1 	"/>
</g>
<g id="VA" class="VA outer">
	<g id="VA_shape" class="VA shape">
		<path id="hex-142" d="M321,169.3l7.4,4.4v8.5l-7.4,4.4l-7.4-4.4v-8.5L321,169.3z"/>
		<path id="hex-143" d="M335.8,169.3l7.4,4.4v8.5l-7.4,4.4l-7.4-4.4v-8.5L335.8,169.3z"/>
		<path id="hex-144" d="M298.8,182.1l7.4,4.4v8.5l-7.4,4.4l-7.4-4.4v-8.5L298.8,182.1z"/>
		<path id="hex-145" d="M313.7,182.1l7.4,4.4v8.5l-7.4,4.4l-7.4-4.4v-8.5L313.7,182.1z"/>
		<path id="hex-146" d="M328.4,182.1l7.4,4.4v8.5l-7.4,4.4L321,195v-8.5L328.4,182.1z"/>
		<path id="hex-147" d="M343.2,182.1l7.4,4.4v8.5l-7.4,4.4l-7.4-4.4v-8.5L343.2,182.1z"/>
		<path id="hex-148" d="M358.1,182.1l7.4,4.4v8.5l-7.4,4.4l-7.4-4.4v-8.5L358.1,182.1z"/>
		<path id="hex-149" d="M372.9,182.1l7.4,4.4v8.5l-7.4,4.4l-7.4-4.4v-8.5L372.9,182.1z"/>
		<path id="hex-150" d="M306.2,194.9l7.4,4.4v8.5l-7.4,4.4l-7.4-4.4v-8.5L306.2,194.9z"/>
		<path id="hex-151" d="M321,194.9l7.4,4.4v8.5l-7.4,4.4l-7.4-4.4v-8.5L321,194.9z"/>
		<path id="hex-152" d="M335.8,194.9l7.4,4.4v8.5l-7.4,4.4l-7.4-4.4v-8.5L335.8,194.9z"/>
		<path id="hex-153" d="M350.7,194.9l7.4,4.4v8.5l-7.4,4.4l-7.4-4.4v-8.5L350.7,194.9z"/>
		<path id="hex-154" d="M365.5,194.9l7.4,4.4v8.5l-7.4,4.4l-7.4-4.4v-8.5L365.5,194.9z"/>
	</g>
	<polygon class="cart_outline" points="343.3,207.9 350.7,212.3 358.1,207.9 365.5,212.3 372.9,207.9 372.9,199.5 380.3,195.1 380.3,186.6 
		372.9,182.2 365.5,186.6 358.1,182.2 350.7,186.6 350.6,186.6 343.2,182.2 343.2,182.2 343.2,173.8 335.8,169.4 328.4,173.8 
		321,169.4 313.6,173.8 313.6,182.3 306.3,186.6 306.2,186.6 298.8,182.2 291.4,186.6 291.4,195.1 298.8,199.5 298.8,207.9 
		306.2,212.3 313.6,207.9 321,212.3 328.4,207.9 335.8,212.3 343.2,207.9 	"/>
</g>
<g id="WV" class="WV outer">
	<g id="WV_shape" class="WV shape">
		<path id="hex-155" d="M343.2,130.8l7.4,4.4v8.5l-7.4,4.4l-7.4-4.4v-8.5L343.2,130.8z"/>
		<path id="hex-156" d="M335.8,143.6l7.4,4.4v8.5l-7.4,4.4l-7.4-4.4V148L335.8,143.6z"/>
		<path id="hex-157" d="M313.7,156.4l7.4,4.4v8.5l-7.4,4.4l-7.4-4.4v-8.5L313.7,156.4z"/>
		<path id="hex-158" d="M328.4,156.4l7.4,4.4v8.5l-7.4,4.4l-7.4-4.4v-8.5L328.4,156.4z"/>
		<path id="hex-159" d="M306.2,169.3l7.4,4.4v8.5l-7.4,4.4l-7.4-4.4v-8.5L306.2,169.3z"/>
	</g>
	<polygon class="cart_outline" points="313.7,173.8 321,169.5 328.3,173.8 335.8,169.4 335.8,161 343.1,156.6 343.1,148.2 343.2,148.2 
		350.5,143.8 350.5,135.3 343.2,130.9 335.8,135.3 335.8,143.7 328.3,148.1 328.3,156.5 321,160.9 313.7,156.5 306.2,160.9 
		306.2,169.4 306.2,169.4 298.8,173.8 298.8,182.3 306.2,186.7 313.5,182.3 313.5,173.8 	"/>
</g>
<g id="PA" class="PA outer">
	<g id="PA_shape" class="PA shape">
		<path id="hex-160" d="M343.2,79.5l7.4,4.4v8.5l-7.4,4.4l-7.4-4.4v-8.5L343.2,79.5z"/>
		<path id="hex-161" d="M358.1,79.5l7.4,4.4v8.5l-7.4,4.4l-7.4-4.4v-8.5L358.1,79.5z"/>
		<path id="hex-162" d="M372.9,79.5l7.4,4.4v8.5l-7.4,4.4l-7.4-4.4v-8.5L372.9,79.5z"/>
		<path id="hex-163" d="M387.7,79.5l7.4,4.4v8.5l-7.4,4.4l-7.4-4.4v-8.5L387.7,79.5z"/>
		<path id="hex-164" d="M402.5,79.5l7.4,4.4v8.5l-7.4,4.4l-7.4-4.4v-8.5L402.5,79.5z"/>
		<path id="hex-165" d="M335.8,92.3l7.4,4.4v8.5l-7.4,4.4l-7.4-4.4v-8.5L335.8,92.3z"/>
		<path id="hex-166" d="M350.7,92.3l7.4,4.4v8.5l-7.4,4.4l-7.4-4.4v-8.5L350.7,92.3z"/>
		<path id="hex-167" d="M365.5,92.3l7.4,4.4v8.5l-7.4,4.4l-7.4-4.4v-8.5L365.5,92.3z"/>
		<path id="hex-168" d="M380.3,92.3l7.4,4.4v8.5l-7.4,4.4l-7.4-4.4v-8.5L380.3,92.3z"/>
		<path id="hex-169" d="M395.1,92.3l7.4,4.4v8.5l-7.4,4.4l-7.4-4.4v-8.5L395.1,92.3z"/>
		<path id="hex-170" d="M409.9,92.3l7.4,4.4v8.5l-7.4,4.4l-7.4-4.4v-8.5L409.9,92.3z"/>
		<path id="hex-171" d="M343.2,105.1l7.4,4.4v8.5l-7.4,4.4l-7.4-4.4v-8.5L343.2,105.1z"/>
		<path id="hex-172" d="M358.1,105.1l7.4,4.4v8.5l-7.4,4.4l-7.4-4.4v-8.5L358.1,105.1z"/>
		<path id="hex-173" d="M372.9,105.1l7.4,4.4v8.5l-7.4,4.4l-7.4-4.4v-8.5L372.9,105.1z"/>
		<path id="hex-174" d="M387.7,105.1l7.4,4.4v8.5l-7.4,4.4l-7.4-4.4v-8.5L387.7,105.1z"/>
		<path id="hex-175" d="M402.5,105.1l7.4,4.4v8.5l-7.4,4.4l-7.4-4.4v-8.5L402.5,105.1z"/>
		<path id="hex-176" d="M350.7,118l7.4,4.4v8.5l-7.4,4.4l-7.4-4.4v-8.5L350.7,118z"/>
		<path id="hex-177" d="M365.5,118l7.4,4.4v8.5l-7.4,4.4l-7.4-4.4v-8.5L365.5,118z"/>
		<path id="hex-178" d="M380.3,118l7.4,4.4v8.5l-7.4,4.4l-7.4-4.4v-8.5L380.3,118z"/>
		<path id="hex-179" d="M395.1,118l7.4,4.4v8.5l-7.4,4.4l-7.4-4.4v-8.5L395.1,118z"/>
	</g>
	<path class="cart_outline" d="M343.3,122.4v8.5l7.4,4.4l7.4-4.4l7.4,4.4l7.4-4.4l7.4,4.4l7.4-4.4l7.4,4.4l7.4-4.4v-8.5l7.4-4.4v-8.4l7.4-4.4
		v-8.5l-7.4-4.4v-8.4l-7.4-4.4l-7.4,4.4l-7.4-4.4l-7.4,4.4l-0.3-0.2l-7.1-4.2l-7.4,4.4l-7.4-4.4l-7.4,4.4h-0.1l-7.4-4.4l-7.4,4.4
		v8.4l0,0l-7.4,4.4v8.5l7.4,4.4l0,0v8.4l7.4,4.4H343.3z"/>
</g>
<g id="NY" class="NY outer">
	<g id="NY_shape" class="NY shape">
		<path id="hex-180" d="M409.9,15.3l7.4,4.4v8.5l-7.4,4.4l-7.4-4.4v-8.5L409.9,15.3z"/>
		<path id="hex-181" d="M424.7,15.3l7.4,4.4v8.5l-7.4,4.4l-7.4-4.4v-8.5L424.7,15.3z"/>
		<path id="hex-182" d="M439.5,15.3l7.4,4.4v8.5l-7.4,4.4l-7.4-4.4v-8.5L439.5,15.3z"/>
		<path id="hex-183" d="M402.5,28.2l7.4,4.4V41l-7.4,4.4l-7.4-4.4v-8.5L402.5,28.2z"/>
		<path id="hex-184" d="M417.3,28.2l7.4,4.4V41l-7.4,4.4l-7.4-4.4v-8.5L417.3,28.2z"/>
		<path id="hex-185" d="M432.1,28.2l7.4,4.4V41l-7.4,4.4l-7.4-4.4v-8.5L432.1,28.2z"/>
		<path id="hex-186" d="M446.9,28.2l7.4,4.4V41l-7.4,4.4l-7.4-4.4v-8.5L446.9,28.2z"/>
		<path id="hex-187" d="M395.1,41l7.4,4.4v8.5l-7.4,4.4l-7.4-4.4v-8.5L395.1,41z"/>
		<path id="hex-188" d="M409.9,41l7.4,4.4v8.5l-7.4,4.4l-7.4-4.4v-8.5L409.9,41z"/>
		<path id="hex-189" d="M424.7,41l7.4,4.4v8.5l-7.4,4.4l-7.4-4.4v-8.5L424.7,41z"/>
		<path id="hex-190" d="M439.5,41l7.4,4.4v8.5l-7.4,4.4l-7.4-4.4v-8.5L439.5,41z"/>
		<path id="hex-191" d="M358.1,53.8l7.4,4.4v8.5l-7.4,4.4l-7.4-4.4v-8.5L358.1,53.8z"/>
		<path id="hex-192" d="M372.9,53.8l7.4,4.4v8.5l-7.4,4.4l-7.4-4.4v-8.5L372.9,53.8z"/>
		<path id="hex-193" d="M387.7,53.8l7.4,4.4v8.5l-7.4,4.4l-7.4-4.4v-8.5L387.7,53.8z"/>
		<path id="hex-194" d="M402.5,53.8l7.4,4.4v8.5l-7.4,4.4l-7.4-4.4v-8.5L402.5,53.8z"/>
		<path id="hex-195" d="M417.3,53.8l7.4,4.4v8.5l-7.4,4.4l-7.4-4.4v-8.5L417.3,53.8z"/>
		<path id="hex-196" d="M432.1,53.8l7.4,4.4v8.5l-7.4,4.4l-7.4-4.4v-8.5L432.1,53.8z"/>
		<path id="hex-197" d="M350.7,66.6l7.4,4.4v8.5l-7.4,4.4l-7.4-4.4V71L350.7,66.6z"/>
		<path id="hex-198" d="M365.5,66.6l7.4,4.4v8.5l-7.4,4.4l-7.4-4.4V71L365.5,66.6z"/>
		<path id="hex-199" d="M380.3,66.6l7.4,4.4v8.5l-7.4,4.4l-7.4-4.4V71L380.3,66.6z"/>
		<path id="hex-200" d="M395.1,66.6l7.4,4.4v8.5l-7.4,4.4l-7.4-4.4V71L395.1,66.6z"/>
		<path id="hex-201" d="M409.9,66.6l7.4,4.4v8.5l-7.4,4.4l-7.4-4.4V71L409.9,66.6z"/>
		<path id="hex-202" d="M424.7,66.6l7.4,4.4v8.5l-7.4,4.4l-7.4-4.4V71L424.7,66.6z"/>
		<path id="hex-203" d="M439.5,66.6l7.4,4.4v8.5l-7.4,4.4l-7.4-4.4V71L439.5,66.6z"/>
		<path id="hex-204" d="M417.3,79.5l7.4,4.4v8.5l-7.4,4.4l-7.4-4.4v-8.5L417.3,79.5z"/>
		<path id="hex-205" d="M432.1,79.5l7.4,4.4v8.5l-7.4,4.4l-7.4-4.4v-8.5L432.1,79.5z"/>
		<path id="hex-206" d="M439.5,92.3l7.4,4.4v8.5l-7.4,4.4l-7.4-4.4v-8.5L439.5,92.3z"/>
		<path id="hex-207" d="M446.9,105.1l7.4,4.4v8.5l-7.4,4.4l-7.4-4.4v-8.5L446.9,105.1z"/>
		<path id="hex-208" d="M461.8,105.1l7.4,4.4v8.5l-7.4,4.4l-7.4-4.4v-8.5L461.8,105.1z"/>
	</g>
	<polygon class="cart_outline" points="454.3,109.5 446.9,105.1 446.9,96.7 439.5,92.3 439.5,83.9 446.9,79.5 446.9,71 439.5,66.6 
		439.5,58.3 446.9,53.9 446.9,45.4 454.3,41 454.3,32.6 446.9,28.2 446.9,19.7 439.5,15.3 432.1,19.7 424.7,15.3 417.4,19.6 
		417.3,19.7 409.9,15.3 402.5,19.7 402.5,28.2 395.1,32.5 395.1,41 387.7,45.4 387.7,53.8 380.9,57.9 380.3,58.2 372.9,53.8 
		365.5,58.2 358.1,53.8 350.7,58.2 350.7,66.6 343.3,71 343.3,79.5 350.7,83.9 358.1,79.5 365.5,83.9 372.9,79.5 380.3,83.9 
		387.7,79.5 395.1,83.9 402.5,79.5 409.9,83.9 409.9,92.4 417.3,96.8 424.7,92.4 432.1,96.8 432.1,105.2 439.5,109.6 439.5,118 
		446.9,122.4 454.3,118 454.4,118 461.8,122.4 469.2,118 469.2,109.5 461.8,105.1 454.4,109.5 	"/>
</g>
<g id="MS" class="MS outer">
	<g id="MS_shape" class="MS shape">
		<path id="hex-209" d="M239.5,233.4l7.4,4.4v8.5l-7.4,4.4l-7.4-4.4v-8.5L239.5,233.4z"/>
		<path id="hex-210" d="M254.4,233.4l7.4,4.4v8.5l-7.4,4.4l-7.4-4.4v-8.5L254.4,233.4z"/>
		<path id="hex-211" d="M246.9,246.3l7.4,4.4v8.5l-7.4,4.4l-7.4-4.4v-8.5L246.9,246.3z"/>
		<path id="hex-212" d="M239.5,259.1l7.4,4.4v8.5l-7.4,4.4l-7.4-4.4v-8.5L239.5,259.1z"/>
		<path id="hex-213" d="M254.4,259.1l7.4,4.4v8.5l-7.4,4.4L247,272v-8.5L254.4,259.1z"/>
		<path id="hex-214" d="M246.9,271.9l7.4,4.4v8.5l-7.4,4.4l-7.4-4.4v-8.5L246.9,271.9z"/>
	</g>
	<g>
		<path class="cart_outline" d="M254.4,250.6l7.4-4.4v-8.5l-7.4-4.4l-7.4,4.4h-0.1l-7.4-4.4l-7.4,4.4v8.5l7.4,4.4v0.5v7.9l-7.4,4.4v8.5
			l7.4,4.4v8.4l7.4,4.4l7.4-4.4v-8.5l0.1,0.1l7.4-4.4v-8.5l-7.4-4.4l-0.1,0.1L254.4,250.6L254.4,250.6z"/>
	</g>
</g>
<g id="KY" class="KY outer">
	<g id="KY_shape" class="KY shape">
		<path id="hex-215" d="M276.6,169.3l7.4,4.4v8.5l-7.4,4.4l-7.4-4.4v-8.5L276.6,169.3z"/>
		<path id="hex-216" d="M291.4,169.3l7.4,4.4v8.5l-7.4,4.4l-7.4-4.4v-8.5L291.4,169.3z"/>
		<path id="hex-217" d="M269.2,182.1l7.4,4.4v8.5l-7.4,4.4l-7.4-4.4v-8.5L269.2,182.1z"/>
		<path id="hex-218" d="M284,182.1l7.4,4.4v8.5l-7.4,4.4l-7.4-4.4v-8.5L284,182.1z"/>
		<path id="hex-219" d="M246.9,194.9l7.4,4.4v8.5l-7.4,4.4l-7.4-4.4v-8.5L246.9,194.9z"/>
		<path id="hex-220" d="M261.8,194.9l7.4,4.4v8.5l-7.4,4.4l-7.4-4.4v-8.5L261.8,194.9z"/>
		<path id="hex-221" d="M276.6,194.9l7.4,4.4v8.5l-7.4,4.4l-7.4-4.4v-8.5L276.6,194.9z"/>
		<path id="hex-222" d="M291.4,194.9l7.4,4.4v8.5l-7.4,4.4l-7.4-4.4v-8.5L291.4,194.9z"/>
	</g>
	<polygon class="cart_outline" points="269.4,207.9 276.6,212.2 284,207.8 291.4,212.2 298.8,207.8 298.8,199.3 291.4,194.9 291.4,186.6 
		298.8,182.2 298.8,173.7 291.4,169.3 284,173.7 276.6,169.3 269.2,173.7 269.2,182.1 261.8,186.5 261.8,194.9 254.4,199.3 
		254.3,199.3 246.9,194.9 239.5,199.3 239.5,207.8 246.9,212.2 254.3,207.8 254.4,207.8 261.8,212.2 269.2,207.8 	"/>
</g>
<g id="OH" class="OH outer">
	<g id="OH_shape" class="OH shape">
		<path id="hex-223" d="M291.4,92.3l7.4,4.4v8.5l-7.4,4.4l-7.4-4.4v-8.5L291.4,92.3z"/>
		<path id="hex-224" d="M306.2,92.3l7.5,4.4v8.5l-7.4,4.4l-7.4-4.4v-8.5L306.2,92.3z"/>
		<path id="hex-225" d="M321,92.3l7.4,4.4v8.5l-7.4,4.4l-7.4-4.4v-8.5L321,92.3z"/>
		<path id="hex-226" d="M298.8,105.1l7.4,4.4v8.5l-7.4,4.4l-7.4-4.4v-8.5L298.8,105.1z"/>
		<path id="hex-227" d="M313.7,105.1l7.4,4.4v8.5l-7.4,4.4l-7.4-4.4v-8.5L313.7,105.1z"/>
		<path id="hex-228" d="M328.4,105.1l7.4,4.4v8.5l-7.4,4.4L321,118v-8.5L328.4,105.1z"/>
		<path id="hex-229" d="M291.4,118l7.4,4.4v8.5l-7.4,4.4l-7.4-4.4v-8.5L291.4,118z"/>
		<path id="hex-230" d="M306.2,118l7.4,4.4v8.5l-7.4,4.4l-7.4-4.4v-8.5L306.2,118z"/>
		<path id="hex-231" d="M321,118l7.4,4.4v8.5l-7.4,4.4l-7.4-4.4v-8.5L321,118z"/>
		<path id="hex-232" d="M335.8,118l7.4,4.4v8.5l-7.4,4.4l-7.4-4.4v-8.5L335.8,118z"/>
		<path id="hex-233" d="M284,130.8l7.4,4.4v8.5L284,148l-7.4-4.4v-8.4L284,130.8z"/>
		<path id="hex-234" d="M298.8,130.8l7.4,4.4v8.5l-7.4,4.4l-7.4-4.4v-8.4L298.8,130.8z"/>
		<path id="hex-235" d="M313.7,130.8l7.4,4.4v8.5l-7.4,4.4l-7.4-4.4v-8.4L313.7,130.8z"/>
		<path id="hex-236" d="M328.4,130.8l7.4,4.4v8.5l-7.4,4.4l-7.4-4.4v-8.4L328.4,130.8z"/>
		<path id="hex-237" d="M291.4,143.6l7.4,4.4v8.5l-7.4,4.4l-7.4-4.4V148L291.4,143.6z"/>
		<path id="hex-238" d="M306.2,143.6l7.4,4.4v8.5l-7.4,4.4l-7.4-4.4V148L306.2,143.6z"/>
		<path id="hex-239" d="M321,143.6l7.4,4.4v8.5l-7.4,4.4l-7.4-4.4V148L321,143.6z"/>
		<path id="hex-240" d="M298.8,156.4l7.4,4.4v8.5l-7.4,4.4l-7.4-4.4v-8.5L298.8,156.4z"/>
	</g>
	<path class="cart_outline" d="M298.8,96.7l-7.4-4.4l-7.4,4.4v8.5l7.4,4.4v8.4l-7.4,4.4v8.4l-7.4,4.4v8.4l7.4,4.4v8.5l7.4,4.4v8.4l7.4,4.4
		l7.4-4.4v-8.4l0,0l7.4-4.4l7.4,4.4l7.4-4.4v-8.4l7.4-4.4v-8.4l7.4-4.4v-8.5l-7.4-4.4v-8.5l-7.4-4.4v-8.4l-7.4-4.4l-7.4,4.4
		l-7.4-4.4l-7.3,4.4C298.9,96.7,298.8,96.7,298.8,96.7z"/>
</g>
<g id="LA" class="LA outer">
	<g id="LA_shape" class="LA shape">
		<path id="hex-241" d="M217.3,246.3l7.4,4.4v8.5l-7.4,4.4l-7.4-4.4v-8.5L217.3,246.3z"/>
		<path id="hex-242" d="M232.1,246.3l7.4,4.4v8.5l-7.4,4.4l-7.4-4.4v-8.5L232.1,246.3z"/>
		<path id="hex-243" d="M209.9,259.1l7.4,4.4v8.5l-7.4,4.4l-7.4-4.4v-8.5L209.9,259.1z"/>
		<path id="hex-244" d="M224.7,259.1l7.4,4.4v8.5l-7.4,4.4l-7.4-4.4v-8.5L224.7,259.1z"/>
		<path id="hex-245" d="M217.3,271.9l7.4,4.4v8.5l-7.4,4.4l-7.4-4.4v-8.5L217.3,271.9z"/>
		<path id="hex-246" d="M232.1,271.9l7.4,4.4v8.5l-7.4,4.4l-7.4-4.4v-8.5L232.1,271.9z"/>
		<path id="hex-247" d="M224.7,284.8l7.4,4.4v8.5l-7.4,4.4l-7.4-4.4v-8.5L224.7,284.8z"/>
		<path id="hex-248" d="M239.5,284.8l7.4,4.4v8.5l-7.4,4.4l-7.4-4.4v-8.5L239.5,284.8z"/>
	</g>
	<path class="cart_outline" d="M239.5,284.8v-8.5l-7.4-4.4v-8.3l7.4-4.4v-8.5l-7.4-4.4l-7.4,4.4l0,0l-7.4-4.4l-7.4,4.4v8.4l-7.4,4.4v8.5
		l7.4,4.4v8.4l7.4,4.4v8.5l7.4,4.4l7.4-4.4l7.4,4.4l7.4-4.4v-8.5L239.5,284.8z"/>
</g>
<g id="TN" class="TN outer">
	<g id="TN_shape" class="TN shape">
		<path id="hex-249" d="M224.7,207.8l7.4,4.4v8.5l-7.4,4.4l-7.4-4.4v-8.5L224.7,207.8z"/>
		<path id="hex-250" d="M239.5,207.8l7.4,4.4v8.5l-7.4,4.4l-7.4-4.4v-8.5L239.5,207.8z"/>
		<path id="hex-251" d="M254.4,207.8l7.4,4.4v8.5l-7.4,4.4l-7.4-4.4v-8.5L254.4,207.8z"/>
		<path id="hex-252" d="M269.2,207.8l7.4,4.4v8.5l-7.4,4.4l-7.4-4.4v-8.5L269.2,207.8z"/>
		<path id="hex-253" d="M284,207.8l7.4,4.4v8.5L284,225l-7.4-4.4v-8.5L284,207.8z"/>
		<path id="hex-254" d="M298.8,207.8l7.4,4.4v8.5l-7.4,4.4l-7.4-4.4v-8.5L298.8,207.8z"/>
		<path id="hex-255" d="M232.1,220.6l7.4,4.4v8.5l-7.4,4.4l-7.4-4.4V225L232.1,220.6z"/>
		<path id="hex-256" d="M246.9,220.6l7.4,4.4v8.5l-7.4,4.4l-7.4-4.4V225L246.9,220.6z"/>
		<path id="hex-257" d="M261.8,220.6l7.4,4.4v8.5l-7.4,4.4l-7.4-4.4V225L261.8,220.6z"/>
		<path id="hex-258" d="M276.6,220.6l7.4,4.4v8.5l-7.4,4.4l-7.4-4.4V225L276.6,220.6z"/>
		<path id="hex-259" d="M291.4,220.6l7.4,4.4v8.5l-7.4,4.4l-7.4-4.4V225L291.4,220.6z"/>
	</g>
	<polygon class="cart_outline" points="254.4,233.5 261.8,237.9 269.2,233.5 276.6,237.9 284,233.5 291.4,237.9 298.8,233.5 298.8,225.1 
		306.2,220.7 306.2,212.2 298.8,207.8 291.4,212.2 284,207.8 276.6,212.1 276.6,212.2 269.2,207.8 261.8,212.2 261.7,212.2 
		254.4,207.8 247,212.2 246.9,212.2 239.5,207.8 232.1,212.2 224.7,207.8 217.3,212.2 217.3,220.7 224.7,225.1 224.7,233.5 
		232.1,237.9 239.5,233.5 246.9,237.9 254.3,233.5 	"/>
</g>
<g id="IN" class="IN outer">
	<g id="IN_shape" class="IN shape">
		<path id="hex-260" d="M246.9,118l7.4,4.4v8.5l-7.4,4.4l-7.4-4.4v-8.5L246.9,118z"/>
		<path id="hex-261" d="M261.8,118l7.4,4.4v8.5l-7.4,4.4l-7.4-4.4v-8.5L261.8,118z"/>
		<path id="hex-262" d="M276.6,118l7.4,4.4v8.5l-7.4,4.4l-7.4-4.4v-8.5L276.6,118z"/>
		<path id="hex-263" d="M254.4,130.8l7.4,4.4v8.5l-7.4,4.4l-7.4-4.4v-8.5L254.4,130.8z"/>
		<path id="hex-264" d="M269.2,130.8l7.4,4.4v8.5l-7.4,4.4l-7.4-4.4v-8.4L269.2,130.8z"/>
		<path id="hex-265" d="M261.8,143.6l7.4,4.4v8.5l-7.4,4.4l-7.4-4.4V148L261.8,143.6z"/>
		<path id="hex-266" d="M276.6,143.6l7.4,4.4v8.5l-7.4,4.4l-7.4-4.4V148L276.6,143.6z"/>
		<path id="hex-267" d="M254.4,156.4l7.4,4.4v8.5l-7.4,4.4l-7.4-4.4v-8.5L254.4,156.4z"/>
		<path id="hex-268" d="M269.2,156.4l7.4,4.4v8.5l-7.4,4.4l-7.4-4.4v-8.5L269.2,156.4z"/>
		<path id="hex-269" d="M284,156.4l7.4,4.4v8.5l-7.4,4.4l-7.4-4.4v-8.5L284,156.4z"/>
		<path id="hex-270" d="M261.8,169.3l7.4,4.4v8.5l-7.4,4.4l-7.4-4.4v-8.5L261.8,169.3z"/>
	</g>
	<polygon class="cart_outline" points="269.2,173.7 276.6,169.3 284,173.7 291.4,169.3 291.4,160.8 284,156.4 284,148 276.6,143.6 
		276.6,135.3 284,130.9 284,122.4 276.6,118 269.2,122.4 261.8,118 254.4,122.4 254.3,122.4 246.9,118 239.5,122.4 239.5,130.9 
		246.9,135.3 247,135.2 247,143.7 254.4,148.1 254.4,156.4 247,160.8 247,169.3 254.4,173.7 254.4,173.9 254.4,182.2 261.8,186.6 
		269.2,182.2 269.2,174.2 	"/>
</g>
<g id="AR" class="AR outer">
	<g id="AR_shape" class="AR shape">
		<path id="hex-271" d="M195.1,207.8l7.4,4.4v8.5l-7.4,4.4l-7.4-4.4v-8.5L195.1,207.8z"/>
		<path id="hex-272" d="M209.9,207.8l7.4,4.4v8.5l-7.4,4.4l-7.4-4.4v-8.5L209.9,207.8z"/>
		<path id="hex-273" d="M202.5,220.6l7.4,4.4v8.5l-7.4,4.4l-7.4-4.4V225L202.5,220.6z"/>
		<path id="hex-274" d="M217.3,220.6l7.4,4.4v8.5l-7.4,4.4l-7.4-4.4V225L217.3,220.6z"/>
		<path id="hex-275" d="M209.9,233.4l7.4,4.4v8.5l-7.4,4.4l-7.4-4.4v-8.5L209.9,233.4z"/>
		<path id="hex-276" d="M224.7,233.4l7.4,4.4v8.5l-7.4,4.4l-7.4-4.4v-8.5L224.7,233.4z"/>
	</g>
	<polygon class="cart_outline" points="217.3,246.3 224.7,250.7 232.1,246.3 232.1,237.8 224.7,233.4 224.7,225 217.3,220.6 217.3,220.6 
		217.3,212.2 209.9,207.8 202.5,212.2 195.1,207.8 187.7,212.2 187.7,220.7 195.1,225.1 195.1,233.5 202.5,237.9 202.5,246.3 
		209.9,250.7 216.9,246.6 	"/>
</g>
<g id="TX" class="TX outer">
	<g id="TX_shape" class="TX shape">
		<path id="hex-277" d="M143.2,220.6l7.4,4.4v8.5l-7.4,4.4l-7.4-4.4V225L143.2,220.6z"/>
		<path id="hex-278" d="M158.1,220.6l7.4,4.4v8.5l-7.4,4.4l-7.4-4.4V225L158.1,220.6z"/>
		<path id="hex-279" d="M187.7,220.6l7.4,4.4v8.5l-7.4,4.4l-7.4-4.4V225L187.7,220.6z"/>
		<path id="hex-280" d="M135.8,233.4l7.4,4.4v8.5l-7.4,4.4l-7.4-4.4v-8.5L135.8,233.4z"/>
		<path id="hex-281" d="M150.7,233.4l7.4,4.4v8.5l-7.4,4.4l-7.4-4.4v-8.5L150.7,233.4z"/>
		<path id="hex-282" d="M165.5,233.4l7.4,4.4v8.5l-7.4,4.4l-7.4-4.4v-8.5L165.5,233.4z"/>
		<path id="hex-283" d="M180.3,233.4l7.4,4.4v8.5l-7.4,4.4l-7.4-4.4v-8.5L180.3,233.4z"/>
		<path id="hex-284" d="M195.1,233.4l7.4,4.4v8.5l-7.4,4.4l-7.4-4.4v-8.5L195.1,233.4z"/>
		<path id="hex-285" d="M128.4,246.3l7.4,4.4v8.5l-7.4,4.4l-7.4-4.4v-8.5L128.4,246.3z"/>
		<path id="hex-286" d="M143.2,246.3l7.4,4.4v8.5l-7.4,4.4l-7.4-4.4v-8.5L143.2,246.3z"/>
		<path id="hex-287" d="M158.1,246.3l7.4,4.4v8.5l-7.4,4.4l-7.4-4.4v-8.5L158.1,246.3z"/>
		<path id="hex-288" d="M172.9,246.3l7.4,4.4v8.5l-7.4,4.4l-7.4-4.4v-8.5L172.9,246.3z"/>
		<path id="hex-289" d="M187.7,246.3l7.4,4.4v8.5l-7.4,4.4l-7.4-4.4v-8.5L187.7,246.3z"/>
		<path id="hex-290" d="M202.5,246.3l7.4,4.4v8.5l-7.4,4.4l-7.4-4.4v-8.5L202.5,246.3z"/>
		<path id="hex-291" d="M121,259.1l7.4,4.4v8.5l-7.4,4.4l-7.4-4.4v-8.5L121,259.1z"/>
		<path id="hex-292" d="M135.8,259.1l7.4,4.4v8.5l-7.4,4.4l-7.4-4.4v-8.5L135.8,259.1z"/>
		<path id="hex-293" d="M150.7,259.1l7.4,4.4v8.5l-7.4,4.4l-7.4-4.4v-8.5L150.7,259.1z"/>
		<path id="hex-294" d="M165.5,259.1l7.4,4.4v8.5l-7.4,4.4l-7.4-4.4v-8.5L165.5,259.1z"/>
		<path id="hex-295" d="M180.3,259.1l7.4,4.4v8.5l-7.4,4.4l-7.4-4.4v-8.5L180.3,259.1z"/>
		<path id="hex-296" d="M195.1,259.1l7.4,4.4v8.5l-7.4,4.4l-7.4-4.4v-8.5L195.1,259.1z"/>
		<path id="hex-297" d="M113.7,271.9l7.4,4.4v8.5l-7.4,4.4l-7.4-4.4v-8.5L113.7,271.9z"/>
		<path id="hex-298" d="M128.4,271.9l7.4,4.4v8.5l-7.4,4.4l-7.4-4.4v-8.5L128.4,271.9z"/>
		<path id="hex-299" d="M143.2,271.9l7.4,4.4v8.5l-7.4,4.4l-7.4-4.4v-8.5L143.2,271.9z"/>
		<path id="hex-300" d="M158.1,271.9l7.4,4.4v8.5l-7.4,4.4l-7.4-4.4v-8.5L158.1,271.9z"/>
		<path id="hex-301" d="M172.9,271.9l7.4,4.4v8.5l-7.4,4.4l-7.4-4.4v-8.5L172.9,271.9z"/>
		<path id="hex-302" d="M187.7,271.9l7.4,4.4v8.5l-7.4,4.4l-7.4-4.4v-8.5L187.7,271.9z"/>
		<path id="hex-303" d="M202.5,271.9l7.4,4.4v8.5l-7.4,4.4l-7.4-4.4v-8.5L202.5,271.9z"/>
		<path id="hex-304" d="M121,284.8l7.4,4.4v8.5l-7.4,4.4l-7.4-4.4v-8.5L121,284.8z"/>
		<path id="hex-305" d="M135.8,284.8l7.4,4.4v8.5l-7.4,4.4l-7.4-4.4v-8.5L135.8,284.8z"/>
		<path id="hex-306" d="M150.7,284.8l7.4,4.4v8.5l-7.4,4.4l-7.4-4.4v-8.5L150.7,284.8z"/>
		<path id="hex-307" d="M165.5,284.8l7.4,4.4v8.5l-7.4,4.4l-7.4-4.4v-8.5L165.5,284.8z"/>
		<path id="hex-308" d="M180.3,284.8l7.4,4.4v8.5l-7.4,4.4l-7.4-4.4v-8.5L180.3,284.8z"/>
		<path id="hex-309" d="M143.2,297.6l7.4,4.4v8.5l-7.4,4.4l-7.4-4.4V302L143.2,297.6z"/>
		<path id="hex-310" d="M158.1,297.6l7.4,4.4v8.5l-7.4,4.4l-7.4-4.4V302L158.1,297.6z"/>
		<path id="hex-311" d="M172.9,297.6l7.4,4.4v8.5l-7.4,4.4l-7.4-4.4V302L172.9,297.6z"/>
		<path id="hex-312" d="M150.7,310.4l7.4,4.4v8.5l-7.4,4.4l-7.4-4.4v-8.5L150.7,310.4z"/>
		<path id="hex-313" d="M165.5,310.4l7.4,4.4v8.5l-7.4,4.4l-7.4-4.4v-8.5L165.5,310.4z"/>
		<path id="hex-314" d="M158.1,323.2l7.4,4.4v8.5l-7.4,4.4l-7.4-4.4v-8.5L158.1,323.2z"/>
	</g>
	<path class="cart_outline" d="M202.5,245.7v-7.9l-7.4-4.4V225l-7.4-4.4l-7.4,4.4v8.4l-7.4,4.4l-7.4-4.4V225l-7.4-4.4l-7.4,4.4h-0.1l-7.4-4.4
		l-7.4,4.4v8.4l-7.4,4.4v8.5l-7.4,4.4v8.4l-7.4,4.4v8.5l-7.3,4.3v8.5l7.3,4.4l0,0v8.5l7.4,4.4l7.4-4.4l7.4,4.4v8.4l7.4,4.4l0.1-0.1
		v8.5l7.4,4.4l0,0v8.4l7.4,4.4l7.4-4.4v-8.4l7.4-4.4v-8.4l7.4-4.4v-8.4l7.4-4.4v-8.5l7.4-4.4l7.4,4.4l7.4-4.4v-8.5l-7.4-4.4v-8.3
		l7.4-4.4v-8.5l-7.4-4.4V245.7z"/>
</g>
<g id="OK" class="OK outer">
	<g id="OK_shape" class="OK shape">
		<path id="hex-315" d="M158.1,194.9l7.4,4.4v8.5l-7.4,4.4l-7.4-4.4v-8.5L158.1,194.9z"/>
		<path id="hex-316" d="M172.9,194.9l7.4,4.4v8.5l-7.4,4.4l-7.4-4.4v-8.5L172.9,194.9z"/>
		<path id="hex-317" d="M187.7,194.9l7.4,4.4v8.5l-7.4,4.4l-7.4-4.4v-8.5L187.7,194.9z"/>
		<path id="hex-318" d="M150.7,207.8l7.4,4.4v8.5l-7.4,4.4l-7.4-4.4v-8.5L150.7,207.8z"/>
		<path id="hex-319" d="M165.5,207.8l7.4,4.4v8.5l-7.4,4.4l-7.4-4.4v-8.5L165.5,207.8z"/>
		<path id="hex-320" d="M180.3,207.8l7.4,4.4v8.5l-7.4,4.4l-7.4-4.4v-8.5L180.3,207.8z"/>
		<path id="hex-321" d="M172.9,220.6l7.4,4.4v8.5l-7.4,4.4l-7.4-4.4V225L172.9,220.6z"/>
	</g>
	<polygon class="cart_outline" points="187.7,212.1 195.1,207.7 195.1,199.2 187.7,194.8 180.3,199.2 179.8,198.9 172.9,194.8 165.5,199.2 
		158.1,194.8 150.7,199.2 150.7,207.3 150.7,207.7 143.3,212.1 143.3,220.6 150.7,225 158.1,220.6 165.5,225 165.5,233.4 
		172.9,237.8 180.3,233.4 180.3,225 180.3,225 187.7,220.6 187.7,212.6 	"/>
</g>
<g id="MO" class="MO outer">
	<g id="MO_shape" class="MO shape">
		<path id="hex-322" d="M172.9,169.3l7.4,4.4v8.5l-7.4,4.4l-7.4-4.4v-8.5L172.9,169.3z"/>
		<path id="hex-323" d="M187.7,169.3l7.4,4.4v8.5l-7.4,4.4l-7.4-4.4v-8.5L187.7,169.3z"/>
		<path id="hex-324" d="M202.5,169.3l7.4,4.4v8.5l-7.4,4.4l-7.4-4.4v-8.5L202.5,169.3z"/>
		<path id="hex-325" d="M180.3,182.1l7.4,4.4v8.5l-7.4,4.4l-7.4-4.4v-8.5L180.3,182.1z"/>
		<path id="hex-326" d="M195.1,182.1l7.4,4.4v8.5l-7.4,4.4l-7.4-4.4v-8.5L195.1,182.1z"/>
		<path id="hex-327" d="M209.9,182.1l7.4,4.4v8.5l-7.4,4.4l-7.4-4.4v-8.5L209.9,182.1z"/>
		<path id="hex-328" d="M224.7,182.1l7.4,4.4v8.5l-7.4,4.4l-7.4-4.4v-8.5L224.7,182.1z"/>
		<path id="hex-329" d="M202.5,194.9l7.4,4.4v8.5l-7.4,4.4l-7.4-4.4v-8.5L202.5,194.9z"/>
		<path id="hex-330" d="M217.3,194.9l7.4,4.4v8.5l-7.4,4.4l-7.4-4.4v-8.5L217.3,194.9z"/>
		<path id="hex-331" d="M232.1,194.9l7.4,4.4v8.5l-7.4,4.4l-7.4-4.4v-8.5L232.1,194.9z"/>
	</g>
	<polygon class="cart_outline" points="209.9,207.8 217.3,212.2 224.7,207.8 232.1,212.2 239.5,207.8 239.5,199.3 232.1,194.9 232.1,194.9 
		232.1,186.5 224.7,182.1 217.3,186.5 209.9,182.1 209.9,173.7 202.5,169.3 195.1,173.7 187.7,169.3 180.3,173.7 172.9,169.3 
		165.5,173.7 165.5,182.2 172.9,186.6 172.9,186.6 172.9,195 180.3,199.4 187.7,195 195.1,199.4 195.1,207.8 202.5,212.2 
		209.8,207.9 	"/>
</g>
<g id="IL" class="IL outer">
	<g id="IL_shape" class="IL shape">
		<path id="hex-332" d="M209.9,105.1l7.4,4.4v8.5l-7.4,4.4l-7.4-4.4v-8.5L209.9,105.1z"/>
		<path id="hex-333" d="M202.5,118l7.4,4.4v8.5l-7.4,4.4l-7.4-4.4v-8.5L202.5,118z"/>
		<path id="hex-334" d="M217.3,118l7.4,4.4v8.5l-7.4,4.4l-7.4-4.4v-8.5L217.3,118z"/>
		<path id="hex-335" d="M232.1,118l7.4,4.4v8.5l-7.4,4.4l-7.4-4.4v-8.5L232.1,118z"/>
		<path id="hex-336" d="M195.1,130.8l7.4,4.4v8.5l-7.4,4.4l-7.4-4.4v-8.4L195.1,130.8z"/>
		<path id="hex-337" d="M209.9,130.8l7.4,4.4v8.5l-7.4,4.4l-7.4-4.4v-8.4L209.9,130.8z"/>
		<path id="hex-338" d="M224.7,130.8l7.4,4.4v8.5l-7.4,4.4l-7.4-4.4v-8.4L224.7,130.8z"/>
		<path id="hex-339" d="M239.5,130.8l7.4,4.4v8.5l-7.4,4.4l-7.4-4.4v-8.4L239.5,130.8z"/>
		<path id="hex-340" d="M202.5,143.6l7.4,4.4v8.5l-7.4,4.4l-7.4-4.4V148L202.5,143.6z"/>
		<path id="hex-341" d="M217.3,143.6l7.4,4.4v8.5l-7.4,4.4l-7.4-4.4V148L217.3,143.6z"/>
		<path id="hex-342" d="M232.1,143.6l7.4,4.4v8.5l-7.4,4.4l-7.4-4.4V148L232.1,143.6z"/>
		<path id="hex-343" d="M246.9,143.6l7.4,4.4v8.5l-7.4,4.4l-7.4-4.4V148L246.9,143.6z"/>
		<path id="hex-344" d="M209.9,156.4l7.4,4.4v8.5l-7.4,4.4l-7.4-4.4v-8.5L209.9,156.4z"/>
		<path id="hex-345" d="M224.7,156.4l7.4,4.4v8.5l-7.4,4.4l-7.4-4.4v-8.5L224.7,156.4z"/>
		<path id="hex-346" d="M239.5,156.4l7.4,4.4v8.5l-7.4,4.4l-7.4-4.4v-8.5L239.5,156.4z"/>
		<path id="hex-347" d="M217.3,169.3l7.4,4.4v8.5l-7.4,4.4l-7.4-4.4v-8.5L217.3,169.3z"/>
		<path id="hex-348" d="M232.1,169.3l7.4,4.4v8.5l-7.4,4.4l-7.4-4.4v-8.5L232.1,169.3z"/>
		<path id="hex-349" d="M246.9,169.3l7.4,4.4v8.5l-7.4,4.4l-7.4-4.4v-8.5L246.9,169.3z"/>
		<path id="hex-350" d="M239.5,182.1l7.4,4.4v8.5l-7.4,4.4l-7.4-4.4v-8.5L239.5,182.1z"/>
		<path id="hex-351" d="M254.4,182.1l7.4,4.4v8.5l-7.4,4.4L247,195v-8.5L254.4,182.1z"/>
	</g>
	<path class="cart_outline" d="M217.3,118.1v-8.5l-7.4-4.4l-7.4,4.4v8.5l-7.4,4.4v8.4l-7.4,4.5v8.4l7.4,4.4v8.4l7.4,4.4v8.4l6.8,4l0.6,0.4
		v8.5l7.4,4.4l7.4-4.4l7.4,4.4v8.4l7.4,4.4l7.4-4.4h0.1l7.4,4.4l7.4-4.4v-8.5l-7.4-4.4l-0.1,0.1v-8.5l-7.4-4.4V161l7.4-4.4v-8.5
		l-7.4-4.4v-8.4l-7.4-4.4v-8.4l-7.4-4.4l-7.4,4.4l-7.2-4.3L217.3,118.1z"/>
</g>
<g id="MI" class="MI outer">
	<g id="MI_shape" class="MI shape">
		<path id="hex-352" d="M246.9,41l7.4,4.4v8.5l-7.4,4.4l-7.4-4.4v-8.5L246.9,41z"/>
		<path id="hex-353" d="M239.5,53.8l7.4,4.4v8.5l-7.4,4.4l-7.4-4.4v-8.5L239.5,53.8z"/>
		<path id="hex-354" d="M254.4,53.8l7.4,4.4v8.5l-7.4,4.4l-7.4-4.4v-8.5L254.4,53.8z"/>
		<path id="hex-355" d="M269.2,53.8l7.4,4.4v8.5l-7.4,4.4l-7.4-4.4v-8.5L269.2,53.8z"/>
		<path id="hex-356" d="M284,53.8l7.4,4.4v8.5L284,71l-7.4-4.4v-8.5L284,53.8z"/>
		<path id="hex-357" d="M261.8,66.6l7.4,4.4v8.5l-7.4,4.4l-7.4-4.4V71L261.8,66.6z"/>
		<path id="hex-358" d="M276.6,66.6L284,71v8.5l-7.4,4.4l-7.4-4.4V71L276.6,66.6z"/>
		<path id="hex-359" d="M291.4,66.6l7.4,4.4v8.5l-7.4,4.4l-7.4-4.4V71L291.4,66.6z"/>
		<path id="hex-360" d="M254.4,79.5l7.4,4.4v8.5l-7.4,4.4l-7.4-4.4v-8.5L254.4,79.5z"/>
		<path id="hex-361" d="M269.2,79.5l7.4,4.4v8.5l-7.4,4.4l-7.4-4.4v-8.5L269.2,79.5z"/>
		<path id="hex-362" d="M284,79.5l7.4,4.4v8.5l-7.4,4.4l-7.4-4.4v-8.5L284,79.5z"/>
		<path id="hex-363" d="M261.8,92.3l7.4,4.4v8.5l-7.4,4.4l-7.4-4.4v-8.5L261.8,92.3z"/>
		<path id="hex-364" d="M276.6,92.3l7.4,4.4v8.5l-7.4,4.4l-7.4-4.4v-8.5L276.6,92.3z"/>
		<path id="hex-365" d="M254.4,105.1l7.4,4.4v8.5l-7.4,4.4L247,118v-8.5L254.4,105.1z"/>
		<path id="hex-366" d="M269.2,105.1l7.4,4.4v8.5l-7.4,4.4l-7.4-4.4v-8.5L269.2,105.1z"/>
		<path id="hex-367" d="M284,105.1l7.4,4.4v8.5l-7.4,4.4l-7.4-4.4v-8.5L284,105.1z"/>
	</g>
	<path class="cart_outline" d="M261.8,118l7.4,4.4l7.4-4.4l7.4,4.4l7.4-4.4v-8.5l-7.4-4.4v-8.3l7.4-4.4v-8.5l7.4-4.4V71l-7.4-4.4v-8.4
		l-7.4-4.4l-7.4,4.3v0.1l-7.4-4.4l-7.4,4.4l-0.4-0.2l-7-4.2l-0.1,0.1v-8.5l-7.4-4.4l-7.4,4.4v8.4l-7.4,4.4v8.5l7.4,4.4l7.4-4.4h0.1
		l7.4,4.4v8.4l-7.4,4.4v8.5l7.4,4.4v8.3l-7.4,4.4v8.5l7.4,4.4l7-4.2L261.8,118z"/>
</g>
<g id="WI" class="WI outer">
	<g id="WI_shape" class="WI shape">
		<path id="hex-368" d="M209.9,53.8l7.4,4.4v8.5l-7.4,4.4l-7.4-4.4v-8.5L209.9,53.8z"/>
		<path id="hex-369" d="M224.7,53.8l7.4,4.4v8.5l-7.4,4.4l-7.4-4.4v-8.5L224.7,53.8z"/>
		<path id="hex-370" d="M202.5,66.6l7.4,4.4v8.5l-7.4,4.4l-7.4-4.4V71L202.5,66.6z"/>
		<path id="hex-371" d="M217.3,66.6l7.4,4.4v8.5l-7.4,4.4l-7.4-4.4V71L217.3,66.6z"/>
		<path id="hex-372" d="M232.1,66.6l7.4,4.4v8.5l-7.4,4.4l-7.4-4.4V71L232.1,66.6z"/>
		<path id="hex-373" d="M209.9,79.5l7.4,4.4v8.5l-7.4,4.4l-7.4-4.4v-8.5L209.9,79.5z"/>
		<path id="hex-374" d="M224.7,79.5l7.4,4.4v8.5l-7.4,4.4l-7.4-4.4v-8.5L224.7,79.5z"/>
		<path id="hex-375" d="M202.5,92.3l7.4,4.4v8.5l-7.4,4.4l-7.4-4.4v-8.5L202.5,92.3z"/>
		<path id="hex-376" d="M217.3,92.3l7.4,4.4v8.5l-7.4,4.4l-7.4-4.4v-8.5L217.3,92.3z"/>
		<path id="hex-377" d="M224.7,105.1l7.4,4.4v8.5l-7.4,4.4l-7.4-4.4v-8.5L224.7,105.1z"/>
	</g>
	<polygon class="cart_outline" points="232.8,83.5 239.5,79.5 239.5,71 232.1,66.6 232.1,66.6 232.1,58.2 224.7,53.8 217.3,58.2 209.9,53.8 
		202.5,58.2 202.5,66.6 195.1,71 195.1,79.5 202.5,83.9 202.5,92.3 195.1,96.7 195.1,105.2 202.5,109.6 209.9,105.2 217.3,109.6 
		217.3,118 224.7,122.4 232.1,118 232.1,109.5 224.7,105.1 224.7,96.8 232.1,92.4 232.1,83.9 	"/>
</g>
<g id="KS" class="KS outer">
	<g id="KS_shape" class="KS shape">
		<path id="hex-378" d="M150.7,156.4l7.4,4.4v8.5l-7.4,4.4l-7.4-4.4v-8.5L150.7,156.4z"/>
		<path id="hex-379" d="M165.5,156.4l7.4,4.4v8.5l-7.4,4.4l-7.4-4.4v-8.5L165.5,156.4z"/>
		<path id="hex-380" d="M143.2,169.3l7.4,4.4v8.5l-7.4,4.4l-7.4-4.4v-8.5L143.2,169.3z"/>
		<path id="hex-381" d="M158.1,169.3l7.4,4.4v8.5l-7.4,4.4l-7.4-4.4v-8.5L158.1,169.3z"/>
		<path id="hex-382" d="M150.7,182.1l7.4,4.4v8.5l-7.4,4.4l-7.4-4.4v-8.5L150.7,182.1z"/>
		<path id="hex-383" d="M165.5,182.1l7.4,4.4v8.5l-7.4,4.4l-7.4-4.4v-8.5L165.5,182.1z"/>
	</g>
	<polygon class="cart_outline" points="143.3,169.2 143.3,160.7 150.7,156.3 158.1,160.7 165.5,156.3 172.9,160.7 172.9,169.2 165.5,173.6 
		165.5,182 172.9,186.4 172.9,194.9 165.5,199.3 158.1,194.9 150.7,199.3 143.3,194.9 143.3,186.6 143.2,186.5 135.8,182.1 
		135.8,173.6 143.2,169.2 	"/>
</g>
<g id="IA" class="IA outer">
	<g id="IA_shape" class="IA shape">
		<path id="hex-384" d="M165.5,130.8l7.4,4.4v8.5l-7.4,4.4l-7.4-4.4v-8.4L165.5,130.8z"/>
		<path id="hex-385" d="M180.3,130.8l7.4,4.4v8.5l-7.4,4.4l-7.4-4.4v-8.5L180.3,130.8z"/>
		<path id="hex-386" d="M172.9,143.6l7.4,4.4v8.5l-7.4,4.4l-7.4-4.4V148L172.9,143.6z"/>
		<path id="hex-387" d="M187.7,143.6l7.4,4.4v8.5l-7.4,4.4l-7.4-4.4V148L187.7,143.6z"/>
		<path id="hex-388" d="M180.3,156.4l7.4,4.4v8.5l-7.4,4.4l-7.4-4.4v-8.5L180.3,156.4z"/>
		<path id="hex-389" d="M195.1,156.4l7.4,4.4v8.5l-7.4,4.4l-7.4-4.4v-8.5L195.1,156.4z"/>
	</g>
	<polygon class="cart_outline" points="187.7,169.3 195.1,173.7 202.5,169.3 202.5,160.8 195.1,156.4 195.1,148 187.7,143.6 187.7,135.2 
		180.3,130.8 172.9,135.2 165.5,130.8 158.1,135.3 158.1,143.7 165.5,148.1 165.5,156.5 172.9,160.9 172.9,169.3 180.3,173.7 
		187.1,169.6 	"/>
</g>
<g id="MN" class="MN outer">
	<g id="MN_shape" class="MN shape">
		<path id="hex-390" d="M180.3,79.5l7.4,4.4v8.5l-7.4,4.4l-7.4-4.4v-8.5L180.3,79.5z"/>
		<path id="hex-391" d="M195.1,79.5l7.4,4.4v8.5l-7.4,4.4l-7.4-4.4v-8.5L195.1,79.5z"/>
		<path id="hex-392" d="M172.9,92.3l7.4,4.4v8.5l-7.4,4.4l-7.4-4.4v-8.5L172.9,92.3z"/>
		<path id="hex-393" d="M187.7,92.3l7.4,4.4v8.5l-7.4,4.4l-7.4-4.4v-8.5L187.7,92.3z"/>
		<path id="hex-394" d="M165.5,105.1l7.4,4.4v8.5l-7.4,4.4l-7.4-4.4v-8.5L165.5,105.1z"/>
		<path id="hex-395" d="M180.3,105.1l7.4,4.4v8.5l-7.4,4.4l-7.4-4.4v-8.5L180.3,105.1z"/>
		<path id="hex-396" d="M195.1,105.1l7.4,4.4v8.5l-7.4,4.4l-7.4-4.4v-8.5L195.1,105.1z"/>
		<path id="hex-397" d="M158.1,118l7.4,4.4v8.5l-7.4,4.4l-7.4-4.4v-8.5L158.1,118z"/>
		<path id="hex-398" d="M172.9,118l7.4,4.4v8.5l-7.4,4.4l-7.4-4.4v-8.5L172.9,118z"/>
		<path id="hex-399" d="M187.7,118l7.4,4.4v8.5l-7.4,4.4l-7.4-4.4v-8.5L187.7,118z"/>
	</g>
	<polygon class="cart_outline" points="196.3,121.7 202.5,118 202.5,109.5 195.1,105.1 195.1,105.1 195.1,96.8 195.1,96.8 202.5,92.4 
		202.5,83.9 195.1,79.5 187.7,83.9 180.3,79.5 172.9,83.9 172.9,92.3 165.5,96.7 165.5,105.1 158.1,109.5 158.1,118 150.7,122.4 
		150.7,130.9 158.1,135.3 165.5,130.9 172.9,135.3 180.3,130.9 187.7,135.3 195.1,130.9 195.1,122.4 	"/>
</g>
<g id="CO" class="CO outer">
	<g id="CO_shape" class="CO shape">
		<path id="hex-400" d="M113.7,143.6l7.4,4.4v8.5l-7.4,4.4l-7.4-4.4V148L113.7,143.6z"/>
		<path id="hex-401" d="M128.4,143.6l7.4,4.4v8.5l-7.4,4.4l-7.4-4.4V148L128.4,143.6z"/>
		<path id="hex-402" d="M121,156.4l7.4,4.4v8.5l-7.4,4.4l-7.4-4.4v-8.5L121,156.4z"/>
		<path id="hex-403" d="M135.8,156.4l7.4,4.4v8.5l-7.4,4.4l-7.4-4.4v-8.5L135.8,156.4z"/>
		<path id="hex-404" d="M128.4,169.3l7.4,4.4v8.5l-7.4,4.4l-7.4-4.4v-8.5L128.4,169.3z"/>
		<path id="hex-405" d="M121,182.1l7.4,4.4v8.5l-7.4,4.4l-7.4-4.4v-8.5L121,182.1z"/>
		<path id="hex-406" d="M135.8,182.1l7.4,4.4v8.5l-7.4,4.4l-7.4-4.4v-8.5L135.8,182.1z"/>
		<path id="hex-407" d="M128.4,194.9l7.4,4.4v8.5l-7.4,4.4l-7.4-4.4v-8.5L128.4,194.9z"/>
		<path id="hex-408" d="M143.2,194.9l7.4,4.4v8.5l-7.4,4.4l-7.4-4.4v-8.5L143.2,194.9z"/>
	</g>
	<polygon class="cart_outline" points="135.8,207.8 143.2,212.2 150.6,207.8 150.6,199.3 143.2,194.9 143.2,186.5 135.8,182.1 135.8,182.1 
		135.8,173.9 135.8,173.7 143.2,169.3 143.2,160.8 135.8,156.4 135.8,156.4 135.8,148 128.4,143.6 121.1,148 113.7,143.6 106.3,148 
		106.3,156.5 113.6,160.8 113.6,169.3 121,173.7 121,173.7 121,182.1 113.6,186.5 113.6,195 121,199.4 121,207.8 128.4,212.2 	"/>
</g>
<g id="NE" class="NE outer">
	<g id="NE_shape" class="NE shape">
		<path id="hex-412" d="M143.2,143.6l7.4,4.4v8.5l-7.4,4.4l-7.4-4.4V148L143.2,143.6z"/>
		<path id="hex-413" d="M158.1,143.6l7.4,4.4v8.5l-7.4,4.4l-7.4-4.4V148L158.1,143.6z"/>
		<path class="cd" id="NE_CD3" d="M121,130.8l7.4,4.4v8.5L121,148l-7.4-4.4v-8.4L121,130.8z"/>
		<path class="cd" id="NE_CD1" d="M135.8,130.8l7.4,4.4v8.5l-7.4,4.4l-7.4-4.4v-8.4L135.8,130.8z"/>
		<path class="cd" id="NE_CD2" d="M150.7,130.8l7.4,4.4v8.5l-7.4,4.3l-7.4-4.4v-8.4L150.7,130.8z"/>
	</g>
	
	<polygon class="cart_outline" points="128.4,135.2 121,130.8 113.6,135.2 113.6,143.6 121,148 128.3,143.7 128.4,143.7 135.8,148.1 
		135.8,156.5 143.2,160.9 150.6,156.5 150.7,156.5 158.1,160.9 165.5,156.5 165.5,148 158.1,143.6 158.1,135.2 150.7,130.8 
		143.3,135.2 143.2,135.2 135.8,130.8 128.4,135.3 	"/>
</g>
<g id="SD" class="SD outer">
	<g id="SD_shape" class="SD shape">
		<path id="hex-414" d="M135.8,105.1l7.4,4.4v8.5l-7.4,4.4l-7.4-4.4v-8.5L135.8,105.1z"/>
		<path id="hex-415" d="M128.4,118l7.4,4.4v8.5l-7.4,4.4l-7.4-4.4v-8.5L128.4,118z"/>
		<path id="hex-416" d="M143.2,118l7.4,4.4v8.5l-7.4,4.4l-7.4-4.4v-8.5L143.2,118z"/>
	</g>
	<polygon class="cart_outline" points="143.2,118 143.2,109.5 135.8,105.1 128.4,109.5 128.4,118 121,122.4 121,130.9 128.4,135.3 
		135.8,130.9 143.2,135.3 150.6,130.9 150.6,122.4 	"/>
</g>
<g id="ND" class="ND outer">
	<g id="ND_shape" class="ND shape">
		<path id="hex-417" d="M143.2,92.3l7.4,4.4v8.5l-7.4,4.4l-7.4-4.4v-8.5L143.2,92.3z"/>
		<path id="hex-418" d="M158.1,92.3l7.4,4.4v8.5l-7.4,4.4l-7.4-4.4v-8.5L158.1,92.3z"/>
		<path id="hex-419" d="M150.7,105.1l7.4,4.4v8.5l-7.4,4.4l-7.4-4.4v-8.5L150.7,105.1z"/>
	</g>
	<polygon class="cart_outline" points="150.6,96.7 158,92.3 165.4,96.7 165.4,105.2 158,109.6 158,118 150.6,122.4 143.2,118 143.2,109.7 
		143.1,109.6 135.7,105.2 135.7,96.7 143.1,92.3 150.5,96.7 	"/>
</g>
<g id="NM" class="NM outer">
	<g id="NM_shape" class="NM shape">
		<path id="hex-420" d="M135.9,207.7l7.4,4.4v8.5l-7.4,4.4l-7.4-4.4v-8.5L135.9,207.7z"/>
		<path id="hex-421" d="M128.5,220.5l7.4,4.4v8.5l-7.4,4.4l-7.4-4.4v-8.5L128.5,220.5z"/>
		<path id="hex-422" d="M121.1,233.3l7.4,4.4v8.5l-7.4,4.4l-7.4-4.4v-8.5L121.1,233.3z"/>
		<path id="hex-423" d="M113.8,246.2l7.4,4.4v8.5l-7.4,4.4l-7.4-4.4v-8.5L113.8,246.2z"/>
		<path id="hex-424" d="M106.3,259l7.4,4.4v8.5l-7.4,4.4l-7.4-4.4v-8.5L106.3,259z"/>
	</g>
	<polygon class="cart_outline" points="135.9,207.7 128.5,212.1 128.5,220.5 121.1,224.9 121.1,233.3 113.7,237.7 113.7,246.2 113.8,246.2 
		106.4,250.6 106.4,259.1 106.3,259 98.9,263.4 98.9,271.9 106.3,276.3 113.7,271.9 113.7,263.4 113.8,263.5 121.2,259.1 
		121.2,250.6 121.1,250.6 128.5,246.2 128.5,237.8 135.9,233.4 135.9,225 143.3,220.6 143.3,212.1 	"/>
</g>
<g id="UT" class="UT outer">
	<g id="UT_shape" class="UT shape">
		<path id="hex-425" d="M98.8,143.6l7.4,4.4v8.5l-7.4,4.4l-7.4-4.4V148L98.8,143.6z"/>
		<path id="hex-426" d="M106.2,156.4l7.4,4.4v8.5l-7.4,4.4l-7.4-4.4v-8.5L106.2,156.4z"/>
		<path id="hex-427" d="M98.8,169.3l7.4,4.4v8.5l-7.4,4.4l-7.4-4.4v-8.5L98.8,169.3z"/>
		<path id="hex-428" d="M113.7,169.3l7.4,4.4v8.5l-7.4,4.4l-7.4-4.4v-8.5L113.7,169.3z"/>
		<path id="hex-429" d="M106.2,182.1l7.4,4.4v8.5l-7.4,4.4l-7.4-4.4v-8.5L106.2,182.1z"/>
		<path id="hex-430" d="M113.7,194.9l7.4,4.4v8.5l-7.4,4.4l-7.4-4.4v-8.5L113.7,194.9z"/>
	</g>
	<polygon class="cart_outline" points="98.8,169.3 98.8,160.9 91.4,156.5 91.4,148 98.8,143.6 106.2,148 106.2,156.4 113.6,160.8 
		113.6,169.3 113.7,169.3 121.1,173.7 121.1,182.2 113.7,186.6 113.6,186.5 113.6,195 113.7,194.9 121.1,199.3 121.1,207.8 
		113.7,212.2 106.3,207.8 106.3,199.3 106.2,199.4 98.8,195 98.8,186.6 91.4,182.2 91.4,173.7 	"/>
</g>
<g id="WY" class="WY outer">
	<g id="WY_shape" class="WY shape">
		<path id="hex-431" d="M121,105.1l7.4,4.4v8.5l-7.4,4.4l-7.4-4.4v-8.5L121,105.1z"/>
		<path id="hex-432" d="M113.7,118l7.4,4.4v8.5l-7.4,4.4l-7.4-4.4v-8.5L113.7,118z"/>
		<path id="hex-433" d="M106.2,130.8l7.5,4.4v8.5l-7.4,4.4l-7.4-4.4v-8.5L106.2,130.8z"/>
	</g>
	<polygon class="cart_outline" points="128.4,109.5 121,105.1 113.6,109.5 113.6,118 113.7,118 106.3,122.4 106.3,130.9 106.2,130.8 
		98.9,135.2 98.9,143.7 106.3,148.1 113.7,143.7 113.7,135.3 121.1,130.9 121.1,122.4 121,122.4 128.4,118 	"/>
</g>
<g id="AZ" class="AZ outer">
	<g id="AZ_shape" class="AZ shape">
		<path id="hex-434" d="M91.4,207.8l7.4,4.4v8.5l-7.4,4.4l-7.4-4.4v-8.5L91.4,207.8z"/>
		<path id="hex-435" d="M106.2,207.8l7.4,4.4v8.5l-7.4,4.4l-7.4-4.4v-8.5L106.2,207.8z"/>
		<path id="hex-436" d="M121,207.8l7.4,4.4v8.5L121,225l-7.4-4.4v-8.5L121,207.8z"/>
		<path id="hex-437" d="M84,220.6l7.4,4.4v8.5l-7.4,4.4l-7.4-4.4V225L84,220.6z"/>
		<path id="hex-438" d="M98.8,220.6l7.4,4.4v8.5l-7.4,4.4l-7.4-4.4V225L98.8,220.6z"/>
		<path id="hex-439" d="M113.7,220.6l7.4,4.4v8.5l-7.4,4.4l-7.4-4.4V225L113.7,220.6z"/>
		<path id="hex-440" d="M91.4,233.4l7.4,4.4v8.5l-7.4,4.4l-7.4-4.4v-8.5L91.4,233.4z"/>
		<path id="hex-441" d="M106.2,233.4l7.5,4.4v8.5l-7.4,4.4l-7.4-4.4v-8.5L106.2,233.4z"/>
		<path id="hex-442" d="M84,246.3l7.4,4.4v8.5l-7.4,4.4l-7.4-4.4v-8.5L84,246.3z"/>
		<path id="hex-443" d="M98.8,246.3l7.4,4.4v8.5l-7.4,4.4l-7.4-4.4v-8.5L98.8,246.3z"/>
		<path id="hex-444" d="M91.4,259.1l7.4,4.4v8.5l-7.4,4.4L84,272v-8.5L91.4,259.1z"/>
	</g>
	<path class="cart_outline" d="M106.3,250.7l7.4-4.4v-8.4l7.4-4.4V225l0,0l7.3-4.3v-8.5l-7.4-4.4l-7.4,4.3v0.1l-7.4-4.4l-7.4,4.4l-7.4-4.4
		l-7.4,4.4v8.4l-7.4,4.4v8.5l7.4,4.4v8.4l-7.4,4.4v8.5l7.4,4.4v8.4l7.4,4.4l7.4-4.4v-8.4l7.4-4.4L106.3,250.7L106.3,250.7z"/>
</g>
<g id="NV" class="NV outer">
	<g id="NV_shape" class="NV shape">
		<path id="hex-445" d="M84,143.6l7.4,4.4v8.5l-7.4,4.4l-7.4-4.4V148L84,143.6z"/>
		<path id="hex-446" d="M91.4,156.4l7.4,4.4v8.5l-7.4,4.4l-7.4-4.4v-8.5L91.4,156.4z"/>
		<path id="hex-447" d="M84,169.3l7.4,4.4v8.5l-7.4,4.4l-7.4-4.4v-8.5L84,169.3z"/>
		<path id="hex-448" d="M91.4,182.1l7.4,4.4v8.5l-7.4,4.4L84,195v-8.5L91.4,182.1z"/>
		<path id="hex-449" d="M84,194.9l7.4,4.4v8.5l-7.4,4.4l-7.4-4.4v-8.5L84,194.9z"/>
		<path id="hex-450" d="M98.8,194.9l7.4,4.4v8.5l-7.4,4.4l-7.4-4.4v-8.5L98.8,194.9z"/>
	</g>
	<polygon class="cart_outline" points="84,169.3 76.6,173.7 76.6,182.2 84,186.6 84,194.9 76.6,199.3 76.6,207.8 84,212.2 91.4,207.8 
		98.8,212.2 106.2,207.8 106.2,199.3 98.8,194.9 98.8,186.5 91.4,182.1 91.4,173.7 91.4,173.7 98.8,169.3 98.8,160.8 91.4,156.4 
		91.4,148 84,143.6 76.6,148 76.6,156.5 84,160.9 	"/>
</g>
<g id="ID" class="ID outer">
	<g id="ID_shape" class="ID shape">
		<path id="hex-451" d="M113.7,92.3l7.4,4.4v8.5l-7.4,4.4l-7.4-4.4v-8.5L113.7,92.3z"/>
		<path id="hex-452" d="M106.2,105.1l7.4,4.4v8.5l-7.4,4.4l-7.4-4.4v-8.5L106.2,105.1z"/>
		<path id="hex-453" d="M98.8,118l7.4,4.4v8.5l-7.4,4.4l-7.4-4.4v-8.5L98.8,118z"/>
		<path id="hex-454" d="M91.4,130.8l7.4,4.4v8.5l-7.4,4.4l-7.4-4.4v-8.4L91.4,130.8z"/>
	</g>
	<polygon class="cart_outline" points="113.7,92.3 106.3,96.7 106.3,105.2 106.2,105.1 98.8,109.5 98.8,118 91.4,122.4 91.4,130.8 84,135.3 
		84,143.7 91.4,148.1 98.8,143.7 98.8,135.3 106.2,130.9 106.2,122.4 113.6,118 113.6,109.5 113.7,109.6 121.1,105.2 121.1,96.7 	
		"/>
</g>
<g id="MT" class="MT outer">
	<g id="MT_shape" class="MT shape">
		<path id="hex-455" d="M121,79.5l7.4,4.4v8.5l-7.4,4.4l-7.4-4.4v-8.5L121,79.5z"/>
		<path id="hex-456" d="M135.8,79.5l7.4,4.4v8.5l-7.4,4.4l-7.4-4.4v-8.5L135.8,79.5z"/>
		<path id="hex-457" d="M128.4,92.3l7.4,4.4v8.5l-7.4,4.4l-7.4-4.4v-8.5L128.4,92.3z"/>
	</g>
	<polygon class="cart_outline" points="128.4,83.9 121,79.5 113.6,83.9 113.6,92.4 121,96.8 121,105.2 128.4,109.6 135.8,105.2 135.8,96.8 
		143.2,92.4 143.2,83.9 135.8,79.5 	"/>
</g>
<g id="WA" class="WA outer">
	<g id="WA_shape" class="WA shape">
		<path id="hex-458" d="M61.8,79.5l7.4,4.4v8.5l-7.4,4.4l-7.4-4.4v-8.5L61.8,79.5z"/>
		<path id="hex-459" d="M76.6,79.5l7.4,4.4v8.5l-7.4,4.4l-7.4-4.4v-8.5L76.6,79.5z"/>
		<path id="hex-460" d="M91.4,79.5l7.4,4.4v8.5l-7.4,4.4L84,92.3v-8.5L91.4,79.5z"/>
		<path id="hex-461" d="M106.2,79.5l7.5,4.4v8.5l-7.4,4.4l-7.4-4.4v-8.5L106.2,79.5z"/>
		<path id="hex-462" d="M54.3,92.3l7.4,4.4v8.5l-7.4,4.4l-7.4-4.4v-8.5L54.3,92.3z"/>
		<path id="hex-463" d="M69.2,92.3l7.4,4.4v8.5l-7.4,4.4l-7.4-4.4v-8.5L69.2,92.3z"/>
		<path id="hex-464" d="M84,92.3l7.4,4.4v8.5l-7.4,4.4l-7.4-4.4v-8.5L84,92.3z"/>
		<path id="hex-465" d="M98.8,92.3l7.4,4.4v8.5l-7.4,4.4l-7.4-4.4v-8.5L98.8,92.3z"/>
		<path id="hex-466" d="M46.9,105.1l7.4,4.4v8.5l-7.4,4.4l-7.4-4.4v-8.5L46.9,105.1z"/>
		<path id="hex-467" d="M61.8,105.1l7.4,4.4v8.5l-7.4,4.4l-7.4-4.4v-8.5L61.8,105.1z"/>
		<path id="hex-468" d="M76.6,105.1l7.4,4.4v8.5l-7.4,4.4l-7.4-4.4v-8.5L76.6,105.1z"/>
		<path id="hex-469" d="M91.4,105.1l7.4,4.4v8.5l-7.4,4.4L84,118v-8.5L91.4,105.1z"/>
	</g>
	<path class="cart_outline" d="M98.8,83.9l-7.4-4.4L84,83.8v0.1l-7.4-4.4l-7.4,4.4l-7.4-4.4l-7.4,4.4v8.5l-0.1-0.1l-7.4,4.4v8.4l-7.4,4.4v8.5
		l7.4,4.4l7.4-4.4h0.1l7.4,4.4l7.4-4.4l7.4,4.4L84,118l7.4,4.4l7.4-4.4v-8.4l7.4-4.4v-8.5l0.1,0.1l7.4-4.4v-8.5l-7.5-4.4L98.8,83.9
		L98.8,83.9z"/>
</g>
<g id="OR" class="OR outer">
	<g id="OR_shape" class="OR shape">
		<path id="hex-470" d="M39.5,118l7.4,4.4v8.5l-7.4,4.4l-7.4-4.4v-8.5L39.5,118z"/>
		<path id="hex-471" d="M54.3,118l7.4,4.4v8.5l-7.4,4.4l-7.4-4.4v-8.5L54.3,118z"/>
		<path id="hex-472" d="M69.2,118l7.4,4.4v8.5l-7.4,4.4l-7.4-4.4v-8.5L69.2,118z"/>
		<path id="hex-473" d="M84,118l7.4,4.4v8.5l-7.4,4.4l-7.4-4.4v-8.5L84,118z"/>
		<path id="hex-474" d="M46.9,130.8l7.4,4.4v8.5l-7.4,4.4l-7.4-4.4v-8.5L46.9,130.8z"/>
		<path id="hex-475" d="M61.8,130.8l7.4,4.4v8.5l-7.4,4.4l-7.4-4.4v-8.5L61.8,130.8z"/>
		<path id="hex-476" d="M76.6,130.8l7.4,4.4v8.5l-7.4,4.4l-7.4-4.4v-8.5L76.6,130.8z"/>
	</g>
	<polygon class="cart_outline" points="61.8,122.4 69.2,118 76.6,122.4 76.6,122.4 84,118 91.4,122.4 91.4,130.9 84,135.3 84,143.7 
		76.6,148.1 69.2,143.7 61.8,148.1 54.4,143.7 54.3,143.7 46.9,148.1 39.5,143.7 39.5,135.3 32.1,130.9 32.1,122.4 39.5,118 
		46.9,122.4 46.9,122.4 54.3,118 61.7,122.4 	"/>
</g>
<g id="CA" class="CA outer">
	<g id="CA_shape" class="CA shape">
		<path id="hex-477" d="M32.1,130.8l7.4,4.4v8.5l-7.4,4.4l-7.4-4.4v-8.5L32.1,130.8z"/>
		<path id="hex-478" d="M24.7,143.6l7.4,4.4v8.5l-7.4,4.4l-7.4-4.4V148L24.7,143.6z"/>
		<path id="hex-479" d="M39.5,143.6l7.4,4.4v8.5l-7.4,4.4l-7.4-4.4V148L39.5,143.6z"/>
		<path id="hex-480" d="M54.3,143.6l7.4,4.4v8.5l-7.4,4.4l-7.4-4.4V148L54.3,143.6z"/>
		<path id="hex-481" d="M69.2,143.6l7.4,4.4v8.5l-7.4,4.4l-7.4-4.4V148L69.2,143.6z"/>
		<path id="hex-482" d="M17.3,156.4l7.4,4.4v8.5l-7.4,4.4l-7.4-4.4v-8.5L17.3,156.4z"/>
		<path id="hex-483" d="M32.1,156.4l7.4,4.4v8.5l-7.4,4.4l-7.4-4.4v-8.5L32.1,156.4z"/>
		<path id="hex-484" d="M46.9,156.4l7.4,4.4v8.5l-7.4,4.4l-7.4-4.4v-8.5L46.9,156.4z"/>
		<path id="hex-485" d="M61.8,156.4l7.4,4.4v8.5l-7.4,4.4l-7.4-4.4v-8.5L61.8,156.4z"/>
		<path id="hex-486" d="M76.6,156.4l7.4,4.4v8.5l-7.4,4.4l-7.4-4.4v-8.5L76.6,156.4z"/>
		<path id="hex-487" d="M9.9,169.3l7.4,4.4v8.5l-7.4,4.4l-7.4-4.4v-8.5L9.9,169.3z"/>
		<path id="hex-488" d="M24.7,169.3l7.4,4.4v8.5l-7.4,4.4l-7.4-4.4v-8.5L24.7,169.3z"/>
		<path id="hex-489" d="M39.5,169.3l7.4,4.4v8.5l-7.4,4.4l-7.4-4.4v-8.5L39.5,169.3z"/>
		<path id="hex-490" d="M54.3,169.3l7.4,4.4v8.5l-7.4,4.4l-7.4-4.4v-8.5L54.3,169.3z"/>
		<path id="hex-491" d="M69.2,169.3l7.4,4.4v8.5l-7.4,4.4l-7.4-4.4v-8.5L69.2,169.3z"/>
		<path id="hex-492" d="M17.3,182.1l7.4,4.4v8.5l-7.4,4.4L9.9,195v-8.5L17.3,182.1z"/>
		<path id="hex-493" d="M32.1,182.1l7.4,4.4v8.5l-7.4,4.4l-7.4-4.4v-8.5L32.1,182.1z"/>
		<path id="hex-494" d="M46.9,182.1l7.4,4.4v8.5l-7.4,4.4l-7.4-4.4v-8.5L46.9,182.1z"/>
		<path id="hex-495" d="M61.8,182.1l7.4,4.4v8.5l-7.4,4.4l-7.4-4.4v-8.5L61.8,182.1z"/>
		<path id="hex-496" d="M76.6,182.1l7.4,4.4v8.5l-7.4,4.4l-7.4-4.4v-8.5L76.6,182.1z"/>
		<path id="hex-497" d="M9.9,194.9l7.4,4.4v8.5l-7.4,4.4l-7.4-4.4v-8.5L9.9,194.9z"/>
		<path id="hex-498" d="M24.7,194.9l7.4,4.4v8.5l-7.4,4.4l-7.4-4.4v-8.5L24.7,194.9z"/>
		<path id="hex-499" d="M39.5,194.9l7.4,4.4v8.5l-7.4,4.4l-7.4-4.4v-8.5L39.5,194.9z"/>
		<path id="hex-500" d="M54.3,194.9l7.4,4.4v8.5l-7.4,4.4l-7.4-4.4v-8.5L54.3,194.9z"/>
		<path id="hex-501" d="M69.2,194.9l7.4,4.4v8.5l-7.4,4.4l-7.4-4.4v-8.5L69.2,194.9z"/>
		<path id="hex-502" d="M17.3,207.8l7.4,4.4v8.5l-7.4,4.4l-7.4-4.4v-8.5L17.3,207.8z"/>
		<path id="hex-503" d="M32.1,207.8l7.4,4.4v8.5l-7.4,4.4l-7.4-4.4v-8.5L32.1,207.8z"/>
		<path id="hex-504" d="M46.9,207.8l7.4,4.4v8.5l-7.4,4.4l-7.4-4.4v-8.5L46.9,207.8z"/>
		<path id="hex-505" d="M61.8,207.8l7.4,4.4v8.5l-7.4,4.4l-7.4-4.4v-8.5L61.8,207.8z"/>
		<path id="hex-506" d="M76.6,207.8l7.4,4.4v8.5l-7.4,4.4l-7.4-4.4v-8.5L76.6,207.8z"/>
		<path id="hex-507" d="M9.9,220.6l7.4,4.4v8.5l-7.4,4.4l-7.4-4.4V225L9.9,220.6z"/>
		<path id="hex-508" d="M24.7,220.6l7.4,4.4v8.5l-7.4,4.4l-7.4-4.4V225L24.7,220.6z"/>
		<path id="hex-509" d="M39.5,220.6l7.4,4.4v8.5l-7.4,4.4l-7.4-4.4V225L39.5,220.6z"/>
		<path id="hex-510" d="M54.3,220.6l7.4,4.4v8.5l-7.4,4.4l-7.4-4.4V225L54.3,220.6z"/>
		<path id="hex-511" d="M69.2,220.6l7.4,4.4v8.5l-7.4,4.4l-7.4-4.4V225L69.2,220.6z"/>
		<path id="hex-512" d="M17.3,233.4l7.4,4.4v8.5l-7.4,4.4l-7.4-4.4v-8.5L17.3,233.4z"/>
		<path id="hex-513" d="M32.1,233.4l7.4,4.4v8.5l-7.4,4.4l-7.4-4.4v-8.5L32.1,233.4z"/>
		<path id="hex-514" d="M46.9,233.4l7.4,4.4v8.5l-7.4,4.4l-7.4-4.4v-8.5L46.9,233.4z"/>
		<path id="hex-515" d="M61.8,233.4l7.4,4.4v8.5l-7.4,4.4l-7.4-4.4v-8.5L61.8,233.4z"/>
		<path id="hex-516" d="M76.6,233.4l7.4,4.4v8.5l-7.4,4.4l-7.4-4.4v-8.5L76.6,233.4z"/>
		<path id="hex-517" d="M24.7,246.3l7.4,4.4v8.5l-7.4,4.4l-7.4-4.4v-8.5L24.7,246.3z"/>
		<path id="hex-518" d="M39.5,246.3l7.4,4.4v8.5l-7.4,4.4l-7.4-4.4v-8.5L39.5,246.3z"/>
		<path id="hex-519" d="M54.3,246.3l7.4,4.4v8.5l-7.4,4.4l-7.4-4.4v-8.5L54.3,246.3z"/>
		<path id="hex-520" d="M69.2,246.3l7.4,4.4v8.5l-7.4,4.4l-7.4-4.4v-8.5L69.2,246.3z"/>
		<path id="hex-521" d="M32.1,259.1l7.4,4.4v8.5l-7.4,4.4l-7.4-4.4v-8.5L32.1,259.1z"/>
		<path id="hex-522" d="M46.9,259.1l7.4,4.4v8.5l-7.4,4.4l-7.4-4.4v-8.5L46.9,259.1z"/>
		<path id="hex-523" d="M61.8,259.1l7.4,4.4v8.5l-7.4,4.4l-7.4-4.4v-8.5L61.8,259.1z"/>
		<path id="hex-524" d="M76.6,259.1l7.4,4.4v8.5l-7.4,4.4l-7.4-4.4v-8.5L76.6,259.1z"/>
		<path id="hex-525" d="M39.5,271.9l7.4,4.4v8.5l-7.4,4.4l-7.4-4.4v-8.5L39.5,271.9z"/>
		<path id="hex-526" d="M54.3,271.9l7.4,4.4v8.5l-7.4,4.4l-7.4-4.4v-8.5L54.3,271.9z"/>
		<path id="hex-527" d="M69.2,271.9l7.4,4.4v8.5l-7.4,4.4l-7.4-4.4v-8.5L69.2,271.9z"/>
		<path id="hex-528" d="M84,271.9l7.4,4.4v8.5l-7.4,4.4l-7.4-4.4v-8.5L84,271.9z"/>
		<path id="hex-529" d="M46.9,284.8l7.4,4.4v8.5l-7.4,4.4l-7.4-4.4v-8.5L46.9,284.8z"/>
		<path id="hex-530" d="M61.8,284.8l7.4,4.4v8.5l-7.4,4.4l-7.4-4.4v-8.5L61.8,284.8z"/>
		<path id="hex-531" d="M76.6,284.8l7.4,4.4v8.5l-7.4,4.4l-7.4-4.4v-8.5L76.6,284.8z"/>
	</g>
	<path class="cart_outline" d="M61.6,148l-7.4-4.4l-7.4,4.4l-7.4-4.4v-8.4l-7.4-4.4l-7.4,4.4v8.4l-7.4,4.4v8.4l-7.4,4.4v8.5l-7.4,4.4v8.5
		l7.4,4.4v8.3l-7.4,4.4v8.5l7.4,4.4v8.4L2.4,225v8.5l7.4,4.4v8.4l7.4,4.4v8.5l7.4,4.4v8.4l7.4,4.4v8.4l7.4,4.4v8.5l7.4,4.4l7.4-4.4
		h0.1l7.4,4.4l7.4-4.4l7.4,4.4l7.4-4.4v-8.5l7.4-4.4v-8.5l-7.4-4.4v-8.4l-7.4-4.4v-8.4l7.4-4.4v-8.5l-7.4-4.4V225l7.4-4.4v-8.5
		l-7.4-4.4v-8.4l7.4-4.4v-8.5l-7.4-4.4v-8.4l7.4-4.4v-8.5l-7.4-4.4V148l-7.4-4.4l-7.4,4.4H61.6z"/>
</g>
<g id="AK" class="AK outer">
	<g id="AK_shape" class="AK shape">
		<path id="hex-532" d="M99.1,323.5l7.4,4.4v8.5l-7.4,4.4l-7.4-4.4v-8.5L99.1,323.5z"/>
		<path id="hex-533" d="M91.7,336.3l7.4,4.4v8.5l-7.4,4.4l-7.4-4.4v-8.5L91.7,336.3z"/>
		<path id="hex-534" d="M106.5,336.3l7.4,4.4v8.5l-7.4,4.4l-7.4-4.4v-8.5L106.5,336.3z"/>
	</g>
</g>
<g id="HI" class="HI outer">
	<g id="HI_shape" class="HI shape">
		<path id="hex-535" d="M24.7,336.1l7.4,4.4v8.5l-7.4,4.4l-7.4-4.4v-8.5L24.7,336.1z"/>
		<path id="hex-536" d="M46.9,348.9l7.4,4.4v8.5l-7.4,4.4l-7.4-4.4v-8.5L46.9,348.9z"/>
		<path id="hex-537" d="M69.2,361.7l7.4,4.4v8.5l-7.4,4.4l-7.4-4.4v-8.5L69.2,361.7z"/>
		<path id="hex-538" d="M61.8,374.6l7.4,4.4v8.5l-7.4,4.4l-7.4-4.4V379L61.8,374.6z"/>
	</g>
</g>
<g id="CA_txt" class="CA txt">
	<path class="st2" d="M53.6,222.7h-17c-2.2,0-4-1.8-4-4v-8c0-2.2,1.8-4,4-4h17c2.2,0,4,1.8,4,4v8C57.6,220.9,55.8,222.7,53.6,222.7z
		"/>
	<g>
		<path d="M44.1,210.7l-0.4,1c-0.4-0.3-1-0.4-1.8-0.4s-1.4,0.3-1.8,1s-0.7,1.5-0.7,2.5s0.2,1.8,0.7,2.4s1.1,0.9,1.8,0.9
			c0.8,0,1.4-0.3,1.9-0.9l0.6,0.9c-0.7,0.7-1.6,1-2.6,1c-1.1,0-2-0.4-2.6-1.2s-1-1.9-1-3.2s0.3-2.3,1-3.2s1.6-1.3,2.7-1.3
			C42.9,210.2,43.6,210.4,44.1,210.7z"/>
		<path d="M50.7,219l-0.6-1.8h-3.2l-0.6,1.8H45l3.5-8.7h0.3L52,219H50.7z M48.5,212.5l-1.3,3.8h2.5L48.5,212.5z"/>
	</g>
</g>
<g id="NV_txt" class="NV txt">
	<path class="st2" d="M99.8,205.8h-17c-2.2,0-4-1.8-4-4v-8c0-2.2,1.8-4,4-4h17c2.2,0,4,1.8,4,4v8C103.8,204,102,205.8,99.8,205.8z"
		/>
	<g>
		<path d="M90,202.1l-4.4-6.3v6.2h-1.1v-8.6H85l4.3,5.9v-5.9h1.1v8.7L90,202.1L90,202.1z"/>
		<path d="M95.1,202.1h-0.6l-3.2-8.7h1.3l2.2,6.3l2.1-6.3h1.3L95.1,202.1z"/>
	</g>
</g>
<g id="CO_txt" class="CO txt">
	<path class="st2" d="M140.8,202.3h-17c-2.2,0-4-1.8-4-4v-8c0-2.2,1.8-4,4-4h17c2.2,0,4,1.8,4,4v8
		C144.8,200.5,143,202.3,140.8,202.3z"/>
	<g>
		<path d="M131,190.3l-0.4,1c-0.4-0.3-1-0.4-1.8-0.4s-1.4,0.3-1.8,1s-0.7,1.5-0.7,2.5s0.2,1.8,0.7,2.4s1.1,0.9,1.8,0.9
			c0.8,0,1.4-0.3,1.9-0.9l0.6,0.9c-0.7,0.7-1.6,1-2.6,1c-1.1,0-2-0.4-2.6-1.2s-1-1.9-1-3.2s0.3-2.3,1-3.2s1.6-1.3,2.7-1.3
			C129.7,189.9,130.5,190,131,190.3z"/>
		<path d="M132.3,194.2c0-1.2,0.3-2.3,0.9-3.1s1.5-1.3,2.5-1.3c1.2,0,2.1,0.4,2.7,1.2s1,1.8,1,3.2s-0.3,2.5-1,3.3s-1.5,1.2-2.7,1.2
			c-1.1,0-1.9-0.4-2.5-1.3S132.3,195.6,132.3,194.2z M133.5,194.2c0,1,0.2,1.8,0.6,2.5s0.9,1,1.6,1c0.8,0,1.4-0.3,1.8-0.9
			s0.6-1.5,0.6-2.5c0-2.2-0.8-3.3-2.5-3.3c-0.7,0-1.3,0.3-1.7,0.9S133.5,193.2,133.5,194.2z"/>
	</g>
</g>
<g id="UT_txt" class="UT txt">
	<path class="st2" d="M114.9,185.8h-17c-2.2,0-4-1.8-4-4v-8c0-2.2,1.8-4,4-4h17c2.2,0,4,1.8,4,4v8
		C118.9,184,117.1,185.8,114.9,185.8z"/>
	<g>
		<path d="M99.5,173.4h1.2v5.9c0,0.5,0.2,1,0.5,1.3s0.8,0.5,1.3,0.5c0.6,0,1-0.2,1.4-0.5s0.5-0.8,0.5-1.3v-5.8h1.2v6
			c0,0.9-0.3,1.5-0.8,2s-1.3,0.7-2.2,0.7c-1,0-1.7-0.2-2.2-0.7s-0.8-1.2-0.8-2.1L99.5,173.4L99.5,173.4z"/>
		<path d="M110.4,174.5v7.5h-1.2v-7.5h-2.7v-1.1h6.8v1.1H110.4z"/>
	</g>
</g>
<g id="AZ_txt" class="AZ txt">
	<path class="st2" d="M111,233.1H94c-2.2,0-4-1.8-4-4v-8c0-2.2,1.8-4,4-4h17c2.2,0,4,1.8,4,4v8C115,231.4,113.2,233.1,111,233.1z"/>
	<g>
		<path d="M101.7,229.5l-0.6-1.8h-3.2l-0.6,1.8H96l3.5-8.7h0.3l3.2,8.7H101.7z M99.5,223l-1.3,3.8h2.5L99.5,223z"/>
		<path d="M103.6,229.5v-0.3l3.7-7.2h-3.6v-1.1h5.2v0.3l-3.7,7.2h3.8v1.1H103.6z"/>
	</g>
</g>
<g id="OR_txt" class="OR txt">
	<path class="st2" d="M70.3,141.1h-17c-2.2,0-4-1.8-4-4v-8c0-2.2,1.8-4,4-4h17c2.2,0,4,1.8,4,4v8C74.3,139.2,72.5,141.1,70.3,141.1z
		"/>
	<g>
		<path d="M54.5,133c0-1.2,0.3-2.3,0.9-3.1s1.5-1.3,2.5-1.3c1.2,0,2.1,0.4,2.7,1.2s1,1.8,1,3.2s-0.3,2.5-1,3.3s-1.5,1.2-2.7,1.2
			c-1.1,0-1.9-0.4-2.5-1.3S54.5,134.3,54.5,133z M55.7,133c0,1,0.2,1.8,0.6,2.5s0.9,1,1.6,1c0.8,0,1.4-0.3,1.8-0.9s0.6-1.5,0.6-2.5
			c0-2.2-0.8-3.3-2.5-3.3c-0.7,0-1.3,0.3-1.7,0.9S55.7,132,55.7,133z"/>
		<path d="M67.8,137.3l-2.3-3.7c-0.3,0-0.7,0-1.2-0.1v3.7h-1.2v-8.6c0,0,0.3,0,0.9,0s1,0,1.2,0c2.1,0,3.1,0.8,3.1,2.5
			c0,0.5-0.2,1-0.5,1.5s-0.7,0.7-1.2,0.8l2.5,3.9L67.8,137.3L67.8,137.3z M64.2,129.8v2.8c0.3,0,0.6,0.1,0.8,0.1
			c0.7,0,1.2-0.1,1.5-0.3s0.5-0.6,0.5-1.2c0-0.5-0.2-0.8-0.5-1s-0.9-0.3-1.6-0.3C64.8,129.8,64.6,129.8,64.2,129.8z"/>
	</g>
</g>
<g id="WA_txt" class="WA txt">
	<path class="st2" d="M85.1,108.9h-17c-2.2,0-4-1.8-4-4v-8c0-2.2,1.8-4,4-4h17c2.2,0,4,1.8,4,4v8C89.1,107.1,87.3,108.9,85.1,108.9z
		"/>
	<g>
		<path d="M75.9,105.4h-0.4l-2-5.9l-1.9,5.9h-0.4l-2.7-8.7h1.2l1.7,6l1.9-6h0.4l1.9,6l1.8-6h1.2L75.9,105.4z"/>
		<path d="M83.4,105.2l-0.6-1.8h-3.2l-0.6,1.8h-1.3l3.5-8.7h0.3l3.2,8.7H83.4z M81.2,98.8l-1.3,3.8h2.5L81.2,98.8z"/>
	</g>
</g>
<g id="ID_txt" class="ID txt">
	<path class="st2" d="M114.2,119.2h-17c-2.2,0-4-1.8-4-4v-8c0-2.2,1.8-4,4-4h17c2.2,0,4,1.8,4,4v8
		C118.2,117.4,116.4,119.2,114.2,119.2z"/>
	<g>
		<path d="M102.1,115.5v-8.6h1.2v8.6H102.1z"/>
		<path d="M107,115.5h-1.7v-8.6c1.1,0,1.8-0.1,2.1-0.1c1.2,0,2.1,0.4,2.8,1.1s1,1.7,1,2.9C111.2,113.9,109.8,115.5,107,115.5z
			 M106.4,107.9v6.4c0.3,0,0.6,0.1,1,0.1c0.8,0,1.5-0.3,1.9-0.9s0.7-1.5,0.7-2.6c0-2-0.9-3-2.7-3
			C107.2,107.9,106.9,107.9,106.4,107.9z"/>
	</g>
</g>
<g id="WY_txt" class="WY txt">
	<path class="st2" d="M116.7,141.1h-17c-2.2,0-4-1.8-4-4v-8c0-2.2,1.8-4,4-4h17c2.2,0,4,1.8,4,4v8
		C120.7,139.2,118.9,141.1,116.7,141.1z"/>
	<g>
		<path d="M107.1,137.4h-0.4l-2-5.9l-1.9,5.9h-0.4l-2.7-8.7h1.2l1.7,6l1.9-6h0.4l1.9,6l1.8-6h1.2L107.1,137.4z"/>
		<path d="M113.9,133.4v3.8h-1.2v-3.8l-2.8-4.7h1.2l2.1,3.8l2.1-3.8h1.2L113.9,133.4z"/>
	</g>
</g>
<g id="MT_txt" class="MT txt">
	<path class="st2" d="M136.9,97.1h-17c-2.2,0-4-1.8-4-4v-8c0-2.2,1.8-4,4-4h17c2.2,0,4,1.8,4,4v8C140.9,95.3,139.1,97.1,136.9,97.1z
		"/>
	<g>
		<path d="M128,93.3l-1-5.5l-1.9,5.6h-0.3l-1.9-5.6l-1,5.5h-1.1l1.6-8.6h0.5l2,6.3l1.9-6.3h0.5l1.7,8.6H128z"/>
		<path d="M133.2,85.8v7.5H132v-7.5h-2.7v-1.1h6.8v1.1H133.2z"/>
	</g>
</g>
<g id="ND_txt" class="ND txt">
	<path class="st2" d="M159,113.4h-17c-2.2,0-4-1.8-4-4v-8c0-2.2,1.8-4,4-4h17c2.2,0,4,1.8,4,4v8C163,111.6,161.2,113.4,159,113.4z"
		/>
	<g>
		<path d="M149.3,109.7l-4.4-6.3v6.2h-1.1V101h0.5l4.3,5.9V101h1.1v8.7H149.3z"/>
		<path d="M153.1,109.6h-1.7V101c1.1,0,1.8-0.1,2.1-0.1c1.2,0,2.1,0.4,2.8,1.1s1,1.7,1,2.9C157.4,108.1,156,109.6,153.1,109.6z
			 M152.5,102.1v6.4c0.3,0,0.6,0.1,1,0.1c0.8,0,1.5-0.3,1.9-0.9s0.7-1.5,0.7-2.6c0-2-0.9-3-2.7-3C153.3,102,153,102.1,152.5,102.1z"
			/>
	</g>
</g>
<g id="SD_txt" class="SD txt">
	<path class="st2" d="M144.2,130.4h-17c-2.2,0-4-1.8-4-4v-8c0-2.2,1.8-4,4-4h17c2.2,0,4,1.8,4,4v8
		C148.2,128.6,146.4,130.4,144.2,130.4z"/>
	<g>
		<path d="M129.6,126.3l0.4-1.1c0.2,0.2,0.5,0.3,0.8,0.4s0.6,0.2,0.9,0.2c0.5,0,0.8-0.1,1.1-0.4s0.4-0.6,0.4-1
			c0-0.3-0.1-0.6-0.2-0.8s-0.5-0.5-1.2-0.8l-0.7-0.3c-0.6-0.3-1-0.6-1.2-1s-0.3-0.8-0.3-1.4s0.2-1.2,0.7-1.6s1-0.6,1.7-0.6
			c0.9,0,1.6,0.2,2,0.5l-0.3,1c-0.2-0.1-0.4-0.2-0.7-0.3s-0.6-0.2-0.9-0.2c-0.4,0-0.7,0.1-0.9,0.3s-0.3,0.5-0.3,0.9
			c0,0.2,0,0.4,0.1,0.6s0.2,0.3,0.3,0.5s0.4,0.3,0.9,0.5l0.7,0.3c0.6,0.3,1,0.6,1.2,1s0.4,0.9,0.4,1.5s-0.3,1.2-0.8,1.6
			s-1.2,0.7-2.1,0.7C130.8,126.8,130.2,126.7,129.6,126.3z"/>
		<path d="M137.5,126.7h-1.7v-8.6c1.1,0,1.8-0.1,2.1-0.1c1.2,0,2.1,0.4,2.8,1.1s1,1.7,1,2.9C141.8,125.1,140.4,126.7,137.5,126.7z
			 M137,119.2v6.4c0.3,0,0.6,0.1,1,0.1c0.8,0,1.5-0.3,1.9-0.9s0.7-1.5,0.7-2.6c0-2-0.9-3-2.7-3C137.7,119.1,137.4,119.1,137,119.2z"
			/>
	</g>
</g>
<g id="MN_txt" class="MN txt">
	<path class="st2" d="M188.8,119.2h-17c-2.2,0-4-1.8-4-4v-8c0-2.2,1.8-4,4-4h17c2.2,0,4,1.8,4,4v8
		C192.8,117.4,191,119.2,188.8,119.2z"/>
	<g>
		<path d="M179.4,111.7c-0.1-1.1-0.1-2.5-0.1-3.5l0,0c-0.3,0.9-0.6,2-1,3.1l-1.4,3.9H176l-1.3-3.9c-0.4-1.1-0.7-2.2-0.9-3.1l0,0
			c0,1-0.1,2.4-0.2,3.6l-0.2,3.5h-1l0.6-8.1h1.3l1.4,3.9c0.3,1,0.6,1.9,0.8,2.7l0,0c0.2-0.8,0.5-1.7,0.9-2.7l1.4-3.9h1.3l0.5,8.1h-1
			L179.4,111.7z"/>
		<path d="M182.2,115.2v-8.1h1.1l2.6,4.1c0.6,0.9,1.1,1.8,1.5,2.6l0,0c-0.1-1.1-0.1-2.1-0.1-3.3v-3.4h1v8.1h-1.1l-2.6-4.1
			c-0.6-0.9-1.1-1.8-1.5-2.7l0,0c0.1,1,0.1,2,0.1,3.3v3.5H182.2z"/>
	</g>
</g>
<g id="IA_txt" class="IA txt">
	<path class="st2" d="M188.8,159.1h-17c-2.2,0-4-1.8-4-4v-8c0-2.2,1.8-4,4-4h17c2.2,0,4,1.8,4,4v8
		C192.8,157.3,191,159.1,188.8,159.1z"/>
	<g>
		<path d="M176.8,147.1v8.1h-1v-8.1H176.8z"/>
		<path d="M180,152.6l-0.8,2.5H178l2.7-8.1h1.3l2.8,8.1h-1.1l-0.9-2.5H180z M182.6,151.8l-0.8-2.3c-0.2-0.5-0.3-1-0.4-1.5l0,0
			c-0.1,0.5-0.3,1-0.4,1.5l-0.8,2.3H182.6z"/>
	</g>
</g>
<g id="NE_txt" class="NE txt">
	<path class="st2" d="M154.6,153.8h-17c-2.2,0-4-1.8-4-4v-8c0-2.2,1.8-4,4-4h17c2.2,0,4,1.8,4,4v8
		C158.6,152,156.8,153.8,154.6,153.8z"/>
	<g>
		<path d="M139.9,149.8v-8.1h1.1l2.6,4.1c0.6,0.9,1.1,1.8,1.5,2.6l0,0c-0.1-1.1-0.1-2.1-0.1-3.3v-3.4h1v8.1h-1.1l-2.6-4.1
			c-0.6-0.9-1.1-1.8-1.5-2.7l0,0c0.1,1,0.1,2,0.1,3.3v3.5L139.9,149.8L139.9,149.8z"/>
		<path d="M151.9,146.1h-3.1v2.9h3.5v0.9h-4.5v-8.1h4.4v0.9h-3.3v2.6h3.1L151.9,146.1L151.9,146.1z"/>
	</g>
</g>
<g id="KS_txt" class="KS txt">
	<path class="st2" d="M162.7,185.7h-17c-2.2,0-4-1.8-4-4v-8c0-2.2,1.8-4,4-4h17c2.2,0,4,1.8,4,4v8
		C166.7,183.9,164.9,185.7,162.7,185.7z"/>
	<g>
		<path d="M148.7,173.7h1v3.9l0,0c0.2-0.3,0.4-0.6,0.6-0.9l2.5-3h1.3l-2.9,3.4l3.2,4.7h-1.2l-2.7-4l-0.8,0.9v3.1h-1L148.7,173.7
			L148.7,173.7z"/>
		<path d="M155,180.5c0.5,0.3,1.2,0.5,1.9,0.5c1.1,0,1.7-0.6,1.7-1.4c0-0.8-0.4-1.2-1.5-1.6c-1.3-0.5-2.1-1.2-2.1-2.3
			c0-1.3,1-2.2,2.6-2.2c0.8,0,1.4,0.2,1.8,0.4l-0.3,0.9c-0.3-0.1-0.8-0.4-1.5-0.4c-1.1,0-1.5,0.7-1.5,1.2c0,0.8,0.5,1.1,1.6,1.6
			c1.4,0.5,2.1,1.2,2.1,2.4s-0.9,2.3-2.8,2.3c-0.8,0-1.6-0.2-2.1-0.5L155,180.5z"/>
	</g>
</g>
<g id="NM_txt" class="NM txt">
	<path class="st2" d="M127.4,255h-17c-2.2,0-4-1.8-4-4v-8c0-2.2,1.8-4,4-4h17c2.2,0,4,1.8,4,4v8C131.4,253.2,129.6,255,127.4,255z"
		/>
	<g>
		<path d="M110.9,251v-8.1h1.1l2.6,4.1c0.6,0.9,1.1,1.8,1.5,2.6l0,0c-0.1-1.1-0.1-2.1-0.1-3.3v-3.4h1v8.1h-1.1l-2.6-4.1
			c-0.6-0.9-1.1-1.8-1.5-2.7l0,0c0.1,1,0.1,2,0.1,3.3v3.5L110.9,251L110.9,251z"/>
		<path d="M125.6,247.4c-0.1-1.1-0.1-2.5-0.1-3.5l0,0c-0.3,0.9-0.6,2-1,3.1l-1.4,3.9h-0.8l-1.3-3.8c-0.4-1.1-0.7-2.2-0.9-3.1l0,0
			c0,1-0.1,2.4-0.2,3.6l-0.2,3.5h-1l0.6-8.1h1.3l1.4,3.9c0.3,1,0.6,1.9,0.8,2.7l0,0c0.2-0.8,0.5-1.7,0.9-2.7l1.4-3.9h1.3l0.5,8.1h-1
			L125.6,247.4z"/>
	</g>
</g>
<g id="TX_txt" class="TX txt">
	<path class="st2" d="M167.1,282.6h-17c-2.2,0-4-1.8-4-4v-8c0-2.2,1.8-4,4-4h17c2.2,0,4,1.8,4,4v8
		C171.1,280.9,169.3,282.6,167.1,282.6z"/>
	<g>
		<path d="M154.7,271.5h-2.5v-0.9h6v0.9h-2.5v7.2h-1.1v-7.2H154.7z"/>
		<path d="M163.8,278.7l-1-1.8c-0.4-0.7-0.7-1.1-0.9-1.6l0,0c-0.2,0.5-0.5,0.9-0.9,1.6l-1,1.8h-1.2l2.5-4.1l-2.4-4h1.2l1.1,1.9
			c0.3,0.5,0.5,0.9,0.7,1.4l0,0c0.2-0.5,0.4-0.9,0.7-1.4l1.1-1.9h1.2l-2.5,3.9l2.5,4.1h-1.1V278.7z"/>
	</g>
</g>
<g id="OK_txt" class="OK txt">
	<path class="st2" d="M179,219.5h-17c-2.2,0-4-1.8-4-4v-8c0-2.2,1.8-4,4-4h17c2.2,0,4,1.8,4,4v8C183,217.7,181.2,219.5,179,219.5z"
		/>
	<g>
		<path d="M170.6,211.5c0,2.8-1.7,4.3-3.8,4.3s-3.6-1.7-3.6-4.1c0-2.6,1.6-4.2,3.8-4.2C169.2,207.4,170.6,209.1,170.6,211.5z
			 M164.4,211.6c0,1.7,0.9,3.3,2.6,3.3c1.7,0,2.6-1.5,2.6-3.4c0-1.6-0.8-3.3-2.6-3.3C165.2,208.2,164.4,209.8,164.4,211.6z"/>
		<path d="M172,207.5h1v3.9l0,0c0.2-0.3,0.4-0.6,0.6-0.9l2.5-3h1.3l-2.9,3.4l3.2,4.7h-1.2l-2.7-4l-0.8,0.9v3.1h-1L172,207.5
			L172,207.5z"/>
	</g>
</g>
<g id="WI_txt" class="WI txt">
	<path class="st2" d="M225.8,89.7h-17c-2.2,0-4-1.8-4-4v-8c0-2.2,1.8-4,4-4h17c2.2,0,4,1.8,4,4v8C229.8,87.9,228,89.7,225.8,89.7z"
		/>
	<g>
		<path d="M213.4,85.7l-2.1-8.1h1.1l1,4.1c0.2,1,0.5,2,0.6,2.8l0,0c0.1-0.8,0.4-1.8,0.7-2.8l1.1-4.1h1.1l1,4.1
			c0.2,1,0.4,1.9,0.6,2.8l0,0c0.2-0.9,0.4-1.8,0.6-2.8l1.1-4.1h1.1l-2.3,8.1h-1.1l-1-4.2c-0.3-1-0.4-1.8-0.5-2.6l0,0
			c-0.1,0.8-0.3,1.6-0.6,2.6l-1.2,4.2H213.4z"/>
		<path d="M223.3,77.7v8.1h-1v-8.1H223.3z"/>
	</g>
</g>
<g id="IL_txt" class="IL txt">
	<path class="st2" d="M233.2,159.1h-17c-2.2,0-4-1.8-4-4v-8c0-2.2,1.8-4,4-4h17c2.2,0,4,1.8,4,4v8
		C237.2,157.3,235.4,159.1,233.2,159.1z"/>
	<g>
		<path d="M222.1,147.1v8.1h-1v-8.1H222.1z"/>
		<path d="M223.9,147.1h1v7.2h3.5v0.9h-4.5V147.1z"/>
	</g>
</g>
<g id="MO_txt" class="MO txt">
	<path class="st2" d="M212.7,198.8h-17c-2.2,0-4-1.8-4-4v-8c0-2.2,1.8-4,4-4h17c2.2,0,4,1.8,4,4v8
		C216.7,197,214.9,198.8,212.7,198.8z"/>
	<g>
		<path d="M202.8,191.3c-0.1-1.1-0.1-2.5-0.1-3.5l0,0c-0.3,0.9-0.6,2-1,3.1l-1.4,3.9h-0.8l-1.3-3.9c-0.4-1.1-0.7-2.2-0.9-3.1l0,0
			c0,1-0.1,2.4-0.2,3.6l-0.2,3.5h-1l0.6-8.1h1.3l1.4,3.9c0.3,1,0.6,1.9,0.8,2.7l0,0c0.2-0.8,0.5-1.7,0.9-2.7l1.4-3.9h1.3l0.5,8.1h-1
			L202.8,191.3z"/>
		<path d="M212.6,190.7c0,2.8-1.7,4.3-3.8,4.3s-3.6-1.7-3.6-4.1c0-2.6,1.6-4.2,3.8-4.2C211.2,186.6,212.6,188.3,212.6,190.7z
			 M206.3,190.8c0,1.7,0.9,3.3,2.6,3.3c1.7,0,2.6-1.5,2.6-3.4c0-1.6-0.8-3.3-2.6-3.3C207.2,187.5,206.3,189.1,206.3,190.8z"/>
	</g>
</g>
<g id="AR_txt" class="AR txt">
	<path class="st2" d="M218.5,237.2h-17c-2.2,0-4-1.8-4-4v-8c0-2.2,1.8-4,4-4h17c2.2,0,4,1.8,4,4v8
		C222.5,235.4,220.7,237.2,218.5,237.2z"/>
	<g>
		<path d="M205.4,230.8l-0.8,2.5h-1.1l2.7-8.1h1.3l2.8,8.1h-1.1l-0.9-2.5H205.4z M208,230l-0.8-2.3c-0.2-0.5-0.3-1-0.4-1.5l0,0
			c-0.1,0.5-0.3,1-0.4,1.5l-0.8,2.3H208z"/>
		<path d="M211.4,225.3c0.5-0.1,1.3-0.2,2-0.2c1.1,0,1.8,0.2,2.3,0.7c0.4,0.4,0.6,0.9,0.6,1.5c0,1.1-0.7,1.8-1.5,2.1l0,0
			c0.6,0.2,1,0.8,1.2,1.6c0.3,1.1,0.5,1.9,0.6,2.2h-1.1c-0.1-0.2-0.3-0.9-0.5-1.9c-0.2-1.1-0.7-1.5-1.6-1.6h-1v3.5h-1V225.3z
			 M212.4,229h1.1c1.1,0,1.8-0.6,1.8-1.5c0-1-0.8-1.5-1.9-1.5c-0.5,0-0.9,0-1,0.1L212.4,229L212.4,229z"/>
	</g>
</g>
<g id="LA_txt" class="LA txt">
	<path class="st2" d="M229.5,282.6h-17c-2.2,0-4-1.8-4-4v-8c0-2.2,1.8-4,4-4h17c2.2,0,4,1.8,4,4v8
		C233.5,280.8,231.7,282.6,229.5,282.6z"/>
	<g>
		<path d="M215.1,270.6h1v7.2h3.5v0.9h-4.5V270.6z"/>
		<path d="M222.1,276.1l-0.8,2.5h-1.1l2.7-8.1h1.3l2.8,8.1h-1.1l-0.9-2.5H222.1z M224.7,275.3l-0.8-2.3c-0.2-0.5-0.3-1-0.4-1.5l0,0
			c-0.1,0.5-0.3,1-0.4,1.5l-0.8,2.3H224.7z"/>
	</g>
</g>
<g id="MS_txt" class="MS txt">
	<path class="st2" d="M255.4,262h-17c-2.2,0-4-1.8-4-4v-8c0-2.2,1.8-4,4-4h17c2.2,0,4,1.8,4,4v8C259.4,260.2,257.6,262,255.4,262z"
		/>
	<g>
		<path d="M246.8,254.5c-0.1-1.1-0.1-2.5-0.1-3.5l0,0c-0.3,0.9-0.6,2-1,3.1l-1.4,3.9h-0.8l-1.3-3.8c-0.4-1.1-0.7-2.2-0.9-3.1l0,0
			c0,1-0.1,2.4-0.2,3.6l-0.2,3.5h-1l0.6-8.1h1.3l1.4,3.9c0.3,1,0.6,1.9,0.8,2.7l0,0c0.2-0.8,0.5-1.7,0.9-2.7l1.4-3.9h1.3l0.5,8.1h-1
			L246.8,254.5z"/>
		<path d="M249.4,256.8c0.5,0.3,1.2,0.5,1.9,0.5c1.1,0,1.7-0.6,1.7-1.4c0-0.8-0.4-1.2-1.5-1.6c-1.3-0.5-2.1-1.2-2.1-2.3
			c0-1.3,1-2.2,2.6-2.2c0.8,0,1.4,0.2,1.8,0.4l-0.3,0.9c-0.3-0.1-0.8-0.4-1.5-0.4c-1.1,0-1.5,0.7-1.5,1.2c0,0.8,0.5,1.1,1.6,1.6
			c1.4,0.5,2.1,1.2,2.1,2.4s-0.9,2.3-2.8,2.3c-0.8,0-1.6-0.2-2.1-0.5L249.4,256.8z"/>
	</g>
</g>
<g id="TN_txt" class="TN txt">
	<path class="st2" d="M270.2,230.7h-17c-2.2,0-4-1.8-4-4v-8c0-2.2,1.8-4,4-4h17c2.2,0,4,1.8,4,4v8
		C274.2,228.9,272.5,230.7,270.2,230.7z"/>
	<g>
		<path d="M257.7,219.5h-2.5v-0.9h6v0.9h-2.5v7.2h-1.1v-7.2H257.7z"/>
		<path d="M262.2,226.7v-8.1h1.1l2.6,4.1c0.6,0.9,1.1,1.8,1.5,2.6l0,0c-0.1-1.1-0.1-2.1-0.1-3.3v-3.4h1v8.1h-1.1l-2.6-4.1
			c-0.6-0.9-1.1-1.8-1.5-2.7l0,0c0.1,1,0.1,2,0.1,3.3v3.5L262.2,226.7L262.2,226.7z"/>
	</g>
</g>
<g id="KY_txt" class="KY txt">
	<path class="st2" d="M285.1,203.5h-17c-2.2,0-4-1.8-4-4v-8c0-2.2,1.8-4,4-4h17c2.2,0,4,1.8,4,4v8
		C289.1,201.7,287.3,203.5,285.1,203.5z"/>
	<g>
		<path d="M270.6,191.4h1v3.9l0,0c0.2-0.3,0.4-0.6,0.6-0.9l2.5-3h1.3l-2.9,3.4l3.2,4.7h-1.2l-2.7-4l-0.8,0.9v3.1h-1V191.4z"/>
		<path d="M278.8,199.5v-3.4l-2.6-4.7h1.2l1.1,2.2c0.3,0.6,0.6,1.1,0.8,1.7l0,0c0.2-0.5,0.5-1.1,0.8-1.7l1.2-2.2h1.2l-2.7,4.6v3.4
			L278.8,199.5L278.8,199.5z"/>
	</g>
</g>
<g id="IN_txt" class="IN txt">
	<path class="st2" d="M277.7,159.1h-17c-2.2,0-4-1.8-4-4v-8c0-2.2,1.8-4,4-4h17c2.2,0,4,1.8,4,4v8
		C281.7,157.3,279.9,159.1,277.7,159.1z"/>
	<g>
		<path d="M265.8,147.1v8.1h-1v-8.1H265.8z"/>
		<path d="M267.6,155.2v-8.1h1.1l2.6,4.1c0.6,0.9,1.1,1.8,1.5,2.6l0,0c-0.1-1.1-0.1-2.1-0.1-3.3v-3.4h1v8.1h-1.1l-2.6-4.1
			c-0.6-0.9-1.1-1.8-1.5-2.7l0,0c0.1,1,0.1,2,0.1,3.3v3.5L267.6,155.2L267.6,155.2z"/>
	</g>
</g>
<g id="MI_txt" class="MI txt">
	<path class="st2" d="M279.1,96.1h-17c-2.2,0-4-1.8-4-4v-8c0-2.2,1.8-4,4-4h17c2.2,0,4,1.8,4,4v8C283.1,94.3,281.3,96.1,279.1,96.1z
		"/>
	<g>
		<path d="M272.2,88.6c-0.1-1.1-0.1-2.5-0.1-3.5l0,0c-0.3,0.9-0.6,2-1,3.1l-1.4,3.9h-0.8l-1.3-3.9c-0.4-1.1-0.7-2.2-0.9-3.1l0,0
			c0,1-0.1,2.4-0.2,3.6l-0.2,3.5h-1l0.6-8.1h1.3l1.4,3.9c0.3,1,0.6,1.9,0.8,2.7l0,0c0.2-0.8,0.5-1.7,0.9-2.7l1.4-3.9h1.3l0.5,8.1h-1
			L272.2,88.6z"/>
		<path d="M276.1,84.1v8.1h-1v-8.1H276.1z"/>
	</g>
</g>
<g id="OH_txt" class="OH txt">
	<path class="st2" d="M319.7,134.6h-17c-2.2,0-4-1.8-4-4v-8c0-2.2,1.8-4,4-4h17c2.2,0,4,1.8,4,4v8
		C323.7,132.8,321.9,134.6,319.7,134.6z"/>
	<g>
		<path d="M311.2,126.5c0,2.8-1.7,4.3-3.8,4.3c-2.1,0-3.6-1.7-3.6-4.1c0-2.6,1.6-4.2,3.8-4.2C309.8,122.4,311.2,124.1,311.2,126.5z
			 M304.9,126.6c0,1.7,0.9,3.3,2.6,3.3s2.6-1.5,2.6-3.4c0-1.6-0.8-3.3-2.6-3.3C305.8,123.3,304.9,124.9,304.9,126.6z"/>
		<path d="M313.6,122.6v3.4h3.9v-3.4h1.1v8.1h-1.1v-3.8h-3.9v3.8h-1v-8.1H313.6z"/>
	</g>
</g>
<g id="WV_txt" class="WV txt">
	<path class="st2" d="M336.9,173h-17c-2.2,0-4-1.8-4-4v-8c0-2.2,1.8-4,4-4h17c2.2,0,4,1.8,4,4v8C340.9,171.2,339.1,173,336.9,173z"
		/>
	<g>
		<path d="M322,169.1l-2-8.1h1.1l1,4.1c0.2,1,0.5,2,0.6,2.8l0,0c0.1-0.8,0.4-1.8,0.7-2.8l1.1-4.1h1.1l1,4.1c0.2,1,0.4,1.9,0.6,2.8
			l0,0c0.2-0.9,0.4-1.8,0.6-2.8l1.1-4.1h1.1l-2.3,8.1h-1.1l-1-4.2c-0.3-1-0.4-1.8-0.5-2.6l0,0c-0.1,0.8-0.3,1.6-0.6,2.6l-1.2,4.2
			H322z"/>
		<path d="M332.8,169.1l-2.6-8.1h1.1l1.3,4c0.3,1.1,0.6,2.1,0.9,3l0,0c0.2-0.9,0.6-2,0.9-3l1.4-4h1.1l-2.9,8.1H332.8z"/>
	</g>
</g>
<g id="VA_txt" class="VA txt">
	<path class="st2" d="M343.7,202.2h-17c-2.2,0-4-1.8-4-4v-8c0-2.2,1.8-4,4-4h17c2.2,0,4,1.8,4,4v8
		C347.7,200.4,345.9,202.2,343.7,202.2z"/>
	<g>
		<path d="M331.3,198.3l-2.6-8.1h1.1l1.3,4c0.3,1.1,0.6,2.1,0.9,3l0,0c0.2-0.9,0.6-2,0.9-3l1.4-4h1.1l-2.9,8.1H331.3z"/>
		<path d="M336.8,195.7l-0.8,2.5h-1.1l2.7-8.1h1.3l2.8,8.1h-1.1l-0.9-2.5H336.8z M339.5,194.9l-0.8-2.3c-0.2-0.5-0.3-1-0.4-1.5l0,0
			c-0.1,0.5-0.3,1-0.4,1.5l-0.8,2.3H339.5z"/>
	</g>
</g>
<g id="NC_txt" class="NC txt">
	<path class="st2" d="M348,237.2h-17c-2.2,0-4-1.8-4-4v-8c0-2.2,1.8-4,4-4h17c2.2,0,4,1.8,4,4v8C352,235.4,350.2,237.2,348,237.2z"
		/>
	<g>
		<path d="M332.8,233.3v-8.1h1.1l2.6,4.1c0.6,0.9,1.1,1.8,1.5,2.6l0,0c-0.1-1.1-0.1-2.1-0.1-3.3v-3.4h1v8.1h-1.1l-2.6-4.1
			c-0.6-0.9-1.1-1.8-1.5-2.7l0,0c0.1,1,0.1,2,0.1,3.3v3.5L332.8,233.3L332.8,233.3z"/>
		<path d="M346.3,233c-0.4,0.2-1.2,0.4-2.1,0.4c-2.3,0-4-1.4-4-4.1c0-2.5,1.7-4.2,4.2-4.2c1,0,1.6,0.2,1.9,0.4l-0.3,0.9
			c-0.4-0.2-1-0.3-1.6-0.3c-1.9,0-3.2,1.2-3.2,3.3c0,2,1.1,3.2,3.1,3.2c0.6,0,1.3-0.1,1.7-0.3L346.3,233z"/>
	</g>
</g>
<g id="AL_txt" class="AL txt">
	<path class="st2" d="M283.4,278.3h-17c-2.2,0-4-1.8-4-4v-8c0-2.2,1.8-4,4-4h17c2.2,0,4,1.8,4,4v8
		C287.4,276.5,285.6,278.3,283.4,278.3z"/>
	<g>
		<path d="M270.6,271.8l-0.8,2.5h-1.1l2.7-8.1h1.3l2.8,8.1h-1.1l-0.9-2.5H270.6z M273.3,271l-0.8-2.3c-0.2-0.5-0.3-1-0.4-1.5l0,0
			c-0.1,0.5-0.3,1-0.4,1.5l-0.8,2.3H273.3z"/>
		<path d="M276.7,266.3h1v7.2h3.5v0.9h-4.5V266.3z"/>
	</g>
</g>
<g id="GA_txt" class="GA txt">
	<path class="st2" d="M322.6,285.2h-17c-2.2,0-4-1.8-4-4v-8c0-2.2,1.8-4,4-4h17c2.2,0,4,1.8,4,4v8
		C326.6,283.4,324.8,285.2,322.6,285.2z"/>
	<g>
		<path d="M313.5,280.9c-0.5,0.2-1.4,0.4-2.5,0.4c-1.2,0-2.2-0.3-3-1.1c-0.7-0.7-1.1-1.8-1.1-3c0-2.4,1.7-4.2,4.4-4.2
			c0.9,0,1.7,0.2,2,0.4l-0.3,0.9c-0.4-0.2-1-0.3-1.8-0.3c-2,0-3.2,1.2-3.2,3.2c0,2.1,1.2,3.3,3.1,3.3c0.7,0,1.2-0.1,1.4-0.2v-2.4
			h-1.6V277h2.7v3.9H313.5z"/>
		<path d="M316.4,278.7l-0.8,2.5h-1.1l2.7-8.1h1.3l2.8,8.1h-1.1l-0.9-2.5H316.4z M319.1,277.9l-0.8-2.3c-0.2-0.5-0.3-1-0.4-1.5l0,0
			c-0.1,0.5-0.3,1-0.4,1.5l-0.8,2.3H319.1z"/>
	</g>
</g>
<g id="FL_txt" class="FL txt">
	<path class="st2" d="M344.3,348h-17c-2.2,0-4-1.8-4-4v-8c0-2.2,1.8-4,4-4h17c2.2,0,4,1.8,4,4v8C348.3,346.2,346.5,348,344.3,348z"
		/>
	<g>
		<path d="M330.7,336h4.4v0.9h-3.3v2.7h3.1v0.9h-3.1v3.7h-1V336H330.7z"/>
		<path d="M336.5,336h1v7.2h3.5v0.9h-4.5V336z"/>
	</g>
</g>
<g id="SC_txt" class="SC txt">
	<path class="st2" d="M366.6,275.6h-17c-2.2,0-4-1.8-4-4v-8c0-2.2,1.8-4,4-4h17c2.2,0,4,1.8,4,4v8
		C370.6,273.8,368.8,275.6,366.6,275.6z"/>
	<g>
		<path d="M352.4,270.4c0.5,0.3,1.2,0.5,1.9,0.5c1.1,0,1.7-0.6,1.7-1.4s-0.4-1.2-1.5-1.6c-1.3-0.5-2.1-1.2-2.1-2.3
			c0-1.3,1-2.2,2.6-2.2c0.8,0,1.4,0.2,1.8,0.4l-0.3,0.9c-0.3-0.1-0.8-0.4-1.5-0.4c-1.1,0-1.5,0.7-1.5,1.2c0,0.8,0.5,1.1,1.6,1.6
			c1.4,0.5,2.1,1.2,2.1,2.4c0,1.2-0.9,2.3-2.8,2.3c-0.8,0-1.6-0.2-2.1-0.5L352.4,270.4z"/>
		<path d="M364.1,271.4c-0.4,0.2-1.2,0.4-2.1,0.4c-2.3,0-4-1.4-4-4.1c0-2.5,1.7-4.2,4.2-4.2c1,0,1.6,0.2,1.9,0.4l-0.3,0.9
			c-0.4-0.2-1-0.3-1.6-0.3c-1.9,0-3.2,1.2-3.2,3.3c0,2,1.1,3.2,3.1,3.2c0.6,0,1.3-0.1,1.7-0.3L364.1,271.4z"/>
	</g>
</g>
<g id="DC_txt" class="DC txt">
	<path class="st2" d="M366.6,181.7h-17c-2.2,0-4-1.8-4-4v-8c0-2.2,1.8-4,4-4h17c2.2,0,4,1.8,4,4v8
		C370.6,179.9,368.8,181.7,366.6,181.7z"/>
	<g>
		<path d="M351.3,169.8c0.6-0.1,1.4-0.2,2.2-0.2c1.5,0,2.6,0.3,3.3,1c0.7,0.7,1.1,1.6,1.1,2.9c0,1.3-0.4,2.4-1.2,3.1
			c-0.8,0.8-2,1.2-3.6,1.2c-0.7,0-1.4,0-1.9-0.1v-7.9H351.3z M352.3,176.9c0.3,0,0.6,0.1,1.1,0.1c2.2,0,3.4-1.2,3.4-3.4
			c0-1.9-1.1-3.1-3.3-3.1c-0.5,0-0.9,0-1.2,0.1V176.9z"/>
		<path d="M364.9,177.5c-0.4,0.2-1.2,0.4-2.1,0.4c-2.3,0-4-1.4-4-4.1c0-2.5,1.7-4.2,4.2-4.2c1,0,1.6,0.2,1.9,0.4l-0.3,0.9
			c-0.4-0.2-1-0.3-1.6-0.3c-1.9,0-3.2,1.2-3.2,3.3c0,2,1.1,3.3,3.1,3.3c0.6,0,1.3-0.1,1.7-0.3L364.9,177.5z"/>
	</g>
</g>
<g id="MD_txt" class="MD txt">
	<path class="st2" d="M374,155.1h-17c-2.2,0-4-1.8-4-4v-8c0-2.2,1.8-4,4-4h17c2.2,0,4,1.8,4,4v8C378,153.3,376.2,155.1,374,155.1z"
		/>
	<g>
		<path d="M364.3,147.6c-0.1-1.1-0.1-2.5-0.1-3.5l0,0c-0.3,0.9-0.6,2-1,3.1l-1.4,3.9H361l-1.3-3.9c-0.4-1.1-0.7-2.2-0.9-3.1l0,0
			c0,1-0.1,2.4-0.2,3.6l-0.2,3.5h-1l0.6-8.1h1.3l1.4,3.9c0.3,1,0.6,1.9,0.8,2.7l0,0c0.2-0.8,0.5-1.7,0.9-2.7l1.4-3.9h1.3l0.5,8.1h-1
			L364.3,147.6z"/>
		<path d="M367.1,143.2c0.6-0.1,1.4-0.2,2.2-0.2c1.5,0,2.6,0.3,3.3,1c0.7,0.7,1.1,1.6,1.1,2.9c0,1.3-0.4,2.4-1.2,3.1
			c-0.8,0.8-2,1.2-3.6,1.2c-0.7,0-1.4,0-1.9-0.1v-7.9H367.1z M368.2,150.3c0.3,0,0.6,0.1,1.1,0.1c2.2,0,3.4-1.2,3.4-3.4
			c0-1.9-1.1-3.1-3.3-3.1c-0.5,0-0.9,0-1.2,0.1V150.3z"/>
	</g>
</g>
<g id="DE_txt" class="DE txt">
	<path class="st2" d="M403.6,160.3h-17c-2.2,0-4-1.8-4-4v-8c0-2.2,1.8-4,4-4h17c2.2,0,4,1.8,4,4v8
		C407.6,158.5,405.8,160.3,403.6,160.3z"/>
	<g>
		<path d="M388.8,148.4c0.6-0.1,1.4-0.2,2.2-0.2c1.5,0,2.6,0.3,3.3,1c0.7,0.7,1.1,1.6,1.1,2.9c0,1.3-0.4,2.4-1.2,3.1
			c-0.8,0.8-2,1.2-3.6,1.2c-0.7,0-1.4,0-1.9-0.1v-7.9H388.8z M389.9,155.6c0.3,0,0.6,0.1,1.1,0.1c2.2,0,3.4-1.2,3.4-3.4
			c0-1.9-1.1-3.1-3.3-3.1c-0.5,0-0.9,0-1.2,0.1V155.6z"/>
		<path d="M401,152.6h-3.1v2.9h3.5v0.9h-4.5v-8.1h4.4v0.9H398v2.6h3.1v0.8H401z"/>
	</g>
</g>
<g id="PA_txt" class="PA txt">
	<path class="st2" d="M381.3,115.4h-17c-2.2,0-4-1.8-4-4v-8c0-2.2,1.8-4,4-4h17c2.2,0,4,1.8,4,4v8
		C385.3,113.6,383.5,115.4,381.3,115.4z"/>
	<g>
		<path d="M367.1,103.5c0.5-0.1,1.2-0.2,2-0.2c1,0,1.8,0.2,2.3,0.7c0.4,0.4,0.7,1,0.7,1.7s-0.2,1.3-0.6,1.7
			c-0.6,0.6-1.5,0.9-2.5,0.9c-0.3,0-0.6,0-0.8-0.1v3.2h-1v-7.9H367.1z M368.1,107.4c0.2,0.1,0.5,0.1,0.9,0.1c1.3,0,2-0.6,2-1.7
			s-0.8-1.6-1.9-1.6c-0.5,0-0.8,0-1,0.1V107.4z"/>
		<path d="M373.8,108.9l-0.8,2.5h-1.1l2.7-8.1h1.3l2.8,8.1h-1.1l-0.9-2.5H373.8z M376.4,108.1l-0.8-2.3c-0.2-0.5-0.3-1-0.4-1.5l0,0
			c-0.1,0.5-0.3,1-0.4,1.5l-0.8,2.3H376.4z"/>
	</g>
</g>
<g id="NJ_txt" class="NJ txt">
	<path class="st2" d="M430.9,141h-17c-2.2,0-4-1.8-4-4v-8c0-2.2,1.8-4,4-4h17c2.2,0,4,1.8,4,4v8C434.9,139.2,433.1,141,430.9,141z"
		/>
	<g>
		<path d="M417.1,137v-8.1h1.1l2.6,4.1c0.6,0.9,1.1,1.8,1.5,2.6l0,0c-0.1-1.1-0.1-2.1-0.1-3.3v-3.4h1v8.1h-1.1l-2.6-4.1
			c-0.6-0.9-1.1-1.8-1.5-2.7l0,0c0.1,1,0.1,2,0.1,3.3v3.5H417.1z"/>
		<path d="M426.7,128.9h1v5.4c0,2.1-1.1,2.8-2.4,2.8c-0.4,0-0.9-0.1-1.1-0.2l0.2-0.9c0.2,0.1,0.5,0.2,0.9,0.2c0.9,0,1.5-0.4,1.5-2
			V128.9z"/>
	</g>
</g>
<g id="CT_txt" class="CT txt">
	<path class="st2" d="M470.2,96.1h-17c-2.2,0-4-1.8-4-4v-8c0-2.2,1.8-4,4-4h17c2.2,0,4,1.8,4,4v8C474.2,94.3,472.4,96.1,470.2,96.1z
		"/>
	<g>
		<path d="M461.5,91.9c-0.4,0.2-1.2,0.4-2.1,0.4c-2.3,0-4-1.4-4-4.1c0-2.5,1.7-4.2,4.2-4.2c1,0,1.6,0.2,1.9,0.4l-0.3,0.9
			c-0.4-0.2-1-0.3-1.6-0.3c-1.9,0-3.2,1.2-3.2,3.3c0,2,1.1,3.3,3.1,3.3c0.6,0,1.3-0.1,1.7-0.3L461.5,91.9z"/>
		<path d="M464.6,85h-2.5v-0.9h6V85h-2.5v7.2h-1.1V85z"/>
	</g>
</g>
<g id="NY_txt" class="NY txt">
	<path class="st2" d="M426.7,64h-17c-2.2,0-4-1.8-4-4v-8c0-2.2,1.8-4,4-4h17c2.2,0,4,1.8,4,4v8C430.7,62.1,428.9,64,426.7,64z"/>
	<g>
		<path d="M411.5,60v-8.1h1.1l2.6,4.1c0.6,0.9,1.1,1.8,1.5,2.6l0,0c-0.1-1.1-0.1-2.1-0.1-3.3v-3.4h1V60h-1.1l-2.6-4.1
			c-0.6-0.9-1.1-1.8-1.5-2.7l0,0c0.1,1,0.1,2,0.1,3.3V60H411.5z"/>
		<path d="M421.2,60v-3.4l-2.6-4.7h1.2l1.1,2.2c0.3,0.6,0.6,1.1,0.8,1.7h0c0.2-0.5,0.5-1.1,0.8-1.7l1.2-2.2h1.2l-2.7,4.6V60H421.2z"
			/>
	</g>
</g>
<g id="MA_txt" class="MA txt">
	<path class="st2" d="M492.5,64h-17c-2.2,0-4-1.8-4-4v-8c0-2.2,1.8-4,4-4h17c2.2,0,4,1.8,4,4v8C496.5,62.2,494.6,64,492.5,64z"/>
	<g>
		<path d="M483,56.5c-0.1-1.1-0.1-2.5-0.1-3.5h0c-0.3,0.9-0.6,2-1,3.1l-1.4,3.9h-0.8l-1.3-3.9c-0.4-1.1-0.7-2.2-0.9-3.1h0
			c0,1-0.1,2.4-0.2,3.6L477,60h-1l0.6-8.1h1.3l1.4,3.9c0.3,1,0.6,1.9,0.8,2.7h0c0.2-0.8,0.5-1.7,0.9-2.7l1.4-3.9h1.3l0.5,8.1h-1
			L483,56.5z"/>
		<path d="M487.1,57.5l-0.8,2.5h-1.1l2.7-8.1h1.3l2.8,8.1h-1.1l-0.9-2.5H487.1z M489.7,56.7l-0.8-2.3c-0.2-0.5-0.3-1-0.4-1.5h0
			c-0.1,0.5-0.3,1-0.4,1.5l-0.8,2.3H489.7z"/>
	</g>
</g>
<g id="RI_txt" class="RI txt">
	<path class="st2" d="M505,89.8h-17c-2.2,0-4-1.8-4-4v-8c0-2.2,1.8-4,4-4h17c2.2,0,4,1.8,4,4v8C509,88,507.1,89.8,505,89.8z"/>
	<g>
		<path d="M492.7,77.9c0.5-0.1,1.3-0.2,2-0.2c1.1,0,1.8,0.2,2.3,0.7c0.4,0.4,0.6,0.9,0.6,1.5c0,1.1-0.7,1.8-1.5,2.1v0
			c0.6,0.2,1,0.8,1.2,1.6c0.3,1.1,0.5,1.9,0.6,2.2h-1.1c-0.1-0.2-0.3-0.9-0.5-1.9c-0.2-1.1-0.7-1.5-1.6-1.6h-1v3.5h-1V77.9z
			 M493.7,81.6h1.1c1.1,0,1.8-0.6,1.8-1.5c0-1-0.8-1.5-1.9-1.5c-0.5,0-0.9,0-1,0.1V81.6z"/>
		<path d="M500.2,77.8v8.1h-1v-8.1H500.2z"/>
	</g>
</g>
<g id="VT_txt" class="VT txt">
	<path class="st2" d="M470.3,33.9h-17c-2.2,0-4-1.8-4-4v-8c0-2.2,1.8-4,4-4h17c2.2,0,4,1.8,4,4v8C474.3,32.1,472.5,33.9,470.3,33.9z
		"/>
	<g>
		<path d="M457.9,29.9l-2.6-8.1h1.1l1.3,4c0.3,1.1,0.6,2.1,0.9,3h0c0.2-0.9,0.6-2,0.9-3l1.4-4h1.1l-2.9,8.1H457.9z"/>
		<path d="M464.8,22.7h-2.5v-0.9h6v0.9h-2.5v7.2h-1.1V22.7z"/>
	</g>
</g>
<g id="NH_txt" class="NH txt">
	<path class="st2" d="M496.5,40.3h-17c-2.2,0-4-1.8-4-4v-8c0-2.2,1.8-4,4-4h17c2.2,0,4,1.8,4,4v8C500.5,38.5,498.7,40.3,496.5,40.3z
		"/>
	<g>
		<path d="M481.1,36.4v-8.1h1.1l2.6,4.1c0.6,0.9,1.1,1.8,1.5,2.6l0,0c-0.1-1.1-0.1-2.1-0.1-3.3v-3.4h1v8.1h-1.1l-2.6-4.1
			c-0.6-0.9-1.1-1.8-1.5-2.7l0,0c0.1,1,0.1,2,0.1,3.3v3.5H481.1z"/>
		<path d="M490,28.3v3.4h3.9v-3.4h1.1v8.1h-1.1v-3.8H490v3.8h-1v-8.1H490z"/>
	</g>
</g>
<g id="ME_txt" class="ME txt">
	<path class="st2" d="M522.2,24.3h-17c-2.2,0-4-1.8-4-4v-8c0-2.2,1.8-4,4-4h17c2.2,0,4,1.8,4,4v8C526.2,22.5,524.4,24.3,522.2,24.3z
		"/>
	<g>
		<path d="M513.5,16.8c-0.1-1.1-0.1-2.5-0.1-3.5h0c-0.3,0.9-0.6,2-1,3.1l-1.4,3.9h-0.8l-1.3-3.9c-0.4-1.1-0.7-2.2-0.9-3.1h0
			c0,1-0.1,2.4-0.2,3.6l-0.2,3.5h-1l0.6-8.1h1.3l1.4,3.9c0.3,1,0.6,1.9,0.8,2.7h0c0.2-0.8,0.5-1.7,0.9-2.7l1.4-3.9h1.3l0.5,8.1h-1
			L513.5,16.8z"/>
		<path d="M520.5,16.6h-3.1v2.9h3.5v0.9h-4.5v-8.1h4.4v0.9h-3.3v2.6h3.1V16.6z"/>
	</g>
</g>
<g id="AK_txt" class="AK txt">
	<path class="st2" d="M107.6,346.5h-17c-2.2,0-4-1.8-4-4v-8c0-2.2,1.8-4,4-4h17c2.2,0,4,1.8,4,4v8
		C111.6,344.8,109.8,346.5,107.6,346.5z"/>
	<g>
		<path d="M94.2,340l-0.8,2.5h-1.1l2.7-8.1h1.3l2.8,8.1h-1.1l-0.9-2.5H94.2z M96.8,339.2l-0.8-2.3c-0.2-0.5-0.3-1-0.4-1.5h0
			c-0.1,0.5-0.3,1-0.4,1.5l-0.8,2.3H96.8z"/>
		<path d="M100.2,334.5h1v3.9h0c0.2-0.3,0.4-0.6,0.6-0.9l2.5-3h1.3l-2.9,3.4l3.2,4.7h-1.2l-2.7-4l-0.8,0.9v3.1h-1V334.5z"/>
	</g>
</g>
<g id="HI_txt" class="HI txt">
	<path class="st2" d="M73.6,383.2h-17c-2.2,0-4-1.8-4-4v-8c0-2.2,1.8-4,4-4h17c2.2,0,4,1.8,4,4v8C77.6,381.5,75.8,383.2,73.6,383.2z
		"/>
	<g>
		<path d="M61.7,371.2v3.4h3.9v-3.4h1.1v8.1h-1.1v-3.8h-3.9v3.8h-1v-8.1H61.7z"/>
		<path d="M69.5,371.2v8.1h-1v-8.1H69.5z"/>
	</g>
</g>
</svg>
