<?xml version="1.0" encoding="utf-8"?>
<!-- Generator: Adobe Illustrator 25.0.1, SVG Export Plug-In . SVG Version: 6.00 Build 0)  -->
<svg version="1.1" class="map" id="senatemapsvg" xmlns="http://www.w3.org/2000/svg" xmlns:xlink="http://www.w3.org/1999/xlink" x="0px" y="0px" viewBox="0 0 961.8 582.6" style="enable-background:new 0 0 961.8 582.6;" xml:space="preserve">
	{% include svg_defs.html %}
	<g id="HI" class="HI outer">
		<g id="HI_main" class="HI main">
			<path d="M212.2,483.9l3-5.5l3.5-0.5l0.5,1.3l-3.3,4.8L212.2,483.9L212.2,483.9z
			M228,478.1l9.5,4l3.3-0.5l2.5-6l-1-5.3l-6.5-0.8l-6.3,2.8L228,478.1L228,478.1z M275.5,493.6l5.8,8.5l3.8-0.5l1.8-0.8l2.3,2
			l5.8-0.3l1.5-2.3l-4.5-2.8l-3-5.8l-3.3-5.5l-9,4.5L275.5,493.6L275.5,493.6z M306.8,507.4l2-3l7.3,1.5l1-0.8l9.5,1l-0.5,2l-4,2.3
			l-6.8-0.5L306.8,507.4z M315,515.4l3,6l4.8-1.8l0.5-2.5l-2.5-3.3l-5.8-0.5V515.4L315,515.4z M325.8,513.7l3.5-4.5l7.3,3.8l6.8,1.8
			l6.8,4.3v3l-5.5,2.8l-7.5,1.5l-3.8-2.3L325.8,513.7L325.8,513.7z M351.6,537.7l2.5-2l5.3,2.5l11.8,5.5l5.3,3.3l2.5,3.8l3,6.8l6.3,4
			l-0.5,2l-6,5l-6.5,2.3l-2.3-1l-4.8,2.8l-3.8,5l-3.5,4.5l-2.8-0.3l-5.5-4l-0.5-7l1-3.8l-2.5-8.8l-3.3-2.8l-0.3-4l3.5-1.5l3.3-4.8
			l0.8-1.5l-2.5-2.8L351.6,537.7L351.6,537.7z" />
		</g>
		<g id="HI_secondary" class="HI secondary">
			<path d="M215.2,478.4l3.5-0.5l0.5,1.3 M242.2,470.4l-6.5-0.8l-6.3,2.8l-1.5,5.8l0,0
			M296.3,500.4l-4.5-2.8l-3-5.8l-3.3-5.5l-9,4.5 M306.8,507.4l2-3l7.3,1.5l1-0.8l9.5,1l-0.5,2l-4,2.3l-6.8-0.5L306.8,507.4z
			M329.3,509.2l7.3,3.8l6.8,1.8l6.8,4.3v3l-5.5,2.8 M353.8,545.2l0.8-1.5l-2.5-2.8l-0.5-3.3l0,0l2.5-2l5.3,2.5l11.8,5.5l5.3,3.3
			l2.5,3.8l3,6.8l6.3,4l-0.5,2l-6,5l-6.5,2.3l-2.3-1" />
		</g>
		<text class="HI" transform="matrix(1 0 0 1 355.1228 565.6833)">HI</text>
	</g>
	<g id="AK" class="AK outer">
		<g id="AK_main" class="AK main">
			<path d="M153.3,434.8l-0.3,85.4l1.6,1l3.1,0.2l1.5-1.1h2.6l0.2,2.9l7,6.8l0.5,2.6
			l3.4-1.9l0.6-0.2l0.3-3.1l1.5-1.6l1.1-0.2l1.9-1.5l3.1,2.1l0.6,2.9l1.9,1.1l1.1,2.4l3.9,1.8l3.4,6l2.7,3.9l2.3,2.7l1.5,3.7l5,1.8
			l5.2,2.1l1,4.4l0.5,3.1l-1,3.4l-1.8,2.3l-1.6-0.8l-1.5-3.1l-2.7-1.5l-1.8-1.1l-0.8,0.8l1.5,2.7l0.2,3.7l-1.1,0.5l-1.9-1.9l-2.1-1.3
			l0.5,1.6l1.3,1.8l-0.8,0.8c0,0-0.8-0.3-1.3-1c-0.5-0.6-2.1-3.4-2.1-3.4l-1-2.3c0,0-0.3,1.3-1,1s-1.3-1.5-1.3-1.5l1.8-1.9l-1.5-1.5
			v-5h-0.8l-0.8,3.4l-1.1,0.5l-1-3.7l-0.6-3.7l-0.8-0.5l0.3,5.7v1.1l-1.5-1.3l-3.6-6l-2.1-0.5l-0.6-3.7l-1.6-2.9l-1.6-1.1v-2.3
			l2.1-1.3l-0.5-0.3l-2.6,0.6l-3.4-2.4l-2.6-2.9l-4.8-2.6l-4-2.6l1.3-3.2V523l-1.8,1.6l-2.9,1.1l-3.7-1.1l-5.7-2.4h-5.5l-0.6,0.5
			l-6.5-3.9l-2.1-0.3l-2.7-5.8l-3.6,0.3l-3.6,1.5l0.5,4.5l1.1-2.9l1,0.3l-1.5,4.4l3.2-2.7l0.6,1.6l-3.9,4.4l-1.3-0.3l-0.5-1.9
			l-1.3-0.8l-1.3,1.1l-2.7-1.8l-3.1,2.1l-1.8,2.1l-3.4,2.1l-4.7-0.2l-0.5-2.1l3.7-0.6v-1.3l-2.3-0.6l1-2.4l2.3-3.9v-1.8l0.2-0.8
			l4.4-2.3l1,1.3h2.7l-1.3-2.6l-3.7-0.3l-5,2.7l-2.4,3.4l-1.8,2.6l-1.1,2.3l-4.2,1.5l-3.1,2.6l-0.3,1.6l2.3,1l0.8,2.1l-2.7,3.2
			l-6.5,4.2l-7.8,4.2l-2.1,1.1l-5.3,1.1l-5.3,2.3l1.8,1.3l-1.5,1.5l-0.5,1.1l-2.7-1l-3.2,0.2l-0.8,2.3h-1l0.3-2.4l-3.6,1.3l-2.9,1
			l-3.4-1.3l-2.9,1.9h-3.2l-2.1,1.3l-1.6,0.8l-2.1-0.3l-2.6-1.1l-2.3,0.6l-1,1l-1.6-1.1v-1.9l3.1-1.3l6.3,0.6l4.4-1.6l2.1-2.1
			l2.9-0.6l1.8-0.8l2.7,0.2l1.6,1.3l1-0.3l2.3-2.7l3.1-1l3.4-0.6l1.3-0.3l0.6,0.5h0.8l1.3-3.7l4-1.5l1.9-3.7l2.3-4.5l1.6-1.5l0.3-2.6
			l-1.6,1.3l-3.4,0.6l-0.6-2.4l-1.3-0.3l-1,1l-0.2,2.9l-1.5-0.2l-1.5-5.8l-1.3,1.3l-1.1-0.5l-0.3-1.9l-4,0.2l-2.1,1.1l-2.6-0.3
			l1.5-1.5l0.5-2.6l-0.6-1.9l1.5-1l1.3-0.2l-0.6-1.8v-4.4l-1-1l-0.8,1.5h-6.1l-1.5-1.3l-0.6-3.9l-2.1-3.6v-1l2.1-0.8l0.2-2.1l1.1-1.1
			l-0.8-0.5l-1.3,0.5l-1.1-2.7l1-5l4.5-3.2l2.6-1.6l1.9-3.7l2.7-1.3l2.6,1.1l0.3,2.4l2.4-0.3l3.2-2.4l1.6,0.6l1,0.6h1.6l2.3-1.3
			l0.8-4.4c0,0,0.3-2.9,1-3.4s1-1,1-1l-1.1-1.9l-2.6,0.8l-3.2,0.8l-1.9-0.5l-3.6-1.8l-5-0.2l-3.6-3.7l0.5-3.9l0.6-2.4l-2.1-1.8
			l-1.9-3.7l0.5-0.8l6.8-0.5h2.1l1,1h0.6l-0.2-1.6l3.9-0.6l2.6,0.3l1.5,1.1l-1.5,2.1l-0.5,1.5l2.7,1.6l5,1.8l1.8-1l-2.3-4.4l-1-3.2
			l1-0.8l-3.4-1.9l-0.5-1.1l0.5-1.6l-0.8-3.9l-2.9-4.7l-2.4-4.2l2.9-1.9h3.2l1.8,0.6l4.2-0.2l3.7-3.6l1.1-3.1l3.7-2.4l1.6,1l2.7-0.6
			l3.7-2.1l1.1-0.2l1,0.8l4.5-0.2l2.7-3.1h1.1l3.6,2.4l1.9,2.1l-0.5,1.1l0.6,1.1l1.6-1.6l3.9,0.3l0.3,3.7l1.9,1.5l7.1,0.6l6.3,4.2
			l1.5-1l5.2,2.6l2.1-0.6l1.9-0.8l4.8,1.9L153.3,434.8L153.3,434.8z M38.2,463.7l2.1,5.3l-0.2,1l-2.9-0.3l-1.8-4l-1.8-1.5h-2.4
			l-0.2-2.6l1.8-2.4l1.1,2.4l1.5,1.5L38.2,463.7z M35.6,497.2l3.7,0.8l3.7,1l0.8,1l-1.6,3.7l-3.1-0.2l-3.4-3.6L35.6,497.2z
			M14.9,483.1l1.1,2.6l1.1,1.6l-1.1,0.8l-2-3.1v-1.9H14.9L14.9,483.1z M1.2,556.2l3.4-2.3l3.4-1l2.6,0.3l0.5,1.6l1.9,0.5l1.9-1.9
			l-0.3-1.6l2.7-0.6l2.9,2.6l-1.1,1.8l-4.4,1.1l-2.7-0.5L8.3,555L4,556.5l-1.6,0.3L1.2,556.2L1.2,556.2z M50.2,551.6l1.6,1.9l2.1-1.6
			l-1.5-1.3L50.2,551.6z M53.1,554.7l1.1-2.3l2.1,0.3l-0.8,1.9C55.5,554.7,53.1,554.7,53.1,554.7z M76.7,552.8l1.5,1.8l1-1.1
			l-0.8-1.9L76.7,552.8z M85.4,540.3l1.1,5.8l2.9,0.8l5-2.9l4.4-2.6l-1.6-2.4l0.5-2.4l-2.1,1.3l-2.9-0.8l1.6-1.1l1.9,0.8l3.9-1.8
			l0.5-1.5l-2.4-0.8l0.8-1.9l-2.7,1.9l-4.7,3.6l-4.8,2.9L85.4,540.3L85.4,540.3z M127.8,520.4l2.4-1.5l-1-1.8l-1.8,1
			C127.5,518.2,127.8,520.4,127.8,520.4z" />
		</g>
		<g id="AK_secondary" class="AK secondary">
			<path d="M77.2,450.6l-1-3.2l1-0.8l-3.4-1.9l-0.5-1.1l0.5-1.6l-0.8-3.9l-2.9-4.7
			l-2.4-4.2l2.9-1.9h3.2l1.8,0.6l4.2-0.2l3.7-3.6l1.1-3.1l3.7-2.4l1.6,1l2.7-0.6l3.7-2.1l1.1-0.2l1,0.8l4.5-0.2l2.7-3.1h1.1l3.6,2.4
			l1.9,2.1l-0.5,1.1l0.6,1.1l1.6-1.6l3.9,0.3l0.3,3.7l1.9,1.5l7.1,0.6l6.3,4.2l1.5-1l5.2,2.6l2.1-0.6l1.9-0.8l4.8,1.9l4.4,2.9l0,0
			L153,520l1.6,1l3.1,0.2l1.5-1.1h2.6l0.2,2.9l7,6.8l0.5,2.6l3.4-1.9l0.6-0.2l0.3-3.1l1.5-1.6l1.1-0.2l1.9-1.5l3.1,2.1l0.6,2.9
			l1.9,1.1l1.1,2.4l3.9,1.8l3.4,6l2.7,3.9l2.3,2.7l1.5,3.7l5,1.8l5.2,2.1l1,4.4l0.5,3.1l-1,3.4l-1.8,2.3l-1.6-0.8l-1.5-3.1l-2.7-1.5
			l-1.8-1.1l-0.8,0.8l1.5,2.7l0.2,3.7l-1.1,0.5l-1.9-1.9l-2.1-1.3l0.5,1.6l1.3,1.8l-0.8,0.8c0,0-0.8-0.3-1.3-1
			c-0.5-0.6-2.1-3.4-2.1-3.4l-1-2.3c0,0-0.3,1.3-1,1s-1.3-1.5-1.3-1.5l1.8-1.9l-1.5-1.5v-5h-0.8l-0.8,3.4l-1.1,0.5l-1-3.7l-0.6-3.7
			l-0.8-0.5l0.3,5.7v1.1l-1.5-1.3l-3.6-6l-2.1-0.5l-0.6-3.7l-1.6-2.9l-1.6-1.1v-2.3l2.1-1.3l-0.5-0.3l-2.6,0.6l-3.4-2.4l-2.6-2.9
			l-4.8-2.6l-4-2.6l1.3-3.2V523l-1.8,1.6l-2.9,1.1l-3.7-1.1l-5.7-2.4h-5.5l-0.6,0.5l-6.5-3.9l-2.1-0.3l-2.7-5.8L77.2,450.6z
			M70.4,447.9l1.5,1.1 M128.1,520.4l2.4-1.5l-1-1.8l-1.8,1C127.8,518.2,128.1,520.4,128.1,520.4z" />
		</g>
		<text class="AK" transform="matrix(1 0 0 1 97.8162 480.2099)">AK</text>
	</g>
	<g id="FL" class="FL outer">
		<g id="FL_main" class="FL main">
			<path d="
			M754.1,432.2l2.3,7.3l3.7,9.7l5.3,9.4l3.7,6.3l4.8,5.5l4,3.7l1.6,2.9l-1.1,1.3l-0.8,1.3l2.9,7.4l2.9,2.9l2.6,5.3l3.6,5.8l4.5,8.2
			l1.3,7.6l0.5,12l0.6,1.8l-0.3,3.4l-2.4,1.3l0.3,1.9l-0.6,1.9l0.3,2.4l0.5,1.9l-2.7,3.2l-3.1,1.5l-3.9,0.2l-1.5,1.6l-2.4,1l-1.3-0.5
			l-1.1-1l-0.3-2.9l-0.8-3.4l-3.4-5.2l-3.6-2.3l-3.9-0.3l-0.8,1.3l-3.1-4.4l-0.6-3.6l-2.6-4l-1.8-1.1l-1.6,2.1l-1.8-0.3l-2.1-5
			l-2.9-3.9l-2.9-5.3l-2.6-3.1l-3.6-3.7l2.1-2.4l3.2-5.5l-0.2-1.6l-4.5-1l-1.6,0.6l0.3,0.6l2.6,1l-1.5,4.5l-0.8,0.5l-1.8-4l-1.3-4.8
			l-0.3-2.7l1.5-4.7v-9.5l-3.1-3.7l-1.3-3.1l-5.2-1.3l-1.9-0.6l-1.6-2.6l-3.4-1.6L720,459l-2.7-1l-2.4-3.7l-4.2-1.5l-2.9-1.5h-2.6
			l-4,0.8L701,454l0.8,1l-0.5,1.1l-3.1-0.2l-3.7,3.6l-3.6,1.9H687l-3.2,1.3l-0.3-2.7l-1.6-1.9L679,457l-1.6-1.5l-8.1-3.9l-7.6-1.8
			l-4.4,0.6l-6,0.5l-6,2.1l-3.3,1l-0.2-8l-2.6-1.9l-1.8-1.8l0.3-3.1l10.2-1.3l25.5-2.9l6.8-0.6l5.4,0.3l2.6,3.9l1.5,1.5l8.1,0.5
			l10.8-0.6l21.5-1.3l5.4-0.7l5.1,0.2l0.4,2.9l2.2,0.8l0.2-4.6l-1.5-4.2l1.3-1.4l5.6,0.5H754.1L754.1,432.2z M766.6,564.6l2.4-0.6
			l1.3-0.2l1.5-2.3l2.3-1.6l1.3,0.5l1.7,0.3l0.4,1.1L774,563l-4.2,1.5l-2.3,1.2L766.6,564.6L766.6,564.6z M780.1,559.6l1.2,1.1
			l2.7-2.1l5.3-4.2l3.7-3.9l2.5-6.6l1-1.7l0.2-3.4l-0.7,0.5l-1,2.8l-1.5,4.6l-3.2,5.3l-4.4,4.2l-3.4,1.9L780.1,559.6L780.1,559.6z" />
		</g>
		<g id="FL_secondary" class="FL secondary">
			<path d="
			M737.8,475.5l-3.1-3.7l-1.3-3.1l-5.2-1.3l-1.9-0.6l-1.6-2.6l-3.4-1.6l-1.1-3.4l-2.7-1l-2.4-3.7l-4.2-1.5l-2.9-1.5h-2.6l-4,0.8
			l-0.2,1.9l0.8,1l-0.5,1.1l-3.1-0.2l-24.9-21.3l6.8-0.6l5.4,0.3l2.6,3.9l1.5,1.5l8.1,0.5l10.8-0.6l21.5-1.3l5.4-0.7l5.1,0.2l0.4,2.9
			l2.2,0.8l0.2-4.6l-1.5-4.2l1.3-1.4l5.6,0.5l5.2,0.3l0,0l2.3,7.3l3.7,9.7l5.3,9.4l3.7,6.3l4.8,5.5l4,3.7l1.6,2.9l-1.1,1.3l-0.8,1.3
			l2.9,7.4l2.9,2.9l2.6,5.3l3.6,5.8l4.5,8.2L737.8,475.5z" />
		</g>
		<text class="FL" transform="matrix(1 0 0 1 746.1707 485.5047)">FL</text>
	</g>
	<g id="MI" class="MI outer">
		<g id="MI_main" class="MI main" transform="translate(-5.75,-6.90625)">
			<path d="
				M697.9,177.2l-3.2-8.2l-2.3-9.1l-2.4-3.2l-2.6-1.8l-1.6,1.1l-3.9,1.8l-1.9,5l-2.7,3.7l-1.1,0.6l-1.5-0.6c0,0-2.6-1.5-2.4-2.1
				c0.2-0.6,0.5-5,0.5-5l3.4-1.3l0.8-3.4l0.6-2.6l2.4-1.6l-0.3-10l-1.6-2.3l-1.3-0.8l-0.8-2.1l0.8-0.8l1.6,0.3l0.2-1.6L676,131
				l-1.3-2.6h-2.6l-4.5-1.5l-5.5-3.4h-2.7l-0.6,0.6l-1-0.5l-3.1-2.3l-2.9,1.8l-2.9,2.3l0.3,3.6l1,0.3l2.1,0.5l0.5,0.8l-2.6,0.8
				l-2.6,0.3l-1.5,1.8l-0.3,2.1l0.3,1.6l0.3,5.5l-3.6,2.1l-0.6-0.2v-4.2l1.3-2.4l0.6-2.4l-0.8-0.8l-1.9,0.8l-1,4.2l-2.7,1.1l-1.8,1.9
				l-0.2,1l0.6,0.8l-0.6,2.6l-2.3,0.5v1.1l0.8,2.4l-1.1,6.1l-1.6,4l0.6,4.7l0.5,1.1l-0.8,2.4l-0.3,0.8l-0.3,2.7l3.6,6l2.9,6.5
				l1.5,4.8l-0.8,4.7l-1,6l-2.4,5.2l-0.3,2.7l-3.3,3.1l4.4-0.2l21.4-2.3l7.3-1l0.1,1.7l6.9-1.2l10.3-1.5l3.9-0.5l0.1-0.6l0.2-1.5
				l2.1-3.7l2-1.7l-0.2-5.1l1.6-1.6l1.1-0.3l0.2-3.6l1.5-3l1.1,0.6l0.2,0.6l0.8,0.2l1.9-1L697.9,177.2L697.9,177.2z" />
			<path d="
				M581.6,82.1l1.8-2.1l2.2-0.8l5.4-3.9l2.3-0.6l0.5,0.5l-5.1,5.1l-3.3,1.9l-2.1,0.9L581.6,82.1L581.6,82.1z M667.8,114.2l0.6,2.5
				l3.2,0.2l1.3-1.2c0,0-0.1-1.5-0.4-1.6c-0.3-0.2-1.6-1.9-1.6-1.9l-2.2,0.2l-1.6,0.2l-0.3,1.1L667.8,114.2L667.8,114.2z
				M567.5,111.2l0.7-0.6l2.7-0.8l3.6-2.3v-1l0.6-0.6l6-1l2.4-1.9l4.4-2.1l0.2-1.3l1.9-2.9l1.8-0.8l1.3-1.8l2.3-2.3l4.4-2.4l4.7-0.5
				l1.1,1.1l-0.3,1l-3.7,1l-1.5,3.1l-2.3,0.8l-0.5,2.4l-2.4,3.2l-0.3,2.6l0.8,0.5l1-1.1l3.6-2.9l1.3,1.3h2.3l3.2,1l1.5,1.1l1.5,3.1
				l2.7,2.7l3.9-0.2l1.5-1l1.6,1.3l1.6,0.5l1.3-0.8h1.1l1.6-1l4-3.6l3.4-1.1l6.6-0.3l4.5-1.9l2.6-1.3l1.5,0.2v5.7l0.5,0.3l2.9,0.8
				l1.9-0.5l6.1-1.6l1.1-1.1l1.5,0.5v7l3.2,3.1l1.3,0.6l1.3,1l-1.3,0.3l-0.8-0.3l-3.7-0.5l-2.1,0.6l-2.3-0.2l-3.2,1.5h-1.8l-5.8-1.3
				l-5.2,0.2l-1.9,2.6l-7,0.6l-2.4,0.8l-1.1,3.1l-1.3,1.1l-0.5-0.2l-1.5-1.6l-4.5,2.4h-0.6l-1.1-1.6l-0.8,0.2l-1.9,4.4l-1,4l-3.2,7
				l-1.2-1l-1.4-1l-1.9-10.3l-3.5-1.4l-2.1-2.3l-12.1-2.7l-2.9-1l-8.2-2.2l-7.9-1.1L567.5,111.2L567.5,111.2z" />
		</g>
		<g id="MI_secondary" class="MI secondary" transform="translate(-5.75,-6.90625)">
			<path d="
				M692.7,189.4l1.5-3l1.1,0.6l0.2,0.6l0.8,0.2l1.9-1l-0.3-9.5l0,0l-3.2-8.2l-2.3-9.1l-2.4-3.2l-2.6-1.8l-1.6,1.1l-3.9,1.8l-1.9,5
				l-2.7,3.7l-1.1,0.6l-1.5-0.6c0,0-2.6-1.5-2.4-2.1c0.2-0.6,0.5-5,0.5-5l3.4-1.3l0.8-3.4l0.6-2.6l2.4-1.6l-0.3-10l-1.6-2.3l-1.3-0.8
				l-0.8-2.1l0.8-0.8l1.6,0.3l0.2-1.6L676,131l-1.3-2.6h-2.6l-4.5-1.5l-5.5-3.4h-2.7l-0.6,0.6l-1-0.5l-3.1-2.3l-2.9,1.8l-2.9,2.3
				l0.3,3.6l1,0.3l2.1,0.5l0.5,0.8l-2.6,0.8l-2.6,0.3l-1.5,1.8l-0.3,2.1l0.3,1.6l0.3,5.5L692.7,189.4z" />
			<path d="
				M642.2,140.5l1.3-2.4l0.6-2.4l-0.8-0.8l-1.9,0.8l-1,4.2L642.2,140.5z" />
			<path d="
				M581.6,82.1l1.8-2.1l2.2-0.8l5.4-3.9l2.3-0.6l0.5,0.5l-5.1,5.1l-3.3,1.9l-2.1,0.9L581.6,82.1L581.6,82.1z M667.8,114.2l0.6,2.5
				l3.2,0.2l1.3-1.2c0,0-0.1-1.5-0.4-1.6c-0.3-0.2-1.6-1.9-1.6-1.9l-2.2,0.2l-1.6,0.2l-0.3,1.1L667.8,114.2L667.8,114.2z M588.1,99.6
				l1.9-2.9l1.8-0.8l1.3-1.8l2.3-2.3l4.4-2.4l4.7-0.5l1.1,1.1l-0.3,1l-3.7,1l-1.5,3.1l-2.3,0.8l-0.5,2.4l-2.4,3.2l-0.3,2.6l0.8,0.5
				l1-1.1l3.6-2.9l1.3,1.3h2.3l3.2,1l1.5,1.1l1.5,3.1l2.7,2.7l3.9-0.2l1.5-1l1.6,1.3l1.6,0.5l1.3-0.8h1.1l1.6-1l4-3.6l3.4-1.1
				l6.6-0.3l4.5-1.9l2.6-1.3l1.5,0.2v5.7l0.5,0.3l2.9,0.8l1.9-0.5l6.1-1.6l1.1-1.1l1.5,0.5v7l3.2,3.1l1.3,0.6l1.3,1l-1.3,0.3
				l-0.8-0.3l-3.7-0.5l-2.1,0.6l-2.3-0.2l-3.2,1.5h-1.8l-5.8-1.3l-5.2,0.2l-1.9,2.6l-7,0.6l-2.4,0.8l-1.1,3.1l-1.3,1.1l-0.5-0.2
				l-1.5-1.6l-4.5,2.4L588.1,99.6z" />
		</g>
		<text class="MI" transform="matrix(1 0 0 1 642.5659 182.6281)">MI</text>
	</g>
	<g id="ME" class="ME outer">
		<g id="ME_main" class="ME main">
			<path d="
			M917.1,71.9L919,74l2.3,3.7v1.9l-2.1,4.7l-1.9,0.6l-3.4,3.1l-4.8,5.5c0,0-0.6,0-1.3,0c-0.6,0-1-2.1-1-2.1l-1.8,0.2l-1,1.5l-2.4,1.5
			l-1,1.5l1.6,1.5l-0.5,0.6l-0.5,2.7l-1.9-0.2v-1.6l-0.3-1.3l-1.5,0.3l-1.8-3.2l-2.1,1.3l1.3,1.5l0.3,1.1l-0.8,1.3l0.3,3.1l0.2,1.6
			l-1.6,2.6l-2.9,0.5l-0.3,2.9l-5.3,3.1l-1.3,0.5l-1.6-1.5l-3.1,3.6l1,3.2l-1.5,1.3l-0.2,4.4l-1.1,6.3l-2.5-1.2l-0.5-3.1l-3.9-1.1
			l-0.3-2.7l-7.3-23.4l-4.7-14.6l1.4-0.1l1.5,0.4V83l1.3-4.5l2.6-4.7l1.5-4l-1.9-2.4v-6l0.8-1l0.8-2.7l-0.2-1.5l-0.2-4.8l1.8-4.8
			l2.9-8.9l2.1-4.2h1.3l1.3,0.2v1.1l1.3,2.3l2.7,0.6l0.8-0.8v-1l4-2.9l1.8-1.8l1.5,0.2l6,2.4l1.9,1l9.1,29.9h6l0.8,1.9l0.2,4.8
			l2.9,2.3h0.8l0.2-0.5l-0.5-1.1L917.1,71.9L917.1,71.9z M896.2,102.1l1.5-1.5l1.4,1.1l0.6,2.4L898,105
			C897.9,104.9,896.2,102.1,896.2,102.1z M902.9,96.2l1.8,1.9c0,0,1.3,0.1,1.3-0.2c0-0.3,0.2-2,0.2-2l0.9-0.8l-0.8-1.8l-2,0.7
			L902.9,96.2z" />
		</g>
		<g id="ME_secondary" class="ME secondary">
			<path d="
			M865.4,51.4l1.8-4.8l2.9-8.9l2.1-4.2h1.3l1.3,0.2v1.1l1.3,2.3l2.7,0.6l0.8-0.8v-1l4-2.9l1.8-1.8l1.5,0.2l6,2.4l1.9,1l9.1,29.9h6
			l0.8,1.9l0.2,4.8l2.9,2.3h0.8l0.2-0.5l-0.5-1.1l2.8-0.2l0,0L919,74l2.3,3.7v1.9l-2.1,4.7l-1.9,0.6l-3.4,3.1l-4.8,5.5
			c0,0-0.6,0-1.3,0c-0.6,0-1-2.1-1-2.1l-1.8,0.2l-1,1.5l-2.4,1.5l-1,1.5l1.6,1.5l-0.5,0.6l-0.5,2.7l-1.9-0.2v-1.6l-0.3-1.3l-1.5,0.3
			l-1.8-3.2L865.4,51.4z M896.2,102.1l1.5-1.5l1.4,1.1l0.6,2.4L898,105C897.9,104.9,896.2,102.1,896.2,102.1z M902.9,96.2l1.8,1.9
			c0,0,1.3,0.1,1.3-0.2c0-0.3,0.2-2,0.2-2l0.9-0.8l-0.8-1.8l-2,0.7L902.9,96.2z" />
		</g>
		<text class="ME" transform="matrix(1 0 0 1 871.5796 82.5648)">ME</text>
	</g>
	<g id="NY" class="NY outer">
		<g id="NY_main" class="NY main">
			<path d="M824.6,181.8l-1.1-1l-2.6-0.2l-2.3-1.9l-1.6-6.1l-3.5,0.1l-2.4-2.7l-19.4,4.4
			l-43,8.7l-7.5,1.2l-0.7-6.5l1.4-1.1l1.3-1.1l1-1.6l1.8-1.1l1.9-1.8l0.5-1.6l2.1-2.7l1.1-1l-0.2-1l-1.3-3.1l-1.8-0.2l-1.9-6.1
			l2.9-1.8l4.4-1.5l4-1.3l3.2-0.5l6.3-0.2l1.9,1.3l1.6,0.2l2.1-1.3l2.6-1.1l5.2-0.5l2.1-1.8l1.8-3.2l1.6-1.9h2.1l1.9-1.1l0.2-2.3
			l-1.5-2.1l-0.3-1.5l1.1-2.1v-1.5H788l-1.8-0.8l-0.8-1.1l-0.2-2.6l5.8-5.5l0.6-0.8l1.5-2.9l2.9-4.5l2.7-3.7l2.1-2.4l2.4-1.8l3.1-1.2
			l5.5-1.3l3.2,0.2l4.5-1.5l7.6-2.1l0.5,5l2.4,6.5l0.8,5.2l-1,3.9l2.6,4.5l0.8,2.1l-0.8,2.9l2.9,1.3l0.6,0.3l3.1,11l-0.5,5.1
			l-0.5,10.8l0.8,5.5l0.8,3.6l1.5,7.3v8.1l-1.1,2.3l1.8,2l0.8,1.7l-1.9,1.8l0.3,1.3l1.3-0.3l1.5-1.3l2.3-2.6l1.1-0.6l1.6,0.6l2.3,0.2
			l7.9-3.9l2.9-2.7l1.3-1.5l4.2,1.6l-3.4,3.6l-3.9,2.9l-7.1,5.3l-2.6,1l-5.8,1.9l-4,1.1l-1.2-0.5l-0.2-3.7l0.5-2.7l-0.2-2.1l-2.8-1.7
			l-4.5-1l-3.9-1.1L824.6,181.8L824.6,181.8z" />
		</g>
		<g id="NY_secondary" class="NY secondary">
			<path d="M851.1,187.4l7.9-3.9l2.9-2.7l1.3-1.5l4.2,1.6l-3.4,3.6l-3.9,2.9L851.1,187.4z" />
			<path d="M775.4,149.2l5.2-0.5l2.1-1.8l1.8-3.2l1.6-1.9h2.1l1.9-1.1l0.2-2.3l-1.5-2.1l-0.3-1.5
				l1.1-2.1v-1.5H788l-1.8-0.8l-0.8-1.1l-0.2-2.6l5.8-5.5l0.6-0.8l1.5-2.9l2.9-4.5l2.7-3.7l2.1-2.4l2.4-1.8l3.1-1.2l5.5-1.3l3.2,0.2
				l4.5-1.5l7.6-2.1l0.5,5l2.4,6.5l0.8,5.2l-1,3.9l2.6,4.5l0.8,2.1l-0.8,2.9l2.9,1.3l0.6,0.3l3.1,11l-0.5,5.1l-0.5,10.8l0.8,5.5
				l0.8,3.6l1.5,7.3L775.4,149.2z" />
		</g>
		<text class="NY" transform="matrix(1 0 0 1 801.9885 157.292)">NY</text>
	</g>
	<g id="PA" class="PA outer">
		<g id="PA_main" class="PA main">
			<path d="
			M819.4,217.8l1.3-0.3l2.3-1.3l1.2-2.5l1.6-2.3l3.2-3.1v-0.8l-2.4-1.6l-3.6-2.4l-1-2.6l-2.7-0.3l-0.2-1.1l-0.8-2.7l2.3-1.1l0.2-2.4
			l-1.3-1.3l0.2-1.6l1.9-3.1v-3.1l2.7-2.6l-0.9-0.7l-2.5-0.2l-2.3-1.9l-1.5-6.1l-3.5,0.1l-2.5-2.7l-18.1,4.2l-43,8.7l-8.9,1.5
			l-0.6-6.5l-5.4,5.1l-1.3,0.5l-4.2,3l2.9,19.1l2.5,9.7l3.6,19.3l3.3-0.6l11.9-1.5l37.9-7.7l14.9-2.8l8.3-1.6l0.3-0.2l2.1-1.6
			L819.4,217.8L819.4,217.8z" />
		</g>
		<g id="PA_secondary" class="PA secondary">
			<path d="
			M806.6,222.1l8.3-1.6l0.3-0.2l2.1-1.6l2.1-0.9l0,0l1.3-0.3l2.3-1.3l1.2-2.5l1.6-2.3l3.2-3.1v-0.8l-2.4-1.6l-3.6-2.4l-1-2.6
			l-2.7-0.3l-0.2-1.1l-0.8-2.7l2.3-1.1l0.2-2.4l-1.3-1.3l0.2-1.6l1.9-3.1v-3.1l2.7-2.6l-0.9-0.7l-2.5-0.2l-2.3-1.9l-1.5-6.1l-3.5,0.1
			l-2.5-2.7l-18.1,4.2l-43,8.7L806.6,222.1z" />
		</g>
		<text class="PA" transform="matrix(1 0 0 1 765.2932 209.9009)">PA</text>
	</g>
	<g id="VA" class="VA outer">
		<g id="VA_main" class="VA main">
			<path d="
			M825.9,259.2l-0.1-1.9l6.5-2.5l-0.8,3.2l-2.9,3.8l-0.4,4.6l0.5,3.4l-1.8,5l-2.2,1.9l-1.5-4.6l0.4-5.4l1.6-4.2L825.9,259.2
			L825.9,259.2z M829.2,287.5L771.1,300l-37.4,5.3l-6.7-0.4l-2.6,1.9l-7.3,0.2l-8.4,1l-10.9,1.6l10.5-5.6v-2.1l1.5-2.1l10.6-11.5
			l3.9,4.5l3.8,1l2.5-1.1l2.2-1.3l2.5,1.3l3.9-1.4l1.9-4.6l2.6,0.5l2.9-2.1l1.8,0.5l2.8-3.7l0.3-2.1l-1-1.3l1-1.9l5.3-12.3l0.6-5.7
			l1.2-0.5l2.2,2.4l3.9-0.3l1.9-7.6l2.8-0.6l1-2.7l2.6-2.3l2.8-5.7l0.1-5.1l9.8,3.8c0.7,0.3,0.8-5,0.8-5l3.7,1.6l0.1,2.9l5.8,1.3
			l2.1,1.2l1.7,2.1l-0.7,3.6l-1.9,2.6l0.1,2.1l0.6,1.9l5,1.3h4.5l3.1,1l1.9,0.3l0.7,3.1l3.2,0.4l0.9,1.2l-0.4,4.7l1.4,1.1l-0.5,1.9
			l1.2,0.8l-0.2,1.4l-2.7-0.1l0.1,1.6l2.3,1.5l0.1,1.4l1.8,1.8l0.5,2.5l-2.6,1.4l1.6,1.5l5.8-1.7L829.2,287.5L829.2,287.5z" />
		</g>
		<g id="VA_secondary" class="VA secondary">
			<path d="
			M825.9,259.2l-0.1-1.9l6.5-2.5l-0.8,3.2l-2.9,3.8l-0.4,4.6l0.5,3.4l-1.8,5l-2.2,1.9l-1.5-4.6l0.4-5.4l1.6-4.2L825.9,259.2
			L825.9,259.2z M756.8,264.3l0.6-5.7l1.2-0.5l2.2,2.4l3.9-0.3l1.9-7.6l2.8-0.6l1-2.7l2.6-2.3l2.8-5.7l0.1-5.1l9.8,3.8
			c0.7,0.3,0.8-5,0.8-5l3.7,1.6l0.1,2.9l5.8,1.3l2.1,1.2l1.7,2.1l-0.7,3.6l-1.9,2.6l0.1,2.1l0.6,1.9l5,1.3h4.5l3.1,1l1.9,0.3l0.7,3.1
			l3.2,0.4l0.9,1.2l-0.4,4.7l1.4,1.1l-0.5,1.9l1.2,0.8l-0.2,1.4l-2.7-0.1l0.1,1.6l2.3,1.5l0.1,1.4l1.8,1.8l0.5,2.5l-2.6,1.4l1.6,1.5
			l5.8-1.7l3.5,6.1l0,0l-30.4,6.5L756.8,264.3z" />
		</g>
		<text class="VA" transform="matrix(1 0 0 1 769.0342 282.5648)">VA</text>
	</g>
	<g id="WV" class="WV outer">
		<g id="WV_main" class="WV main">
			<path d="
			M755.4,232.1l1.1,4.9l1.1,6l2.1-2.6l2.3-3.1l2.5-0.6l1.5-1.5l1.8-2.6l1.4,0.6l2.9-0.3l2.6-2.1l2-1.5l1.8-0.5l1.3,1l3.6,1.8l1.9,1.8
			l1.4,1.3l-0.8,5.6l-5.8-2.5l-4.2-1.6l-0.1,5.2l-2.7,5.5l-2.5,2.4l-1.2,2.7l-2.6,0.5l-0.9,3.6l-1,3.9l-4,0.3l-2.3-2.4l-1.1,0.6
			l-0.6,5.5l-1.4,3.5l-5,11l0.9,1.2l-0.2,1.9l-2.8,3.9l-1.8-0.5l-3,2.2l-2.5-0.6l-2,4.6c0,0-3.3,1.4-3.9,1.4c-0.2,0-2.5-1.2-2.5-1.2
			l-2.3,1.4l-2.4,1l-3.7-0.9l-1.1-1.2l-2.2-3l-3.1-2l-1.7-3.6l-4.3-3.5l-0.6-2.3l-2.6-1.5l-0.8-1.6l-0.2-5.3l2.2-0.1l1.9-0.8l0.2-2.7
			l1.6-1.5l0.2-5l1-3.9l1.3-0.6l1.3,1.1l0.5,1.8l1.8-1l0.5-1.6l-1.1-1.8v-2.4l1-1.3l2.3-3.4l1.3-1.5l2.1,0.5l2.3-1.6l3.1-3.4l2.3-3.9
			l0.3-5.7l0.5-5v-4.7l-1.1-3.1l1-1.5l1.3-1.3l3.5,19.8l4.6-0.8L755.4,232.1L755.4,232.1z" />
		</g>
		<g id="WV_secondary" class="WV secondary">
			<path d="
			M722.4,245.7l1.3-1.5l2.1,0.5l2.3-1.6l3.1-3.4l2.3-3.9l0.3-5.7l0.5-5v-4.7l-1.1-3.1l1-1.5l1.3-1.3l3.5,19.8l4.6-0.8l11.8-1.4l0,0
			l1.1,4.9l1.1,6l2.1-2.6l2.3-3.1l2.5-0.6l1.5-1.5l1.8-2.6l1.4,0.6l2.9-0.3l2.6-2.1l2-1.5l1.8-0.5l1.3,1l3.6,1.8l1.9,1.8l1.4,1.3
			l-0.8,5.6l-5.8-2.5l-4.2-1.6l-0.1,5.2l-2.7,5.5l-2.5,2.4l-1.2,2.7l-2.6,0.5l-0.9,3.6l-1,3.9l-4,0.3l-2.3-2.4l-1.1,0.6l-0.6,5.5
			l-1.4,3.5L722.4,245.7z" />
		</g>
		<text class="WV" transform="matrix(1 0 0 1 719.0342 275.7466)">WV</text>
	</g>
	<g id="OH" class="OH outer">
		<g id="OH_main" class="OH main">
			<path d="
			M729.6,186.4l-6.1,4.1l-3.9,2.3l-3.4,3.7l-4,3.9l-3.2,0.8l-2.9,0.5l-5.5,2.6l-2.1,0.2l-3.4-3.1l-5.2,0.6l-2.6-1.5l-2.4-1.4
			l-4.9,0.7l-10.2,1.6l-11.2,2.2l1.3,14.6l1.8,13.7l2.6,23.4l0.6,4.8l4.1-0.1l2.4-0.8l3.4,1.5l2.1,4.4h5.1l1.9,2.1l1.8-0.1l2.5-1.3
			l2.5,0.4l5.4,0.5l1.7-2.1l2.3-1.3l2.1-0.7l0.6,2.7l1.8,1l3.5,2.3l2.2-0.1l1.3-0.5l0.2-2.8l1.6-1.5l0.1-4.8l1-4.1l1.3-0.6l1.3,1.1
			l0.5,1.7l1.7-1l0.4-1.5l-1.1-1.9l0.1-2.3l0.7-1.1l2.2-3.3l1.1-1.5l2.1,0.5l2.3-1.6l3.1-3.4l2.8-4.1l0.3-5.1l0.5-5l-0.2-5.3l-1-2.9
			l0.4-1.2l1.8-1.8l-2.3-9L729.6,186.4L729.6,186.4z" />
		</g>
		<g id="OH_secondary" class="OH secondary">
			<path d="
			M721.6,245.9l1.1-1.5l2.1,0.5l2.3-1.6l3.1-3.4l2.8-4.1l0.3-5.1l0.5-5l-0.2-5.3l-1-2.9l0.4-1.2l1.8-1.8l-2.3-9l-2.9-19.1l0,0
			l-6.1,4.1l-3.9,2.3l-3.4,3.7l-4,3.9l-3.2,0.8l-2.9,0.5l-5.5,2.6l-2.1,0.2l-3.4-3.1l-5.2,0.6l-2.6-1.5l-2.4-1.4l-4.9,0.7l-10.2,1.6
			l-11.2,2.2L721.6,245.9z" />
		</g>
		<text class="OH" transform="matrix(1 0 0 1 680.4498 235.9738)">OH</text>
	</g>
	<g id="IN" class="IN outer">
		<g id="IN_main" class="IN main">
			<path d="M613.8,293.1l0.1-2.9l0.5-4.5l2.3-2.9l1.8-3.9l2.6-4.2l-0.5-5.8l-1.8-2.7
			l-0.3-3.2l0.8-5.5l-0.5-7l-1.3-16l-1.3-15.4l-1-11.7l3.1,0.9l1.5,1l1.1-0.3l2.1-1.9l2.8-1.6l5.1-0.2l22-2.3l5.6-0.5l1.5,16
			l4.3,36.8l0.6,5.8l-0.4,2.3l1.2,1.8l0.1,1.4l-2.5,1.6l-3.5,1.6l-3.2,0.6l-0.6,4.9l-4.6,3.3l-2.8,4l0.3,2.4l-0.6,1.5H645l-1.6-1.6
			l-2.5,1.3l-2.7,1.5l0.2,3.1l-1.2,0.3l-0.5-1l-2.2-1.5l-3.3,1.3l-1.6,3l-1.4-0.8l-1.5-1.6l-4.5,0.5l-5.6,1L613.8,293.1L613.8,293.1z
			" />
		</g>
		<g id="IN_secondary" class="IN secondary">
			<path d="M617.5,234.5l-1.3-15.4l-1-11.7l3.1,0.9l1.5,1l1.1-0.3l2.1-1.9l2.8-1.6
			l5.1-0.2l22-2.3l5.6-0.5l1.5,16l4.3,36.8l0.6,5.8l-0.4,2.3l1.2,1.8l0.1,1.4l-2.5,1.6L617.5,234.5z" />
		</g>
		<text class="IN" transform="matrix(1 0 0 1 631.0408 248.4738)">IN</text>
	</g>
	<g id="IL" class="IL outer">
		<g id="IL_main" class="IL main">
			<path d="
			M613.8,293.4v-3.2l0.6-4.6l2.3-2.9l1.9-4.1l2.2-4l-0.4-5.3l-2-3.5l-0.1-3.3l0.7-5.3l-0.8-7.2l-1.1-15.8l-1.3-15l-0.9-11.6l-0.3-0.9
			l-0.8-2.6l-1.3-3.7l-1.6-1.8l-1.5-2.6l-0.2-5.5l-45.8,2.6l0.2,2.4l2.3,0.7l0.9,1.1l0.5,1.8l3.9,3.4l0.7,2.3l-0.7,3.4l-1.8,3.7
			l-0.7,2.5l-2.3,1.8l-1.8,0.7l-5.3,1.4l-0.7,1.8l-0.7,2.1l0.7,1.4l1.8,1.6l-0.2,4.1l-1.8,1.6l-0.7,1.6v2.7l-1.8,0.5l-1.6,1.1
			l-0.2,1.4l0.2,2.1l-1.7,1.3l-1,2.8l0.5,3.7l2.3,7.3l7.3,7.5l5.5,3.7l-0.2,4.3l0.9,1.4l6.4,0.5l2.7,1.4l-0.7,3.7l-2.3,5.9l-0.7,3.2
			l2.3,3.9l6.4,5.3l4.6,0.7l2.1,5l2.1,3.2l-0.9,3l1.6,4.1l1.8,2.1l1.4-0.9l0.9-2.1l2.2-1.7l2.1-0.6l2.6,1.2l3.6,1.4l1.2-0.3l0.2-2.3
			l-1.3-2.4l0.3-2.4l1.8-1.3l3-0.8l1.3-0.5L612,300l-0.8-2.4l1.4-1L613.8,293.4L613.8,293.4z" />
		</g>
		<g id="IL_secondary" class="IL secondary">
			<path d="
			M620.8,274.6l-0.4-5.3l-2-3.5l-0.1-3.3l0.7-5.3l-0.8-7.2l-1.1-15.8l-1.3-15l-0.9-11.6l-0.3-0.9l-0.8-2.6l-1.3-3.7l-1.6-1.8
			l-1.5-2.6l-0.2-5.5l-45.8,2.6l0.2,2.4l2.3,0.7l0.9,1.1l0.5,1.8l3.9,3.4l0.7,2.3l-0.7,3.4l-1.8,3.7l-0.7,2.5l-2.3,1.8l-1.8,0.7
			l-5.3,1.4l-0.7,1.8l-0.7,2.1l0.7,1.4l1.8,1.6l-0.2,4.1l-1.8,1.6L620.8,274.6z" />
		</g>
		<text class="IL" transform="matrix(1 0 0 1 582.4171 252.4949)">IL</text>
	</g>
	<g id="WI" class="WI outer">
		<g id="WI_main" class="WI main">
			<path d="
			M609.3,190.5l-0.1-3.2l-1.2-4.5l-0.6-6.1l-1.1-2.4l1-3.1l0.8-2.9l1.5-2.6l-0.6-3.4l-0.6-3.6l0.5-1.8l1.9-2.4l0.2-2.7l-0.8-1.3
			l0.6-2.6l-0.5-4.2l2.7-5.7l2.9-6.8l0.2-2.3l-0.3-1l-0.8,0.5l-4.2,6.3l-2.7,4l-1.9,1.8l-0.8,2.3l-2,0.8l-1.1,1.9l-1.5-0.3l-0.2-1.8
			l1.3-2.4l2.1-4.7l1.8-1.6l1-2.4l-2.6-1.9l-2-10.4l-3.5-1.3l-1.9-2.3l-12.1-2.7l-2.9-1l-8.2-2.2l-7.9-1.2l-3.8-5.1l-0.8,0.6
			l-1.2-0.2l-0.6-1.1l-1.3,0.3l-1.1,0.2l-1.8,1l-1-0.6l0.6-1.9l1.9-3.1l1.1-1.1l-1.9-1.5l-2.1,0.8l-2.9,1.9l-7.4,3.2l-2.9,0.6
			l-2.9-0.5l-1-0.9l-2.1,2.8l-0.2,2.7v8.5l-1.1,1.6l-5.3,3.9l-2.3,5.9l0.5,0.2l2.5,2.1l0.7,3.2l-1.8,3.2v3.9l0.5,6.6l3,3h3.4l1.8,3.2
			l3.4,0.5l3.9,5.7l7.1,4.1l2.1,2.7l0.9,7.4l0.7,3.3l2.3,1.6l0.2,1.4l-2.1,3.4l0.2,3.2l2.5,3.9l2.5,1.1l3,0.5l1.3,1.4L609.3,190.5
			L609.3,190.5z" />
		</g>
		<g id="WI_secondary" class="WI secondary">
			<path d="
			M608.1,168.3l1.5-2.6l-0.6-3.4l-0.6-3.6l0.5-1.8l1.9-2.4l0.2-2.7l-0.8-1.3l0.6-2.6l-0.5-4.2l2.7-5.7l2.9-6.8l0.2-2.3l-0.3-1
			l-0.8,0.5l-4.2,6.3l-2.7,4l-1.9,1.8l-0.8,2.3l-2,0.8l-1.1,1.9l-1.5-0.3l-0.2-1.8l1.3-2.4l2.1-4.7l1.8-1.6l1-2.4l-2.6-1.9l-2-10.4
			l-3.5-1.3l-1.9-2.3l-12.1-2.7l-2.9-1l-8.2-2.2l-7.9-1.2l-3.8-5.1l-0.8,0.6l-1.2-0.2l-0.6-1.1l-1.3,0.3l-1.1,0.2l-1.8,1l-1-0.6
			l0.6-1.9l1.9-3.1l1.1-1.1l-1.9-1.5l-2.1,0.8l-2.9,1.9l-7.4,3.2l-2.9,0.6l-2.9-0.5l-1-0.9l-2.1,2.8l-0.2,2.7v8.5l-1.1,1.6l-5.3,3.9
			l-2.3,5.9l0.5,0.2L608.1,168.3z" />
		</g>
		<text class="WI" transform="matrix(1 0 0 1 560.8589 157.292)">WI</text>
	</g>
	<g id="NC" class="NC outer">
		<g id="NC_main" class="NC main">
			<path d="
			M829.2,287.4l2.1,4.9l3.6,6.5l2.4,2.4l0.6,2.3l-2.4,0.2l0.8,0.6l-0.3,4.2l-2.6,1.3l-0.6,2.1l-1.3,2.9l-3.7,1.6l-2.4-0.3l-1.5-0.2
			l-1.6-1.3l0.3,1.3v1h1.9l0.8,1.3l-1.9,6.3h4.2l0.6,1.6l2.3-2.3l1.3-0.5l-1.9,3.6l-3.1,4.8h-1.3l-1.1-0.5l-2.7,0.6l-5.2,2.4
			l-6.5,5.3l-3.4,4.7l-1.9,6.5l-0.5,2.4l-4.7,0.5l-5.5,1.3l-9.9-8.2l-12.6-7.6l-2.9-0.8l-12.6,1.5l-4.3,0.8l-1.6-3.2l-3-2.1
			l-16.5,0.5l-7.3,0.8l-9.1,4.5l-6.1,2.6l-21.2,2.6l0.5-4.1l1.8-1.5l2.7-0.6l0.6-3.7l4.2-2.7l3.9-1.5l4.2-3.6l4.4-2.1l0.6-3.1
			l3.9-3.9l0.6-0.2c0,0,0,1.1,0.8,1.1s1.9,0.3,1.9,0.3l2.3-3.6l2.1-0.6l2.3,0.3l1.6-3.6l2.9-2.6l0.5-2.1l0.2-3.6h4.3l7.2-0.9
			l15.8-2.3l15.1-2.1l21.6-4.7l20-4.3l11.2-2.4L829.2,287.4L829.2,287.4z M833.5,320.6l2.6-2.5l3.2-2.6l1.5-0.6l0.2-2l-0.6-6.1
			l-1.5-2.3l-0.6-1.9l0.7-0.2l2.7,5.5l0.4,4.4l-0.2,3.4l-3.4,1.5l-2.8,2.4l-1.1,1.2L833.5,320.6L833.5,320.6z" />
		</g>
		<g id="NC_secondary" class="NC secondary">
			<path d="
			M756.2,301.7l15.1-2.1l21.6-4.7l20-4.3l11.2-2.4l5.1-0.8l0,0l2.1,4.9l3.6,6.5l2.4,2.4l0.6,2.3l-2.4,0.2l0.8,0.6l-0.3,4.2l-2.6,1.3
			l-0.6,2.1l-1.3,2.9l-3.7,1.6l-2.4-0.3l-1.5-0.2l-1.6-1.3l0.3,1.3v1h1.9l0.8,1.3l-1.9,6.3h4.2l0.6,1.6l2.3-2.3l1.3-0.5l-1.9,3.6
			l-3.1,4.8h-1.3l-1.1-0.5l-2.7,0.6l-5.2,2.4l-6.5,5.3l-3.4,4.7L756.2,301.7z M833.5,320.6l2.6-2.5l3.2-2.6l1.5-0.6l0.2-2l-0.6-6.1
			l-1.5-2.3l-0.6-1.9l0.7-0.2l2.7,5.5l0.4,4.4l-0.2,3.4l-3.4,1.5l-2.8,2.4l-1.1,1.2L833.5,320.6L833.5,320.6z" />
		</g>
		<text class="NC" transform="matrix(1 0 0 1 771.2478 326.9463)">NC</text>
	</g>
	<g id="TN" class="TN outer">
		<g id="TN_main" class="TN main">
			<path d="
			M690.9,311.3l-51.9,5l-15.8,1.8l-4.6,0.5h-3.9l-0.2,4.1l-8.2,0.3l-7,0.6l-8.1-0.1l-1.4,7.1l-1.7,5.5l-3.3,2.8l-1.3,4.4l-0.3,2.6
			l-4,2.3l1.5,3.6l-1,4.4l-1,0.8l108.2-10.4l0.4-4l1.8-1.5l2.8-0.7l0.7-3.7l4.1-2.7l4-1.5l4.1-3.6l4.4-2l0.5-3.1l4.1-4l0.6-0.1
			c0,0,0,1.1,0.8,1.1s1.9,0.4,1.9,0.4l2.3-3.6l2.1-0.6l2.3,0.3l1.6-3.5l3-2.6l0.4-1.9l0.3-3.7l-2.1-0.2l-2.6,2h-7l-18.4,2.4
			L690.9,311.3L690.9,311.3z" />
		</g>
		<g id="TN_secondary" class="TN secondary">
			<path d="
			M663.8,348.8l23.1-2.2l0.4-4l1.8-1.5l2.8-0.7l0.7-3.7l4.1-2.7l4-1.5l4.1-3.6l4.4-2l0.5-3.1l4.1-4l0.6-0.1c0,0,0,1.1,0.8,1.1
			s1.9,0.4,1.9,0.4l2.3-3.6l2.1-0.6l2.3,0.3l1.6-3.5l3-2.6l0.4-1.9l0.3-3.7l-2.1-0.2l-2.6,2h-7l-18.4,2.4l-8.1,1.5l0,0l-51.9,5
			L663.8,348.8z" />
		</g>
		<text class="TN" transform="matrix(1 0 0 1 637.2681 341.3829)">TN</text>
	</g>
	<g id="AR" class="AR outer">
		<g id="AR_main" class="AR main">
			<path d="M588.1,336.1
			l-4,0.7l-5.1-0.6l0.4-1.6l3-2.6l0.9-3.7l-1.8-3l-78.4,2.5l1.6,6.9v8.2l1.4,11l0.2,37.8l2.3,1.9l3-1.4l2.7,1.1l0.7,6.6l55.6-1.1
			l1.1-2.1l-0.3-3.5l-1.8-3l1.6-1.5l-1.6-2.5l0.7-2.5l1.4-5.6l2.5-2.1l-0.7-2.3l3.7-5.4l2.7-1.4l-0.1-1.5l-0.3-1.8l2.9-5.6l2.4-1.3
			l0.4-3.4l1.8-1.2l-3.1-0.5l-1.3-4l2.8-2.4l0.6-2l1.3-4L588.1,336.1L588.1,336.1z" />
		</g>
		<g id="AR_secondary" class="AR secondary">
			<path d="M553.1,399.1
			l17.5-0.3l1.1-2.1l-0.3-3.5l-1.8-3l1.6-1.5l-1.6-2.5l0.7-2.5l1.4-5.6l2.5-2.1l-0.7-2.3l3.7-5.4l2.7-1.4l-0.1-1.5l-0.3-1.8l2.9-5.6
			l2.4-1.3l0.4-3.4l1.8-1.2l-3.1-0.5l-1.3-4l2.8-2.4l0.6-2l1.3-4l0.8-3.1l0,0l-4,0.7l-5.1-0.6l0.4-1.6l3-2.6l0.9-3.7l-1.8-3
			l-54.2,1.7L553.1,399.1z" />
		</g>
		<text class="AR" transform="matrix(1 0 0 1 530.121 370.5162)">AR</text>
	</g>
	<g id="MO" class="MO outer">
		<g id="MO_main" class="MO main">
			<path d="
			M552.7,241.2l-2.5-3.1l-1.1-2.3l-64.4,2.4l-2.3,0.1l1.3,2.5l-0.2,2.3l2.5,3.9l3.1,4.1l3.1,2.7l2.2,0.2l1.5,0.9v3l-1.8,1.6l-0.5,2.3
			l2.1,3.4l2.5,3l2.5,1.8l1.4,11.7l0.3,36.1l0.2,4.7l0.5,5.4l22.4-0.9l23.2-0.7l20.8-0.8l11.7-0.2l2.2,3.4l-0.7,3.3l-3.1,2.4
			l-0.6,1.8l5.4,0.5l3.9-0.7l1.7-5.5l0.7-5.9l2.1-2.6l2.6-1.5l0.1-3.1l1-1.9l-1.7-2.5l-1.3,1l-2-2.2l-1.3-4.8l0.8-2.5l-1.9-3.4
			l-1.8-4.6l-4.8-0.8l-7-5.6l-1.7-4.1l0.8-3.2l2.1-6.1l0.5-2.9l-1.9-1l-6.9-0.8l-1-1.7l-0.1-4.2l-5.5-3.4l-7-7.8l-2.3-7.3l-0.2-4.2
			L552.7,241.2L552.7,241.2z" />
		</g>
		<g id="MO_secondary" class="MO secondary">
			<path d="
			M548.7,326.3l20.8-0.8l11.7-0.2l2.2,3.4l-0.7,3.3l-3.1,2.4l-0.6,1.8l5.4,0.5l3.9-0.7l1.7-5.5l0.7-5.9l2.1-2.6l2.6-1.5l0.1-3.1
			l1-1.9l-1.7-2.5l-1.3,1l-2-2.2l-1.3-4.8l0.8-2.5l-1.9-3.4l-1.8-4.6l-4.8-0.8l-7-5.6l-1.7-4.1l0.8-3.2l2.1-6.1l0.5-2.9l-1.9-1
			l-6.9-0.8l-1-1.7l-0.1-4.2l-5.5-3.4l-7-7.8l-2.3-7.3l-0.2-4.2l0.4-2.2l0,0l-2.5-3.1l-1.1-2.3l-34.3,1.3L548.7,326.3z" />
		</g>
		<text class="MO" transform="matrix(1 0 0 1 520.6474 294.2332)">MO</text>
	</g>
	<g id="GA" class="GA outer">
		<g id="GA_main" class="GA main">
			<path d="
			M666.5,348.6v2.2l0.2,2.1l0.6,3.4l3.4,7.9l2.4,9.9l1.5,6.1l1.6,4.8l1.5,7l2.1,6.3l2.6,3.4l0.5,3.4l1.9,0.8l0.2,2.1l-1.8,4.8
			l-0.5,3.2l-0.2,1.9l1.6,4.4l0.3,5.3l-0.8,2.4l0.6,0.8l1.5,0.8l0.2,3.2l2.2,3.3l2.3,2.2l7.9,0.2l10.8-0.6l21.5-1.3l5.4-0.7h4.6
			l0.2,2.9l2.6,0.8l0.3-4.4l-1.6-4.5l1.1-1.6l5.8,0.8l5,0.3l-0.8-6.3l2.3-10l1.5-4.2l-0.5-2.6l3.3-6.2l-0.5-1.4l-1.9,0.7l-2.6-1.3
			l-0.6-2.1l-1.3-3.6l-2.3-2.1l-2.6-0.6l-1.6-4.8l-2.9-6.3l-4.2-1.9l-2.1-1.9l-1.3-2.6l-2.1-1.9l-2.3-1.3l-2.3-2.9l-3.1-2.3l-4.5-1.8
			l-0.5-1.5l-2.4-2.9l-0.5-1.5l-3.4-5l-3.5,0.1l-3.8-2.4l-1.4-1.3l-0.3-1.8l0.9-1.9l2.2-1.1l-0.6-2.1L666.5,348.6L666.5,348.6z" />
		</g>
		<g id="GA_secondary" class="GA secondary">
			<path d="
			M730.6,438.6l5.4-0.7h4.6l0.2,2.9l2.6,0.8l0.3-4.4l-1.6-4.5l1.1-1.6l5.8,0.8l5,0.3l-0.8-6.3l2.3-10l1.5-4.2l-0.5-2.6l3.3-6.2
			l-0.5-1.4l-1.9,0.7l-2.6-1.3l-0.6-2.1l-1.3-3.6l-2.3-2.1l-2.6-0.6l-1.6-4.8l-2.9-6.3l-4.2-1.9l-2.1-1.9l-1.3-2.6l-2.1-1.9l-2.3-1.3
			l-2.3-2.9l-3.1-2.3l-4.5-1.8l-0.5-1.5l-2.4-2.9l-0.5-1.5l-3.4-5l-3.5,0.1l-3.8-2.4l-1.4-1.3l-0.3-1.8l0.9-1.9l2.2-1.1l-0.6-2.1
			l-24.3,3L730.6,438.6z" />
		</g>
		<text class="GA" transform="matrix(1 0 0 1 696.2501 397.9355)">GA</text>
	</g>
	<g id="SC" class="SC outer">
		<g id="SC_main" class="SC main">
			<path d="
			M759.2,401.3l-1.8,1l-2.6-1.3l-0.6-2.1l-1.3-3.6l-2.3-2.1l-2.6-0.6l-1.6-4.8l-2.7-6l-4.2-1.9l-2.1-1.9l-1.3-2.6l-2.1-1.9l-2.3-1.3
			l-2.3-2.9l-3.1-2.3l-4.5-1.8l-0.5-1.5l-2.4-2.9l-0.5-1.5l-3.4-5.2l-3.4,0.2l-4-2.4l-1.3-1.3l-0.3-1.8l0.8-1.9l2.3-1l-0.5-2.3
			l5.8-2.3l9.1-4.6l7.8-0.8l16.1-0.4l2.6,1.9l1.7,3.4l4.3-0.6l12.6-1.5l2.9,0.8l12.6,7.6l10.1,8.1l-5.4,5.5l-2.6,6.1l-0.5,6.3
			l-1.6,0.8l-1.1,2.7l-2.4,0.6l-2.1,3.6l-2.7,2.7l-2.3,3.4l-1.6,0.8l-3.6,3.4l-2.9,0.2l1,3.2l-5,5.5L759.2,401.3L759.2,401.3z" />
		</g>
		<g id="SC_secondary" class="SC secondary">
			<path d="
			M740.5,335.7l6.9-0.2l2.6,1.9l1.7,3.4l4.3-0.6l12.6-1.5l2.9,0.8l12.6,7.6l10.1,8.1l-5.4,5.5l-2.6,6.1l-0.5,6.3l-1.6,0.8l-1.1,2.7
			l-2.4,0.6l-2.1,3.6l-2.7,2.7l-2.3,3.4l-1.6,0.8L740.5,335.7z" />
		</g>
		<text class="SC" transform="matrix(1 0 0 1 743.0243 370.5162)">SC</text>
	</g>
	<g id="KY" class="KY outer">
		<g id="KY_main" class="KY main">
			<path d="
			M720.2,288.4l-2.3,2.4l-3.6,4l-4.9,5.5l-1.2,1.7l-0.1,2.1l-4.4,2.2l-5.7,3.4l-7.2,1.8l-51.9,4.9l-15.8,1.8l-4.6,0.5h-3.9l-0.2,4.2
			l-8.2,0.1l-7,0.6l-8-0.1l1.2-1.3l2.5-1.5l0.2-3.2l0.9-1.8l-1.6-2.5l0.8-1.9l2.3-1.8l2.1-0.6l2.7,1.3l3.6,1.3l1.1-0.3l0.2-2.3
			l-1.3-2.4l0.3-2.3l1.9-1.5l2.6-0.6l1.6-0.6l-0.8-1.8l-0.6-1.9l1.5-1c0,0,1.3-3.5,1.2-3.7l3.1-1.5l5.3-1l4.5-0.5l1.4,1.6l1.5,0.9
			l1.6-3.1l3.2-1.3l2.2,1.5l0.4,1l1.2-0.3l-0.2-3l3.1-1.7l2.1-1.1l1.5,1.7h3.3l0.6-1.6l-0.4-2.3l2.6-4l4.8-3.4l0.7-4.8l2.9-0.5
			l3.8-1.6l2.4-1.7l-0.2-1.6l-1.1-1.5l0.6-3l4.2-0.1l2.3-0.7l3.3,1.4l2.1,4.4h5.1l2.1,2.2l1.6-0.1l2.6-1.3l5.2,0.6l2.6,0.2l1.7-2.1
			l2.6-1.4l1.9-0.7l0.6,2.8l2,1.1l2.6,2.1l0.1,5.7l0.8,1.6l2.6,1.6l0.8,2.3l4.2,3.4l1.8,3.6L720.2,288.4L720.2,288.4z" />
		</g>
		<g id="KY_secondary" class="KY secondary">
			<path d="
			M640.9,285.7l2.1-1.1l1.5,1.7h3.3l0.6-1.6l-0.4-2.3l2.6-4l4.8-3.4l0.7-4.8l2.9-0.5l3.8-1.6l2.4-1.7l-0.2-1.6l-1.1-1.5l0.6-3
			l4.2-0.1l2.3-0.7l3.3,1.4l2.1,4.4h5.1l2.1,2.2l1.6-0.1l2.6-1.3l5.2,0.6l2.6,0.2l1.7-2.1l2.6-1.4l1.9-0.7l0.6,2.8l2,1.1l2.6,2.1
			l0.1,5.7l0.8,1.6l2.6,1.6l0.8,2.3l4.2,3.4l1.8,3.6l2.9,1.5l0,0l-2.3,2.4l-3.6,4l-4.9,5.5l-1.2,1.7l-0.1,2.1l-4.4,2.2l-5.7,3.4
			l-7.2,1.8l-21.4,2L640.9,285.7z" />
		</g>
		<text class="KY" transform="matrix(1 0 0 1 662.8589 299.6102)">KY</text>
	</g>
	<g id="AL" class="AL outer">
		<g id="AL_main" class="AL main">
			<path d="
			M625.6,453.5l-1.5-14.3l-2.7-18.8l0.2-14.1l0.8-31l-0.2-16.7l0.2-6.4l15-1.2l29.5-2.4l-0.1,2.2l0.2,2.1l0.6,3.4l3.4,7.9l2.4,9.9
			l1.5,6.1l1.6,4.8l1.5,7l2.1,6.3l2.6,3.4l0.5,3.4l1.9,0.8l0.2,2.1l-1.8,4.8L683,416l-0.2,1.9l1.6,4.4l0.3,5.3l-0.8,2.4l0.6,0.8
			l1.5,0.8l0.3,2.9l-5.6-0.4l-6.8,0.6l-7.4,0.8l-18.1,2.1L638,439l-0.2,2.9l1.8,1.8l2.6,1.9l0.6,7.9l-5.5,2.6l-2.7-0.3l2.7-1.9v-1
			l-3.1-6l-2.3-0.6l-1.5,4.4l-1.3,2.7l-0.6-0.2L625.6,453.5L625.6,453.5z" />
		</g>
		<g id="AL_secondary" class="AL secondary">
			<path d="
			M637.4,351l29.5-2.4l-0.1,2.2l0.2,2.1l0.6,3.4l3.4,7.9l2.4,9.9l1.5,6.1l1.6,4.8l1.5,7l2.1,6.3l2.6,3.4l0.5,3.4l1.9,0.8l0.2,2.1
			l-1.8,4.8L683,416l-0.2,1.9l1.6,4.4l0.3,5.3l-0.8,2.4l0.6,0.8l1.5,0.8l0.3,2.9l-5.6-0.4l-6.8,0.6l-7.4,0.8L637.4,351z" />
		</g>
		<text class="AL" transform="matrix(1 0 0 1 638.1855 402.7743)">AL</text>
	</g>
	<g id="LA" class="LA outer">
		<g id="LA_main" class="LA main">
			<path d="
			M602.2,452.3l-3.3-3.2l1-5.5l-0.7-0.9l-9.3,1l-25,0.5l-0.7-2.4l0.9-8.5l3.3-5.9l5-8.7l-0.6-2.4l1.3-0.7l0.5-2l-2.3-2.1l-0.1-1.9
			l-1.8-4.3l-0.1-6.3l-55.5,0.9v9.6l0.7,9.4l0.7,3.9l2.5,4.1l0.9,5l4.3,5.5l0.2,3.2l0.7,0.7l-0.7,8.5l-3,5l1.6,2.1l-0.7,2.5l-0.7,7.3
			l-1.4,3.2l0.1,3.6l4.7-1.5l12.1,0.2l10.3,3.6l6.5,1.1l3.7-1.5l3.2,1.1l3.2,1l0.8-2.1l-3.2-1.1l-2.6,0.5l-2.7-1.6
			c0,0,0.2-1.3,0.8-1.5s3.1-1,3.1-1l1.8,1.5l1.8-1l3.2,0.6l1.5,2.4l0.3,2.3l4.5,0.3l1.8,1.8l-0.8,1.6l-1,0.8l1.6,1.6l8.4,3.6l3.6-1.3
			l1-2.4l2.6-0.6l1.8-1.5l1.3,1l0.8,2.9l-2.3,0.8l0.6,0.6l3.4-1.3l2.3-3.4l0.8-0.5l-2.1-0.3l0.8-1.6l-0.2-1.5l2.1-0.5l1.1-1.3
			l0.6,0.8c0,0-0.2,3.1,0.6,3.1s4.2,0.6,4.2,0.6l4,1.9l1,1.5h2.9l1.1,1l2.3-3.1v-1.5H616l-3.4-2.7l-5.8-0.8l-3.2-2.3l1.1-2.7l2.3,0.3
			l0.2-0.6l-1.8-1v-0.5h3.2l1.8-3.1l-1.3-1.9l-0.3-2.7l-1.5,0.2l-1.9,2.1l-0.6,2.6l-3.1-0.6l-1-1.8l1.8-1.9l1.9-3.4l-1.1-2.4
			L602.2,452.3L602.2,452.3z" />
		</g>
		<g id="LA_secondary" class="LA secondary">
			<path d="
			M573,476.8l1.8,1.8l-0.8,1.6l-1,0.8l1.6,1.6l8.4,3.6l3.6-1.3l1-2.4l2.6-0.6l1.8-1.5l1.3,1l0.8,2.9l-2.3,0.8l0.6,0.6l3.4-1.3
			l2.3-3.4l0.8-0.5l-2.1-0.3l0.8-1.6l-0.2-1.5l2.1-0.5l1.1-1.3l0.6,0.8c0,0-0.2,3.1,0.6,3.1s4.2,0.6,4.2,0.6l4,1.9l1,1.5h2.9l1.1,1
			l2.3-3.1v-1.5H616l-3.4-2.7l-5.8-0.8l-3.2-2.3l1.1-2.7l2.3,0.3l0.2-0.6l-1.8-1v-0.5h3.2l1.8-3.1l-1.3-1.9l-0.3-2.7l-1.5,0.2
			l-1.9,2.1l-0.6,2.6l-3.1-0.6l-1-1.8l1.8-1.9l1.9-3.4l-1.1-2.4l-1.1-4.1l0,0l-3.3-3.2l1-5.5l-0.7-0.9l-9.3,1l-25,0.5l-0.7-2.4
			l0.9-8.5l3.3-5.9l5-8.7l-0.6-2.4l1.3-0.7l0.5-2l-2.3-2.1l-0.1-1.9l-1.8-4.3l-0.1-6.3l-32.7,0.5L573,476.8z" />
		</g>
		<text class="LA" transform="matrix(1 0 0 1 531.7339 446.3227)">LA</text>
	</g>
	<g id="MS" class="MS outer">
		<g id="MS_main" class="MS main">
			<path d="
			M625.8,452.4l-0.3,1.3h-5.2l-1.5-0.8l-2.1-0.3l-6.8,1.9l-1.8-0.8l-2.6,4.2l-1.1,0.8l-1.1-2.5l-1.1-3.9l-3.4-3.2l1.1-5.5l-0.7-0.9
			l-1.8,0.2l-7.9,0.9l-24.5,0.4l-0.8-2.2l0.9-8.4l3.1-5.7l5.2-9.1l-0.4-2.4l1.2-0.7l0.4-1.9l-2.3-2.1l-0.1-2.1l-1.8-4.1l-0.1-6
			l1.3-2.5l-0.2-3.4l-1.8-3.1l1.5-1.5l-1.6-2.5l0.5-1.7l1.6-6.5l2.5-2l-0.6-2.4l3.7-5.3l2.8-1.4l-0.2-1.7l-0.3-1.7l2.9-5.6l2.3-1.2
			l0.2-0.9l37.3-3.9l0.2,6.3l0.2,16.7l-0.8,31l-0.2,14.1l2.7,18.8L625.8,452.4L625.8,452.4z" />
		</g>
		<g id="MS_secondary" class="MS secondary">
			<path d="
			M584.7,357l0.2-0.9l37.3-3.9l0.2,6.3l0.2,16.7l-0.8,31l-0.2,14.1l2.7,18.8l1.5,13.3l0,0l-0.3,1.3h-5.2l-1.5-0.8l-2.1-0.3L584.7,357
			z" />
		</g>
		<text class="MS" transform="matrix(1 0 0 1 583.7339 407.613)">MS</text>
	</g>
	<g id="IA" class="IA outer">
		<g id="IA_main" class="IA main">
			<path d="
			M563.4,192.7l0.3,2.8l2.2,0.6l1,1.2l0.5,1.9l3.8,3.4l0.7,2.4l-0.7,3.4l-1.6,3.2l-0.8,2.7l-2.2,1.6l-1.7,0.6l-5.6,1.9l-1.4,3.8
			l0.7,1.4l1.8,1.7l-0.3,4l-1.8,1.5l-0.8,1.6l0.1,2.8l-1.9,0.5l-1.6,1.1l-0.3,1.4l0.3,2.1l-1.6,1.1l-2.5-3.1l-1.3-2.4l-65.7,2.5
			l-0.9,0.2l-2.1-4.5l-0.2-6.6l-1.6-4.1l-0.7-5.3l-2.3-3.7l-0.9-4.8l-2.7-7.5l-1.1-5.4l-1.4-2.2l-1.6-2.7l2-4.8l1.4-5.7l-2.7-2.1
			l-0.5-2.7l0.9-2.5h1.7l82.7-1.3l0.8,4.2l2.3,1.6l0.3,1.4l-2,3.4l0.2,3.2l2.5,3.8l2.5,1.3l3.1,0.5L563.4,192.7L563.4,192.7z" />
		</g>
		<g id="IA_secondary" class="IA secondary">
			<path d="
			M497.8,173.6l55.2-0.9l0.8,4.2l2.3,1.6l0.3,1.4l-2,3.4l0.2,3.2l2.5,3.8l2.5,1.3l3.1,0.5l0.7,0.6l0,0l0.3,2.8l2.2,0.6l1,1.2l0.5,1.9
			l3.8,3.4l0.7,2.4l-0.7,3.4l-1.6,3.2l-0.8,2.7l-2.2,1.6l-1.7,0.6l-5.6,1.9l-1.4,3.8l0.7,1.4l1.8,1.7l-0.3,4l-1.8,1.5l-0.8,1.6
			l0.1,2.8l-1.9,0.5l-1.6,1.1l-0.3,1.4l0.3,2.1l-1.6,1.1l-2.5-3.1l-1.3-2.4l-15.3,0.6L497.8,173.6z" />
		</g>
		<text class="IA" transform="matrix(1 0 0 1 504.3145 212.4517)">IA</text>
	</g>
	<g id="MN" class="MN outer">
		<g id="MN_main" class="MN main">
			<path d="
			M469.5,121.9l-0.5-8.5l-1.8-7.3l-1.8-13.5l-0.5-9.8l-1.8-3.4l-1.6-5V64.1l0.7-3.9l-1.8-5.5h30.1l0.3-8.2l0.6-0.2l2.3,0.5l1.9,0.8
			l0.8,5.5l1.5,6.1l1.6,1.6h4.8l0.3,1.5l6.3,0.3v2.1h4.8l0.3-1.3l1.1-1.1l2.3-0.6l1.3,1h2.9l3.9,2.6l5.3,2.4l2.4,0.5l0.5-1l1.5-0.5
			l0.5,2.9l2.6,1.3l0.5-0.5l1.3,0.2v2.1l2.6,1h3.1l1.6-0.8l3.2-3.2l2.6-0.5L556,71l0.5,1.3h1l1-0.8l8.9-0.3l1.8,3.1h0.6l0.7-1.1
			l4.4-0.4l-0.6,2.3l-3.9,1.8l-9.2,4.1l-4.8,2l-3.1,2.6l-2.4,3.6l-2.3,3.9l-1.8,0.8l-4.5,5l-1.3,0.2l-4.3,2.8l-2.5,3.2l-0.2,3.2
			l0.1,8l-1.4,1.7l-5.1,3.8l-2.2,6l2.9,2.2l0.7,3.2l-1.9,3.2l0.2,3.7l0.4,6.7l3,3h3.3l1.9,3.1l3.4,0.5l3.9,5.7l7.1,4.1l2.1,2.9
			l0.7,6.4l-81.2,1.1l-0.3-35.7l-0.5-3l-4.1-3.4l-1.1-1.8v-1.6l2.1-1.6l1.4-1.4L469.5,121.9L469.5,121.9z" />
		</g>
		<g id="MN_secondary" class="MN secondary">
			<path d="
			M484.2,54.7h6.3l0.3-8.2l0.6-0.2l2.3,0.5l1.9,0.8l0.8,5.5l1.5,6.1l1.6,1.6h4.8l0.3,1.5l6.3,0.3v2.1h4.8l0.3-1.3l1.1-1.1l2.3-0.6
			l1.3,1h2.9l3.9,2.6l5.3,2.4l2.4,0.5l0.5-1l1.5-0.5l0.5,2.9l2.6,1.3l0.5-0.5l1.3,0.2v2.1l2.6,1h3.1l1.6-0.8l3.2-3.2l2.6-0.5L556,71
			l0.5,1.3h1l1-0.8l8.9-0.3l1.8,3.1h0.6l0.7-1.1l4.4-0.4l-0.6,2.3l-3.9,1.8l-9.2,4.1l-4.8,2l-3.1,2.6l-2.4,3.6l-2.3,3.9l-1.8,0.8
			l-4.5,5l-1.3,0.2l-4.3,2.8l-2.5,3.2l-0.2,3.2l0.1,8l-1.4,1.7l-5.1,3.8l-2.2,6l2.9,2.2l0.7,3.2l-1.9,3.2l0.2,3.7l0.4,6.7l3,3h3.3
			l1.9,3.1l3.4,0.5l3.9,5.7l7.1,4.1l2.1,2.9l0.7,6.4l-31.2,0.4L484.2,54.7z" />
		</g>
		<text class="MN" transform="matrix(1 0 0 1 483.3468 126.9678)">MN</text>
	</g>
	<g id="OK" class="OK outer">
		<g id="OK_main" class="OK main">
			<path d="
			M374.6,313.9l-16.7-1.3l-0.9,11l20.5,1.2l32.1,1.3l-2.3,24.4l-0.5,17.8l0.2,1.6l4.3,3.7l2.1,1.1l0.7-0.2l0.7-2.1l1.4,1.8h2.1v-1.4
			l2.7,1.4l-0.5,3.9l4.1,0.2l2.5,1.1l4.1,0.7l2.5,1.8l2.3-2.1l3.4,0.7l2.5,3.4h0.9v2.3l2.3,0.7l2.3-2.3l1.8,0.7h2.5l0.9,2.5l6.3,2.1
			l1.4-0.7l1.8-4.1h1.1l1.1,2.1l4.1,0.7l3.7,1.4l3,0.9l1.8-0.9l0.7-2.5h4.3l2.1,0.9l2.7-2.1h1.1l0.7,1.6h4.1l1.6-2.1l1.8,0.5l2.1,2.5
			l3.2,1.8l3.2,0.9l1.9,1.1l-0.4-37.2l-1.4-11l-0.2-8.9l-1.4-6.5l-0.8-7.2l-0.1-3.8l-12.1,0.3l-46.4-0.5l-45-2.1L374.6,313.9
			L374.6,313.9z" />
		</g>
		<g id="OK_secondary" class="OK secondary">
			<path d="
			M459,390l1.4-0.7l1.8-4.1h1.1l1.1,2.1l4.1,0.7l3.7,1.4l3,0.9l1.8-0.9l0.7-2.5h4.3l2.1,0.9l2.7-2.1h1.1l0.7,1.6h4.1l1.6-2.1l1.8,0.5
			l2.1,2.5l3.2,1.8l3.2,0.9l1.9,1.1l-0.4-37.2l-1.4-11l-0.2-8.9l-1.4-6.5l-0.8-7.2l-0.1-3.8l-12.1,0.3l-46.4-0.5l-20.9-1L459,390z" />
		</g>
		<text class="OK" transform="matrix(1 0 0 1 444.6371 357.613)">OK</text>
	</g>
	<g id="TX" class="TX outer">
		<g id="TX_main" class="TX main">
			<path d="
			M355.7,323.7l22.7,1.1l31.1,1.1l-2.3,23.5l-0.3,18.2l0.1,2.1l4.3,3.8l2,1.4l1.2-0.6l0.4-1.8l1.1,1.8h2.1v-1.4l1.7,1l1.1,0.4l-0.4,4
			l4.1,0.1l2.9,1.2l4,0.5l2.4,2.1l2.1-2.1l3.7,0.6l2.2,3.2l1.1,0.3l-0.2,2l2.2,0.8l2.3-2.1l2.1,0.6h2.2l0.9,2.4l6.3,2.1l1.6-0.8
			l1.5-4.2h0.3l0.9,0.1l1.2,2.1l3.9,0.7l3.3,1.1l3.4,1.2l1.8-1l0.7-2.5h4.5l1.8,0.9l2.8-2.1h1.1l0.9,1.6h4.1l1.5-2l1.9,0.4l1.9,2.4
			l3.5,2l2.9,0.8l1.5,0.8l2.4,2l3-1.3l2.7,1.1l0.6,6.1v9.7l0.7,9.5l0.7,3.6l2.7,4.4l0.9,5l4.2,5.5l0.2,3.1l0.7,0.8l-0.7,8.4l-2.9,5
			l1.5,2.2l-0.6,2.3l-0.7,7.4l-1.5,3.3l0.3,3.5l-5.7,1.6l-9.9,4.5l-1,1.9l-2.6,1.9l-2.1,1.5l-1.3,0.8l-5.7,5.3l-2.7,2.1l-5.3,3.2
			l-5.7,2.4l-6.3,3.4l-1.8,1.5l-5.8,3.6l-3.4,0.6l-3.9,5.5l-4,0.3l-1,1.9l2.3,1.9l-1.5,5.5l-1.3,4.5l-1.1,3.9l-0.8,4.5l0.8,2.4l1.8,7
			l1,6.1l1.8,2.7l-1,1.5l-3.1,1.9l-5.7-3.9l-5.5-1.1l-1.3,0.5l-3.2-0.6l-4.2-3.1l-5.2-1.1l-7.6-3.4l-2.1-3.9l-1.3-6.5l-3.2-1.9
			l-0.6-2.3l0.6-0.6l0.3-3.4l-1.3-0.6l-0.6-1l1.3-4.4l-1.6-2.3l-3.2-1.3l-3.4-4.4l-3.6-6.6l-4.2-2.6l0.2-1.9l-5.3-12.3l-0.8-4.2
			l-1.8-1.9l-0.2-1.5l-6-5.3l-2.6-3.1v-1.1l-2.6-2.1l-6.8-1.1l-7.4-0.6l-3.1-2.3l-4.5,1.8l-3.6,1.5l-2.3,3.2l-1,3.7l-4.4,6.1
			l-2.4,2.4l-2.6-1l-1.8-1.1l-1.9-0.6l-3.9-2.3v-0.6l-1.8-1.9l-5.2-2.1l-7.4-7.8l-2.3-4.7v-8.1l-3.2-6.5l-0.5-2.7l-1.6-1l-1.1-2.1
			l-5-2.1l-1.3-1.6l-7.1-7.9l-1.3-3.2l-4.7-2.3l-1.5-4.4l-2.6-2.9l-1.9-0.5l-0.6-4.7l8,0.7l29,2.7l29,1.6l2.2-19.5l3.9-55.6l1.6-18.7
			h1.4 M455.9,553.3l-0.6-7.1l-2.7-7.2l-0.6-7l1.5-8.2l3.3-6.9l3.5-5.4l3.2-3.6l0.6,0.2l-4.8,6.6l-4.4,6.5l-2,6.6l-0.3,5.2l0.9,6.1
			l2.6,7.2l0.5,5.2l0.2,1.5L455.9,553.3L455.9,553.3z" />
		</g>
		<g id="TX_secondary" class="TX secondary">
			<path d="
			M353.3,341.6l1.6-18.7h1.4l-0.1,0.6l22.2,1.3l31.1,1.1l-2.3,23.5l-0.3,18.2l0.1,2.1l4.3,3.8l2,1.4l1.2-0.6l0.4-1.8l1.1,1.8h2.1
			v-1.4l1.7,1l1.1,0.4l-0.4,4l4.1,0.1l2.9,1.2l4,0.5l2.4,2.1l2.1-2.1l3.7,0.6l2.2,3.2l1.1,0.3l-0.2,2l2.2,0.8l2.3-2.1l2.1,0.6h2.2
			l0.9,2.4l6.3,2.1l1.6-0.8l1.5-4.2h0.3l0.9,0.1l1.2,2.1l3.9,0.7l3.3,1.1l3.4,1.2l1.8-1l0.7-2.5h4.5l1.8,0.9l2.8-2.1h1.1l0.9,1.6h4.1
			l1.5-2l1.9,0.4l1.9,2.4l3.5,2l2.9,0.8l1.5,0.8l2.4,2l3-1.3l2.7,1.1l0.6,6.1v9.7l0.7,9.5l0.7,3.6l2.7,4.4l0.9,5l4.2,5.5l0.2,3.1
			l0.7,0.8l-0.7,8.4l-2.9,5l1.5,2.2l-0.6,2.3l-0.7,7.4l-1.5,3.3l0.3,3.5l-5.7,1.6l-9.9,4.5l-1,1.9l-2.6,1.9l-2.1,1.5l-1.3,0.8
			l-5.7,5.3l-2.7,2.1l-5.3,3.2l-5.7,2.4l-6.3,3.4l-1.8,1.5L353.3,341.6z" />
		</g>
		<text class="TX" transform="matrix(1 0 0 1 419.1631 452.5783)">TX</text>
	</g>
	<g id="NM" class="NM outer">
		<g id="NM_main" class="NM main">
			<path d="M282.4,417.1l-0.8-4.7l8.6,0.5
			l30.2,2.9l27.3,1.7l2.2-18.7l3.9-55.9l1.7-19.4l1.6,0.1l0.8-11.2L285,305l-31.1-3.2l-17.5,120.4l15.5,2l1.3-10L282.4,417.1
			L282.4,417.1z" />
		</g>
		<g id="NM_secondary" class="NM secondary">
			<path d="M320.4,415.8l27.3,1.7l2.2-18.7
			l3.9-55.9l1.7-19.4l1.6,0.1l0.8-11.2L285,305L320.4,415.8z" />
		</g>
		<text class="NM" transform="matrix(1 0 0 1 283.9741 368.3678)">NM</text>
	</g>
	<g id="KS" class="KS outer">
		<g id="KS_main" class="KS main">
			<path d="M502.1,317.5l-12.6,0.2
			l-46.1-0.5l-44.6-2.1l-24.6-1.3l3.9-64.6l22.1,0.7l40.3,0.8l44.3,1h5.1l2.2,2.2h2l1.6,1l-0.1,3l-1.8,1.7l-0.3,2.2l1.8,3.4l3,3.2
			l2.3,1.6l1.3,11.2L502.1,317.5L502.1,317.5z" />
		</g>
		<g id="KS_secondary" class="KS secondary">
			<path d="M413.5,250.3l27,0.6l44.3,1h5.1
			l2.2,2.2h2l1.6,1l-0.1,3l-1.8,1.7l-0.3,2.2l1.8,3.4l3,3.2l2.3,1.6l1.3,11.2l0.2,36.1l0,0l-12.6,0.2l-29.7-0.3L413.5,250.3z" />
		</g>
		<text class="KS" transform="matrix(1 0 0 1 426.8952 291.4839)">KS</text>
	</g>
	<g id="NE" class="NE outer">
		<g id="NE_main" class="NE main">
			<path d="M480.3,233.8
			l3.2,7l-0.1,2.3l3.5,5.5l2.7,3.2h-5l-43.5-0.9l-40.8-0.9l-22.3-0.8l1.1-21.3l-32.3-2.9l4.3-44l15.5,1l20.1,1.1l17.8,1.1l23.8,1.1
			l10.7-0.5l2.1,2.3l4.8,3l1.1,0.9l4.3-1.4l3.9-0.5l2.7-0.2l1.8,1.4l4.1,1.6l3,1.6l0.5,1.6l0.9,2.1h1.8h0.8l0.9,4.7l2.9,8.5l0.6,3.8
			l2.5,3.8l0.6,5.1l1.6,4.2L480.3,233.8L480.3,233.8z" />
		</g>
		<g id="NE_secondary" class="NE secondary">
			<path d="M404.5,184.2
			l23.8,1.1l10.7-0.5l2.1,2.3l4.8,3l1.1,0.9l4.3-1.4l3.9-0.5l2.7-0.2l1.8,1.4l4.1,1.6l3,1.6l0.5,1.6l0.9,2.1h1.8h0.8l0.9,4.7l2.9,8.5
			l0.6,3.8l2.5,3.8l0.6,5.1l1.6,4.2l0.4,6.5l0,0l3.2,7l-0.1,2.3l3.5,5.5l2.7,3.2h-5l-43.5-0.9L404.5,184.2z" />
		</g>
		<text class="NE" transform="matrix(1 0 0 1 409.1533 226.9678)">NE</text>
	</g>
	<g id="SD" class="SD outer">
		<g id="SD_main" class="SD main">
			<path d="M470.7,197.1
			v-0.6l-2.9-4.8l1.9-4.7l1.5-5.9l-2.8-2.1l-0.4-2.7l0.8-2.6h3.2l-0.1-5l-0.3-30.2l-0.6-3.8l-4.1-3.3l-1-1.7l-0.1-1.6l2-1.5l1.5-1.7
			l0.2-2.7l-58.3-1.6l-54.8-3.4l-5.3,63.7l14.6,0.9l19.9,1.2l17.7,0.9l23.8,1.3l12-0.4l2,2.2l5.2,3.3l0.8,0.7l4.5-1.5l6.5-0.6
			l1.7,1.3l4.2,1.6l2.9,1.6l0.4,1.5l1,2.2L470.7,197.1L470.7,197.1z" />
		</g>
		<g id="SD_secondary" class="SD secondary">
			<path d="M427.1,185.2
			l12-0.4l2,2.2l5.2,3.3l0.8,0.7l4.5-1.5l6.5-0.6l1.7,1.3l4.2,1.6l2.9,1.6l0.4,1.5l1,2.2h2.4l0,0v-0.6l-2.9-4.8l1.9-4.7l1.5-5.9
			l-2.8-2.1l-0.4-2.7l0.8-2.6h3.2l-0.1-5l-0.3-30.2l-0.6-3.8l-4.1-3.3l-1-1.7l-0.1-1.6l2-1.5l1.5-1.7l0.2-2.7l-58.3-1.6l-12.6-0.8
			L427.1,185.2z" />
		</g>
		<text class="SD" transform="matrix(1 0 0 1 401.0888 160.4517)">SD</text>
	</g>
	<g id="ND" class="ND outer">
		<g id="ND_main" class="ND main">
			<path d="M469.6,122l-0.6-8.4l-1.7-6.8
			l-1.9-13l-0.5-11l-1.7-3.1l-1.8-5.2V64.1l0.6-3.8l-1.8-5.5l-28.6-0.6L413,53.5l-26.5-1.3l-22.9-2.1l-7,67.2l54.9,3.3L469.6,122
			L469.6,122z" />
		</g>
		<g id="ND_secondary" class="ND secondary">
			<path d="M430.8,121.1l38.8,0.9l0,0l-0.6-8.4
			l-1.7-6.8l-1.9-13l-0.5-11l-1.7-3.1l-1.8-5.2V64.1l0.6-3.8l-1.8-5.5l-28.6-0.6L413,53.5l-12.8-0.6L430.8,121.1z" />
		</g>
		<text class="ND" transform="matrix(1 0 0 1 401.0888 93.0969)">ND</text>
	</g>
	<g id="WY" class="WY outer">
		<g id="WY_main" class="WY main">
			<path d="M354.6,136.4l-106.7-13.5l-14.1,88.5L347.1,225
			L354.6,136.4z" />
		</g>
		<g id="WY_secondary" class="WY secondary">
			<path d="M310.5,220.6l36.6,4.4l7.5-88.6l-70.6-8.9
			L310.5,220.6z" />
		</g>
		<text class="WY" transform="matrix(1 0 0 1 283.3468 180.1936)">WY</text>
	</g>
	<g id="MT" class="MT outer">
		<g id="MT_main" class="MT main">
			<path d="
			M363.5,50.1l-30.7-2.8l-29.3-3.6l-29.3-4l-32.3-5.3L223.5,31l-32.7-7l-4.5,21.3l3.4,7.5l-1.4,4.6l1.8,4.6l3.2,1.4l4.6,10.8l2.7,3.2
			l0.5,1.1l3.4,1.1l0.5,2.1l-7,17.6v2.5l2.5,3.2h0.9l4.8-3l0.7-1.1l1.6,0.7l-0.2,5.3l2.7,12.6l3,2.5l0.9,0.7l1.8,2.3l-0.5,3.4
			l0.7,3.4l1.1,0.9l2.3-2.3h2.7l3.2,1.6l2.5-0.9h4.1l3.7,1.6l2.7-0.5l0.5-3l3-0.7l1.4,1.4l0.5,3.2l1.4,0.8l1.9-11l106.7,13.4
			L363.5,50.1L363.5,50.1z" />
		</g>
		<g id="MT_secondary" class="MT secondary">
			<path d="
			M297.6,129.1l57,7.2l8.9-86.2l0,0l-30.7-2.8l-29.3-3.6l-29.3-4l-32.3-5.3L297.6,129.1z" />
		</g>
		<text class="MT" transform="matrix(1 0 0 1 263.992 86.6453)">MT</text>
	</g>
	<g id="CO" class="CO outer">
		<g id="CO_main" class="CO main">
			<path d="M374.3,314.1l4.9-86.3l-113.4-12.6L253.6,303
			L374.3,314.1z" />
		</g>
		<g id="CO_secondary" class="CO secondary">
			<path d="M331.7,310.2l42.6,3.9l4.9-86.3l-72.4-8
			L331.7,310.2z" />
		</g>
		<text class="CO" transform="matrix(1 0 0 1 303.1871 272.4614)">CO</text>
	</g>
	<g id="ID" class="ID outer">

		<g id="ID_main" class="ID main">
			<path d="
			M142.7,169.6l8.8-35.2l1.4-4.2l2.5-5.9l-1.3-2.3l-2.5,0.1l-0.8-1l0.5-1.1l0.3-3.1l4.5-5.5l1.8-0.5l1.1-1.1l0.6-3.2l0.9-0.7l3.9-5.8
			l3.9-4.3l0.2-3.8l-3.4-2.6l-1.5-4.4l13.6-63.3l13.5,2.5l-4.4,21.4l3.6,7.5l-1.6,4.7l2,4.6l3.1,1.3l3.8,9.6l3.5,4.4l0.5,1.1l3.3,1.1
			l0.4,2.1l-7,17.4l-0.2,2.6l2.6,3.3h0.9l4.9-3l0.7-1.1l1.6,0.7l-0.3,5.4l2.7,12.6l3.9,3.2l1.7,2.2l-0.7,4.1l1.1,2.8l1.1,1.1l2.5-2.4
			h2.8l2.9,1.3l2.8-0.7l3.8-0.2l4,1.6l2.7-0.3l0.5-3l2.9-0.8l1.3,1.5l0.4,2.9l1.4,1.2l-8.4,53.6C237.7,187.8,149.7,171.1,142.7,169.6
			L142.7,169.6z" />

		</g>
		<g id="ID_secondary" class="ID secondary">
			<path d="
			M168.7,61.3l8.5-39.6l13.5,2.5l-4.4,21.4l3.6,7.5l-1.6,4.7l2,4.6l3.1,1.3l3.8,9.6l3.5,4.4l0.5,1.1l3.3,1.1l0.4,2.1l-7,17.4
			l-0.2,2.6l2.6,3.3h0.9l4.9-3l0.7-1.1l1.6,0.7l-0.3,5.4l2.7,12.6l3.9,3.2l1.7,2.2l-0.7,4.1l1.1,2.8l1.1,1.1l2.5-2.4h2.8l2.9,1.3
			l2.8-0.7l3.8-0.2l4,1.6l2.7-0.3l0.5-3l2.9-0.8l1.3,1.5l0.4,2.9l1.4,1.2l-8.4,53.6c0.1-0.1-8-1.6-19.5-3.9L168.7,61.3z" />
		</g>
		<text class="ID" transform="matrix(1 0 0 1 180.1577 152.091)">ID</text>
	</g>
	<g id="UT" class="UT outer">
		<g id="UT_main" class="UT main">
			<path d="M253.7,303.2L170,291.3l20.6-112.5l46.8,8.7
			l-1.5,10.6l-2.3,13.2l7.8,0.9l16.4,1.8l8.2,0.9L253.7,303.2L253.7,303.2z" />
		</g>
		<g id="UT_secondary" class="UT secondary">
			<path d="M207.3,181.9l30.1,5.6l-1.5,10.6l-2.3,13.2
			l7.8,0.9l16.4,1.8l8.2,0.9l-12.3,88.3l0,0l-21.5-3.1L207.3,181.9z" />
		</g>
		<text class="UT" transform="matrix(1 0 0 1 201.0389 257.6465)">UT</text>
	</g>
	<g id="AZ" class="AZ outer">
		<g id="AZ_main" class="AZ main">
			<path d="
			M139.2,375.7l-2.6,2.2l-0.3,1.5l0.5,1l18.9,10.7l12.1,7.6l14.7,8.6l16.8,10l12.3,2.4l25,2.7l17.3-119.1l-83.9-12l-3.1,16.4h-1.6
			l-1.7,2.6l-2.5-0.1l-1.3-2.7l-2.7-0.3l-0.9-1.1h-0.9l-0.9,0.6l-1.9,1l-0.1,7l-0.2,1.7l-0.6,12.6l-1.6,2l-0.6,3.3l2.7,4.9l1.3,5.8
			l0.8,1l1,0.6l-0.1,2.3l-1.6,1.4l-3.4,1.7l-1.9,1.9l-1.5,3.7l-0.6,4.9l-2.9,2.7l-2.1,0.7l0.1,0.8l-0.5,1.7l0.5,0.8l3.7,0.6l-0.6,2.7
			l-1.5,2.2L139.2,375.7L139.2,375.7z" />
		</g>
		<g id="AZ_secondary" class="AZ secondary">
			<path d="
			M211.6,419.7l25,2.7l17.3-119.1l-58.8-8.4L211.6,419.7z" />
		</g>
		<text class="AZ" transform="matrix(1 0 0 1 183.9741 357.8415)">AZ</text>
	</g>
	<g id="NV" class="NV outer">
		<g id="NV_main" class="NV main">
			<path d="M190.6,178.7L167,307.5l-1.8,0.3
			l-1.6,2.4h-2.4l-1.5-2.7l-2.6-0.4l-0.8-1.1l-1-0.1l-2.8,1.6l-0.3,6.8l-0.4,5.8l-0.3,8.6l-1.4,2.1l-2.4-1.1L78.6,225.6l19-67.6
			L190.6,178.7L190.6,178.7z" />
		</g>
		<g id="NV_secondary" class="NV secondary">
			<path d="M92.5,176.2l5.1-18.2l93,20.7l0,0
			l-14.7,80.1L92.5,176.2z" />
		</g>
		<text class="NV" transform="matrix(1 0 0 1 119.5574 235.4243)">NV</text>
	</g>
	<g id="OR" class="OR outer">
		<g id="OR_main" class="OR main">
			<path d="
			M143,168.6l8.8-34.8l1.1-4.2l2.4-5.6l-0.6-1.2h-2.5l-1.3-1.7l0.5-1.5l0.5-3.2l4.5-5.5l1.8-1.1l1.1-1.1l1.5-3.6l4-5.7l3.6-3.9
			l0.2-3.5l-3.3-2.5l-1.8-4.6l-12.7-3.6l-15.1-3.5l-15.4,0.1l-0.5-1.4l-5.5,2.1l-4.5-0.6l-2.4-1.6l-1.3,0.7l-4.7-0.2l-1.7-1.4
			l-5.3-2.1l-0.8,0.1L89.3,72l-1.9,1.8l-6.2-0.3l-5.9-4.1l0.7-0.8l0.2-7.8L74,57l-4.1-0.6l-0.7-2.5l-2.4-0.5L61,55.5L58.8,62l-3.2,10
			l-3.2,6.5l-5,14.1l-6.5,13.6l-8.1,12.6l-1.9,2.9l-0.8,8.6l0.4,12.1L143,168.6L143,168.6z" />
		</g>
		<g id="OR_secondary" class="OR secondary">
			<path d="
			M104.6,159.7l38.4,8.9l0,0l8.8-34.8l1.1-4.2l2.4-5.6l-0.6-1.2h-2.5l-1.3-1.7l0.5-1.5l0.5-3.2l4.5-5.5l1.8-1.1l1.1-1.1l1.5-3.6
			l4-5.7l3.6-3.9l0.2-3.5l-3.3-2.5l-1.8-4.6l-12.7-3.6l-15.1-3.5l-15.4,0.1l-0.5-1.4l-5.5,2.1l-4.5-0.6l-2.4-1.6l-1.3,0.7l-4.7-0.2
			l-1.7-1.4l-5.3-2.1l-0.8,0.1L89.3,72l-1.9,1.8l-6.2-0.3L104.6,159.7z" />
		</g>
		<text class="OR" transform="matrix(1 0 0 1 83.7373 124.138)">OR</text>
	</g>
	<g id="WA" class="WA outer">
		<g id="WA_main" class="WA main">
			<path d="
			M96.3,0.7l4.4,1.5l9.7,2.7l8.6,1.9l20,5.7l23,5.7l15.2,3.2L163.5,85l-12.4-3.5l-15.5-3.6h-15.2l-0.5-1.3l-5.6,2.2l-4.6-0.7
			l-2.1-1.6l-1.3,0.7l-4.7-0.1l-1.7-1.3l-5.3-2.1l-0.7,0.1l-4.4-1.5l-1.9,1.8l-6.3-0.3l-5.9-4.1l0.8-0.9l0.1-7.7L74,57l-4.1-0.6
			l-0.7-2.5l-2.3-0.5l-3.6,1.2L61,51.4l0.3-2.9l2.7-0.3l1.6-4L63,43.1l0.2-3.7l4.4-0.6L65,35.9l-1.5-7.1l0.6-2.9V18l-1.8-3.2l2.3-9.4
			l2.1,0.5l2.4,2.9l2.7,2.6l3.2,1.9l4.5,2.1l3.1,0.6l2.9,1.5l3.4,1l2.3-0.2v-2.4l1.3-1.1l2.1-1.3l0.3,1.1l0.3,1.8l-2.3,0.5L92.8,19
			l1.8,1.5l1.1,2.4l0.6,1.9l1.5-0.2l0.2-1.3L97,22l-0.5-3.2l0.8-1.8l-0.6-1.5v-2.3l1.8-3.6L97.4,7L95,2.2l0.3-0.8
			C95.2,1.5,96.3,0.7,96.3,0.7z M86.9,6.7l2-0.2l0.5,1.4l1.5-1.6h2.3L94,7.8l-1.5,1.7l0.6,0.8l-0.7,2L91,12.7c0,0-0.9,0.1-0.9-0.2
			s1.5-2.6,1.5-2.6l-1.7-0.6l-0.3,1.5l-0.7,0.6l-1.5-2.3C87.4,9.2,86.9,6.7,86.9,6.7z" />
		</g>
		<g id="WA_secondary" class="WA secondary">
			<path d="
			M110.4,4.9l8.6,1.9l20,5.7l23,5.7l15.2,3.2L163.5,85l-12.4-3.5l-15.5-3.6h-15.2l-0.5-1.3L110.4,4.9z" />
		</g>
		<text class="WA" transform="matrix(1 0 0 1 108.4463 52.0909)">WA</text>
	</g>
	<g id="CA" class="CA outer">
		<g id="CA_main" class="CA main">
			<path d="
			M138.9,375.3l3.9-0.5l1.5-2l0.5-2.9l-3.6-0.6l-0.5-0.7l0.5-2L141,366l1.9-0.6l3-2.8l0.6-5l1.4-3.4l1.9-2.2l3.5-1.6l1.7-1.6l0.1-2.1
			l-1-0.6l-1-1.1l-1.2-5.8l-2.7-4.8l0.6-3.5l-2.4-1L78.5,225.6L97.4,158l-67.1-15.7l-1.5,4.7l-0.2,7.4l-5.2,11.8l-3.1,2.6l-0.3,1.1
			l-1.8,0.8l-1.5,4.2l-0.8,3.2l2.7,4.2l1.6,4.2l1.1,3.6l-0.3,6.5l-1.8,3.1l-0.6,5.8l-1,3.7l1.8,3.9l2.7,4.5l2.3,4.8l1.3,4l-0.3,3.2
			l-0.3,0.5v2.1l5.7,6.3l-0.5,2.4l-0.6,2.3l-0.6,1.9l0.2,8.2l2.1,3.7l1.9,2.6l2.7,0.5l1,2.7l-1.1,3.6l-2.1,1.6h-1.1l-0.8,3.9l0.5,2.9
			l3.2,4.4l1.6,5.3l1.5,4.7l1.3,3.1l3.4,5.8l1.5,2.6l0.5,2.9l1.6,1v2.4l-0.8,1.9l-1.8,7.1l-0.5,1.9l2.4,2.7l4.2,0.5l4.5,1.8l3.9,2.1
			h2.9l2.9,3.1l2.6,4.8l1.1,2.3l3.9,2.1l4.8,0.8l1.5,2.1l0.6,3.2l-1.5,0.6l0.3,1l3.2,0.8l2.7,0.2l3.2-1.7l3.9,4.2l0.8,2.3l2.6,4.2
			l0.3,3.2v9.4l0.5,1.8l10,1.5l19.7,2.7L138.9,375.3L138.9,375.3z M50.8,331.6l1.3,1.5l-0.2,1.3l-3.2-0.1l-0.6-1.2l-0.6-1.5
			L50.8,331.6L50.8,331.6z M52.7,331.6l1.2-0.6l3.6,2.1l3.1,1.2l-0.9,0.6l-4.5-0.2l-1.6-1.6L52.7,331.6L52.7,331.6z M73.4,351.4
			l1.8,2.3l0.8,1l1.5,0.6l0.6-1.5l-1-1.8l-2.7-2l-1.1,0.2L73.4,351.4L73.4,351.4z M72,360l1.8,3.2l1.2,1.9l-1.5,0.2l-1.3-1.2
			c0,0-0.7-1.5-0.7-1.9s0-2.2,0-2.2H72L72,360z" />
		</g>
		<g id="CA_secondary" class="CA secondary">
			<path d="
			M112.5,277.1l-34-51.5L97.4,158l-67.1-15.7l-1.5,4.7l-0.2,7.4l-5.2,11.8l-3.1,2.6l-0.3,1.1l-1.8,0.8l-1.5,4.2l-0.8,3.2l2.7,4.2
			l1.6,4.2l1.1,3.6l-0.3,6.5l-1.8,3.1l-0.6,5.8l-1,3.7l1.8,3.9l2.7,4.5l2.3,4.8l1.3,4l-0.3,3.2l-0.3,0.5v2.1l5.7,6.3l-0.5,2.4
			l-0.6,2.3l-0.6,1.9L112.5,277.1z" />
		</g>
		<text class="CA" transform="matrix(1 0 0 1 56.3425 284.1573)">CA</text>
	</g>

	<path class="line" d="M855.5,86.9V54.2h-12.3" />
	<path class="line" d="M906.2,176.1h-33v-7.5" />
	<path class="line" d="M906.2,324.1h-58.6v-73.9h-14.2" />
	<path class="line" d="M906.2,287.1h-48.7V239H831" />
	<path class="line" d="M906.2,213.1h-48.7v-37.9" />
	<path class="line" d="M906.2,250.1h-38.9v-26.2h-29.1" />
	<path class="line" d="M906.2,139.1h-22.9v13.6" />
	<path class="line" d="M838.4,96.9V81.3h-88.1V69.2" />

	<g id="NH" class="NH outer">
		<g id="NH_main" class="NH main">
			<path d="M875,135.5l0.9-1.1l1.1-3.3
				l-2.5-0.9l-0.5-3.1l-3.9-1.1l-0.3-2.7l-7.3-23.4l-4.6-14.5H857l-0.6,1.6l-0.6-0.5l-1-1l-1.5,1.9v5l0.3,5.7l1.9,2.7v4l-3.7,5.1
				l-2.6,1.1v1.1l1.1,1.8v8.6l-0.8,9.2l-0.2,4.8l1,1.3l-0.2,4.5l-0.5,1.8l1,0.7l16.8-4.4l2.2-0.6l1.8-2.8L875,135.5L875,135.5z" />
			<path d="M793.4,39.2H838c2.9,0,5.2,2.2,5.2,5v20.1c0,2.7-2.3,5-5.2,5h-44.5c-2.9,0-5.2-2.2-5.2-5V44.2
				C788.2,41.4,790.6,39.2,793.4,39.2z" />
		</g>
		<g id="NH_secondary" class="NH secondary">
			<path d="M875,135.5L875,135.5l0.9-1.1
				l1.1-3.3l-2.5-0.9l-0.5-3.1l-3.9-1.1l-0.3-2.7l-7.3-23.4l-4.6-14.5H857l-0.6,1.6l-0.6-0.5l-1-1l-1.5,1.9v5l0.3,5.7l1.9,2.7v4
				l-3.7,5.1L875,135.5z" />
			<path d="M815.7,39.2H838c2.9,0,5.2,2.2,5.2,5v20.1c0,2.7-2.3,5-5.2,5h-22.3V39.2z" />
		</g>
		<text class="NH" transform="matrix(1 0 0 1 802.1399 61.6054)">NH</text>
	</g>
	<g id="VT" class="VT outer">
		<g id="VT_main" class="VT main">
			<path d="M838.7,147.2l0.3-5.3l-2.9-10.8
				l-0.6-0.3l-2.9-1.3l0.8-2.9l-0.8-2.1l-2.7-4.6l1-3.9l-0.8-5.2l-2.4-6.5l-0.8-4.9l26.4-6.7l0.3,5.5l1.9,2.7v4l-3.7,5.1l-2.6,1.1
				v1.1l1.3,1.5l-0.3,8.1l-0.6,9.3l-0.2,5.6l1,1.3l-0.2,4.6l-0.5,1.7l1,0.7l-7.4,1.5L838.7,147.2L838.7,147.2z" />
			<path d="M728,39.2h44.5c2.9,0,5.2,2.2,5.2,5v20.1c0,2.7-2.3,5-5.2,5H728c-2.9,0-5.2-2.2-5.2-5V44.2
				C722.8,41.4,725.1,39.2,728,39.2z" />
		</g>
		<g id="VT_secondary" class="VT secondary">
			<path d="M830.1,110.8l-2.4-6.5l-0.8-4.9
				l26.4-6.7l0.3,5.5l1.9,2.7v4l-3.7,5.1l-2.6,1.1v1.1l1.3,1.5l-0.3,8.1L830.1,110.8z" />
			<path d="M750.2,39.2h22.2c2.9,0,5.2,2.2,5.2,5v20.1c0,2.7-2.3,5-5.2,5h-22.2V39.2z" />
		</g>
		<text class="VT" transform="matrix(1 0 0 1 738.0408 61.6054)">VT</text>
	</g>
	<g id="MA" class="MA outer">
		<g id="MA_main" class="MA main">
			<path d="
				M893.9,166.3l2.2-0.7l0.5-1.7l1,0.1l1,2.3l-1.3,0.5l-3.9,0.1L893.9,166.3L893.9,166.3z M884.5,167.1l2.3-2.6h1.6l1.8,1.5l-2.4,1
				l-2.2,1L884.5,167.1L884.5,167.1z M849.7,145.2l17.6-4.6l2.3-0.6l1.9-2.8l3.7-1.7l2.9,4.4l-2.4,5.2l-0.3,1.5l1.9,2.6l1.1-0.8h1.8
				l2.3,2.6l3.9,6l3.6,0.5l2.3-1l1.8-1.8l-0.8-2.7l-2.1-1.6l-1.5,0.8l-1-1.3l0.5-0.5l2.1-0.2l1.8,0.8l1.9,2.4l1,2.9l0.3,2.4l-4.2,1.5
				l-3.9,1.9l-3.9,4.5l-1.9,1.5v-1l2.4-1.5l0.5-1.8l-0.8-3.1l-2.9,1.5l-0.8,1.5l0.5,2.3l-2.1,1l-2.7-4.5L873,157l-2.1-1.8l-6.5,1.9
				l-5.1,1.1l-20.7,4.6l-0.7-4.8l0.6-10.6l4.3-0.9L849.7,145.2L849.7,145.2z" />
			<path d="M911.4,124.1H956c2.9,0,5.2,2.2,5.2,5v20.1c0,2.7-2.3,5-5.2,5h-44.5c-2.9,0-5.2-2.2-5.2-5v-20.1
				C906.2,126.3,908.6,124.1,911.4,124.1z" />
		</g>
		<g id="MA_secondary" class="MA secondary">
			<path d="
				M893.9,166.3l2.2-0.7l0.5-1.7l1,0.1l1,2.3l-1.3,0.5l-3.9,0.1L893.9,166.3L893.9,166.3z M884.5,167.1l2.3-2.6h1.6l1.8,1.5l-2.4,1
				l-2.2,1L884.5,167.1L884.5,167.1z M856,143.6l11.3-3l2.3-0.6l1.9-2.8l3.7-1.7l2.9,4.4l-2.4,5.2l-0.3,1.5l1.9,2.6l1.1-0.8h1.8
				l2.3,2.6l3.9,6l3.6,0.5l2.3-1l1.8-1.8l-0.8-2.7l-2.1-1.6l-1.5,0.8l-1-1.3l0.5-0.5l2.1-0.2l1.8,0.8l1.9,2.4l1,2.9l0.3,2.4l-4.2,1.5
				l-3.9,1.9l-3.9,4.5l-1.9,1.5v-1l2.4-1.5l0.5-1.8l-0.8-3.1l-2.9,1.5l-0.8,1.5l0.5,2.3l-2.1,1l-2.7-4.5L873,157l-2.1-1.8L856,143.6z
				" />
			<path d="M933.7,124.1H956c2.9,0,5.2,2.2,5.2,5v20.1c0,2.7-2.3,5-5.2,5h-22.3V124.1z" />
		</g>
		<text class="MA" transform="matrix(1 0 0 1 919.9963 146.6049)">MA</text>
	</g>
	<g id="RI" class="RI outer">
		<g id="RI_main" class="RI main">
			<path d="M868.3,172l-3.7-15l6.3-1.8l2.2,1.9l3.3,4.3l2.7,4.4
				l-3,1.6l-1.3-0.2l-1.1,1.8l-2.4,1.9L868.3,172L868.3,172z" />
			<path d="M911.4,161.1H956c2.9,0,5.2,2.2,5.2,5v20.1c0,2.7-2.3,5-5.2,5h-44.5c-2.9,0-5.2-2.2-5.2-5v-20.1
				C906.2,163.3,908.6,161.1,911.4,161.1z" />
		</g>
		<g id="RI_secondary" class="RI secondary">
			<path d="M867.4,156.2l3.5-1l2.2,1.9l3.3,4.3l2.7,4.4l-3,1.6
				l-1.3-0.2l-0.5,0.8L867.4,156.2z" />
			<path d="M933.7,161.1H956c2.9,0,5.2,2.2,5.2,5v20.1c0,2.7-2.3,5-5.2,5h-22.3V161.1z" />
		</g>
		<text class="RI" transform="matrix(1 0 0 1 924.8104 183.682)">RI</text>
	</g>
	<g id="CT" class="CT outer">
		<g id="CT_main" class="CT main">
			<path d="M868.3,172l-3.7-14.9l-4.7,0.9l-21.2,4.7l1,3.2
				l1.5,7.3l0.2,9l-1.2,2.2l1.9,1.9l4.3-3.9l3.6-3.2l1.9-2.1l0.8,0.6l2.7-1.5l5.2-1.1L868.3,172L868.3,172z" />
			<path d="M911.4,198.1H956c2.9,0,5.2,2.2,5.2,5v20.1c0,2.7-2.3,5-5.2,5h-44.5c-2.9,0-5.2-2.2-5.2-5v-20.1
				C906.2,200.3,908.6,198.1,911.4,198.1z" />
		</g>
		<g id="CT_secondary" class="CT secondary">
			<path d="M855.4,176.2l5.2-1.1l7.7-3.1l0,0l-3.7-14.9
				l-4.7,0.9l-10.2,2.3L855.4,176.2z" />
			<path d="M933.7,198.1H956c2.9,0,5.2,2.2,5.2,5v20.1c0,2.7-2.3,5-5.2,5h-22.3V198.1z" />
		</g>
		<text class="CT" transform="matrix(1 0 0 1 921.0266 220.6052)">CT</text>
	</g>
	<g id="NJ" class="NJ outer">
		<g id="NJ_main" class="NJ main">
			<path d="
				M823.9,181.6l-2.3,2.7v3.1l-1.9,3.1l-0.2,1.6l1.3,1.3l-0.2,2.4l-2.3,1.1l0.8,2.7l0.2,1.1l2.7,0.3l1,2.6l3.6,2.4l2.4,1.6v0.8
				l-3,2.7l-1.6,2.3l-1.5,2.7l-2.3,1.3l-0.5,1.6l-0.2,1.2l-0.6,2.6l1.1,2.2l3.2,2.9l4.8,2.3l4,0.6l0.2,1.5l-0.8,1l0.3,2.7h0.8
				l2.1-2.4l0.8-4.8l2.7-4l3.1-6.5l1.1-5.5l-0.6-1.1l-0.2-9.4l-1.6-3.4l-1.1,0.8l-2.7,0.3l-0.5-0.5l1.1-1l2.1-1.9l0.1-1.1l-0.4-3.4
				l0.6-2.7l-0.1-2l-2.8-1.8l-5.1-1.2l-4.1-1.4L823.9,181.6L823.9,181.6z" />
			<path d="M911.4,235.1H956c2.9,0,5.2,2.2,5.2,5v20.1c0,2.7-2.3,5-5.2,5h-44.5c-2.9,0-5.2-2.2-5.2-5v-20.1
				C906.2,237.3,908.6,235.1,911.4,235.1z" />
		</g>
		<g id="NJ_secondary" class="NJ secondary">
			<path d="
				M842.7,212.8l-0.6-1.1l-0.2-9.4l-1.6-3.4l-1.1,0.8l-2.7,0.3l-0.5-0.5l1.1-1l2.1-1.9l0.1-1.1l-0.4-3.4l0.6-2.7l-0.1-2l-2.8-1.8
				l-5.1-1.2l-4.1-1.4l-3.5-1.4l0,0l-2.3,2.7v3.1l-1.9,3.1l-0.2,1.6l1.3,1.3l-0.2,2.4l-2.3,1.1l0.8,2.7l0.2,1.1l2.7,0.3l1,2.6
				l3.6,2.4l2.4,1.6L842.7,212.8z" />
			<path d="M933.7,235.1H956c2.9,0,5.2,2.2,5.2,5v20.1c0,2.7-2.3,5-5.2,5h-22.3V235.1z" />
		</g>
		<text class="NJ" transform="matrix(1 0 0 1 922.0059 257.5024)">NJ</text>
	</g>
	<g id="DE" class="DE outer">
		<g id="DE_main" class="DE main">
			<path d="M819.9,221.4l0.4-2.1l0.4-1.7l-1.6,0.4
				l-1.6,0.5l-2.2,1.8l1.7,5l2.3,5.7l2.1,9.7l1.6,6.3l5-0.2l6.1-1.2l-2.3-7.4l-1,0.5l-3.6-2.4l-1.8-4.7l-1.9-3.6l-3.1-2.9l-0.9-2.1
				L819.9,221.4L819.9,221.4z" />
			<path d="M911.4,272.1H956c2.9,0,5.2,2.2,5.2,5v20.1c0,2.7-2.3,5-5.2,5h-44.5c-2.9,0-5.2-2.2-5.2-5v-20.1
				C906.2,274.3,908.6,272.1,911.4,272.1z" />
		</g>
		<g id="DE_secondary" class="DE secondary">
			<path d="M827.2,236.3l-1.8-4.7l-1.9-3.6l-3.1-2.9
				l-0.9-2.1l0.4-1.6l0,0l0.4-2.1l0.4-1.7l-1.6,0.4l-1.6,0.5l-2.2,1.8l1.7,5l2.3,5.7L827.2,236.3z" />
			<path d="M933.7,272.1H956c2.9,0,5.2,2.2,5.2,5v20.1c0,2.7-2.3,5-5.2,5h-22.3V272.1z" />
		</g>
		<text class="DE" transform="matrix(1 0 0 1 921.2524 294.6565)">DE</text>
	</g>
	<g id="MD" class="MD outer">
		<g id="MD_main" class="MD main">
			<path d="
				M834,245.5l-6,1.2l-5.1,0.1l-1.8-6.9l-1.9-9.2l-2.6-6.2l-1.3-4.4l-7.5,1.6l-14.9,2.8l-6.7,1.4l-30.8,6.2l1.1,5l1,5.7l0.3-0.3
				l2.1-2.4l2.3-2.6l2.4-0.6l1.5-1.5l1.8-2.6l1.3,0.6l2.9-0.3l2.6-2.1l2-1.5l1.8-0.5l1.6,1.1l2.9,1.5l1.9,1.8l1.2,1.5l4.1,1.7v2.9
				l5.5,1.3l1.1,0.5l1.4-2l2.9,2l-1.3,2.5l-0.8,4l-1.8,2.6v2.1l0.6,1.8l5.1,1.4l4.3-0.1l3.1,1l2.1,0.3l1-2.1l-1.5-2.1v-1.8l-2.4-2.1
				l-2.1-5.5l1.3-5.3l-0.2-2.1l-1.3-1.3c0,0,1.5-1.6,1.5-2.3c0-0.6,0.5-2.1,0.5-2.1l1.9-1.3l1.9-1.6l0.5,1l-1.5,1.6l-1.3,3.7l0.3,1.1
				l1.8,0.3l0.5,5.5l-2.1,1l0.3,3.6l0.5-0.2l1.1-1.9l1.6,1.8l-1.6,1.3l-0.3,3.4l2.6,3.4l3.9,0.5l1.6-0.8l3.2,4.2l1.4,0.5l6.7-2.8l2-4
				L834,245.5L834,245.5z M818.1,254.5l1.1,2.5l0.2,1.8l1.1,1.9c0,0,0.9-0.9,0.9-1.2s-0.7-3.1-0.7-3.1l-0.7-2.3L818.1,254.5
				L818.1,254.5z" />
			<path d="M911.4,309.1H956c2.9,0,5.2,2.2,5.2,5v20.1c0,2.7-2.3,5-5.2,5h-44.5c-2.9,0-5.2-2.2-5.2-5v-20.1
				C906.2,311.3,908.6,309.1,911.4,309.1z" />
		</g>
		<g id="MD_secondary" class="MD secondary">
			<path d="
				M808.7,238l-0.2-2.1l-1.3-1.3c0,0,1.5-1.6,1.5-2.3c0-0.6,0.5-2.1,0.5-2.1l1.9-1.3l1.9-1.6l0.5,1l-1.5,1.6l-1.3,3.7l0.3,1.1
				l1.8,0.3l0.5,5.5l-2.1,1l0.3,3.6l0.5-0.2l1.1-1.9l1.6,1.8l-1.6,1.3l-0.3,3.4l2.6,3.4l3.9,0.5l1.6-0.8l3.2,4.2l1.4,0.5l6.7-2.8l2-4
				l-0.2-5l0,0l-6,1.2l-5.1,0.1l-1.8-6.9l-1.9-9.2l-2.6-6.2l-1.3-4.4l-7.5,1.6l-14.9,2.8L808.7,238z M818.1,254.5l1.1,2.5l0.2,1.8
				l1.1,1.9c0,0,0.9-0.9,0.9-1.2s-0.7-3.1-0.7-3.1l-0.7-2.3L818.1,254.5L818.1,254.5z" />
			<path d="M933.7,309.1H956c2.9,0,5.2,2.2,5.2,5v20.1c0,2.7-2.3,5-5.2,5h-22.3V309.1z" />
		</g>
		<text class="MD" transform="matrix(1 0 0 1 920.1399 331.5539)">MD</text>
	</g>
</svg>