<?xml version="1.0" encoding="utf-8"?>
<!-- Generator: Adobe Illustrator 25.0.1, SVG Export Plug-In . SVG Version: 6.00 Build 0)  -->
<svg version="1.1" id="Layer_1" xmlns="http://www.w3.org/2000/svg" xmlns:xlink="http://www.w3.org/1999/xlink" x="0px" y="0px"
	 viewBox="0 0 48 48" style="enable-background:new 0 0 48 48;" xml:space="preserve">
<style type="text/css">
	.st0{display:none;}
	.st1{display:inline;fill:#FF0000;}
	.st2{fill:#FFFFFF;}
</style>
<g class="st0">
	<circle class="st1" cx="24" cy="24" r="24"/>
</g>
<path class="st2" d="M24,8c8.82,0,16,7.18,16,16s-7.18,16-16,16S8,32.82,8,24S15.18,8,24,8 M24,4C12.95,4,4,12.95,4,24
	s8.95,20,20,20s20-8.95,20-20S35.05,4,24,4L24,4z"/>
<path class="st2" d="M34,13.99c-2.48,2.77-4.81,5.63-6.98,8.59s-4.16,6-5.98,9.11c-0.13,0.23-0.3,0.55-0.5,0.96
	c-0.62,1.25-1.51,1.87-2.66,1.87c-0.49,0-0.89-0.07-1.21-0.22c-0.32-0.14-0.61-0.39-0.88-0.75c-0.22-0.31-0.43-0.71-0.62-1.2
	c-0.19-0.49-0.42-1.22-0.68-2.18c-0.02-0.06-0.04-0.13-0.06-0.22c-0.3-1.06-0.45-1.73-0.45-2c0-0.55,0.32-1.05,0.96-1.5
	s1.27-0.68,1.89-0.68c0.2,0,0.36,0.06,0.49,0.18s0.27,0.38,0.43,0.77c0.1,0.24,0.22,0.57,0.36,0.98c0.33,0.92,0.6,1.38,0.82,1.38
	c0.19,0,0.95-1.05,2.27-3.15c1.26-2,2.35-3.68,3.26-5.04c1.27-1.91,2.24-3.28,2.91-4.13c0.67-0.85,1.27-1.49,1.8-1.93
	c0.47-0.38,1.07-0.68,1.81-0.91c0.74-0.22,1.67-0.37,2.8-0.45L34,13.99z"/>
</svg>
